<?xml version="1.0" encoding="utf-8"?>
<!-- Generator: Adobe Illustrator 23.0.3, SVG Export Plug-In . SVG Version: 6.00 Build 0)  -->
<svg version="1.1" id="辅助技术" xmlns="http://www.w3.org/2000/svg" xmlns:xlink="http://www.w3.org/1999/xlink" x="0px"
	 y="0px" viewBox="0 0 16 16" style="enable-background:new 0 0 16 16;" xml:space="preserve">
<style type="text/css">
	.st0{fill:#5E95E5;}
	.st1{fill:#FFFFFF;}
</style>
<title>16</title>
<g id="_16">
	<path class="st0" d="M3,1h10c1.1,0,2,0.9,2,2v10c0,1.1-0.9,2-2,2H3c-1.1,0-2-0.9-2-2V3C1,1.9,1.9,1,3,1z"/>
	<path class="st1" d="M11.7,6h-0.1L8,6.6L4.5,6C4.4,6,4.3,6,4.2,6C4.1,6.1,4,6.2,4,6.3c0,0.1,0.1,0.2,0.2,0.3L7,7.4v2.1l-1.1,3
		c-0.1,0.1-0.1,0.3,0.1,0.4l0,0C6.1,13,6.3,13,6.4,12.8L8,9.6l1.5,3.3C9.6,13,9.8,13,9.9,12.9c0,0,0,0,0,0c0.1-0.1,0.2-0.2,0.1-0.4
		L9,9.5v-2l2.9-1C12,6.4,12,6.3,12,6.2C12,6.1,11.8,6,11.7,6z"/>
	<path class="st1" d="M9.5,4.5C9.5,5.4,8.8,6,8,6S6.5,5.3,6.5,4.5C6.5,3.7,7.2,3,8,3C8.8,3,9.5,3.7,9.5,4.5z"/>
</g>
</svg>
