<?xml version="1.0" encoding="utf-8"?>
<!-- Generator: Adobe Illustrator 23.0.3, SVG Export Plug-In . SVG Version: 6.00 Build 0)  -->
<svg version="1.1" id="图层_1" xmlns="http://www.w3.org/2000/svg" xmlns:xlink="http://www.w3.org/1999/xlink" x="0px" y="0px"
	 viewBox="0 0 128 128" style="enable-background:new 0 0 128 128;" xml:space="preserve">
<style type="text/css">
	.st0{fill:#ADADAD;}
	.st1{fill:#E6E6E6;}
	.st2{clip-path:url(#SVGID_2_);}
	.st3{fill:#4D4D4D;}
	.st4{fill:#FFFFFF;}
</style>
<title>128</title>
<g id="鼠标">
	<g id="_128">
		<path class="st0" d="M63,5h2c22.1,0,40,17.9,40,40v38c0,22.1-17.9,40-40,40h-2c-22.1,0-40-17.9-40-40V45C23,22.9,40.9,5,63,5z"/>
		<path class="st1" d="M64,7L64,7c18.8,0,34,15.2,34,34v36c0,18.8-15.2,34-34,34l0,0c-18.8,0-34-15.2-34-34V41C30,22.2,45.2,7,64,7z
			"/>
		<g>
			<defs>
				<path id="SVGID_1_" d="M63,5h2c22.1,0,40,17.9,40,40v38c0,22.1-17.9,40-40,40h-2c-22.1,0-40-17.9-40-40V45C23,22.9,40.9,5,63,5z
					"/>
			</defs>
			<clipPath id="SVGID_2_">
				<use xlink:href="#SVGID_1_"  style="overflow:visible;"/>
			</clipPath>
			<g class="st2">
				<path class="st3" d="M74,4.3c0,34.1,0,82-10,82s-10-47.9-10-82"/>
			</g>
		</g>
		<path class="st4" d="M64,19L64,19c2.2,0,4,1.8,4,4v16c0,2.2-1.8,4-4,4l0,0c-2.2,0-4-1.8-4-4V23C60,20.8,61.8,19,64,19z"/>
	</g>
</g>
</svg>
