<svg id="文档查看器" xmlns="http://www.w3.org/2000/svg" xmlns:xlink="http://www.w3.org/1999/xlink" viewBox="0 0 256 256"><defs><style>.cls-1{fill:#f6af1f;}.cls-2{fill:#f7d33c;}.cls-3{fill:url(#未命名的渐变_49);}.cls-4{fill:#e5e5e5;}.cls-5{fill:#e65c38;}</style><linearGradient id="未命名的渐变_49" x1="186.27" y1="171.13" x2="135.93" y2="101.09" gradientUnits="userSpaceOnUse"><stop offset="0" stop-color="#3e8bfd"/><stop offset="1" stop-color="#75a8ff"/></linearGradient></defs><title>256</title><g id="_256" data-name="256"><polygon class="cls-1" points="224 116.5 32 117.19 32 34 88 34 98 44 224 44 224 116.5"/><path class="cls-2" d="M18,79H238a0,0,0,0,1,0,0V210a12,12,0,0,1-12,12H30a12,12,0,0,1-12-12V79A0,0,0,0,1,18,79Z"/><g id="放大镜"><path class="cls-3" d="M160.94,198a62,62,0,1,1,53.74-31A61.93,61.93,0,0,1,160.94,198Z"/><path class="cls-4" d="M161.07,79a57,57,0,1,1-49.42,28.51A56.84,56.84,0,0,1,161.07,79h0m0-10a67,67,0,1,0,33.43,9,67,67,0,0,0-33.43-9Z"/><rect class="cls-4" x="116.16" y="194.9" width="21.9" height="10.95" transform="translate(-109.98 210.27) rotate(-60)"/><rect class="cls-5" x="106.57" y="198.33" width="21.9" height="38.33" rx="7" transform="translate(124.49 -29.62) rotate(30)"/></g></g></svg>