<?xml version="1.0" encoding="utf-8"?>
<!-- Generator: Adobe Illustrator 23.0.3, SVG Export Plug-In . SVG Version: 6.00 Build 0)  -->
<svg version="1.1" id="计算机" xmlns="http://www.w3.org/2000/svg" xmlns:xlink="http://www.w3.org/1999/xlink" x="0px" y="0px"
	 viewBox="0 0 512 512" style="enable-background:new 0 0 512 512;" xml:space="preserve">
<style type="text/css">
	.st0{fill:#4FC4F7;}
	.st1{fill:#2B383D;}
	.st2{fill:#455A64;}
	.st3{fill:#90A4AE;}
	.st4{fill:#84D6F9;}
</style>
<title>512</title>
<g id="_512">
	<path class="st0" d="M70,84h372c12.2,0,22,9.8,22,22v246c0,12.2-9.8,22-22,22H70c-12.2,0-22-9.8-22-22V106C48,93.8,57.8,84,70,84z"
		/>
	<path class="st1" d="M442,96c5.5,0,10,4.5,10,10v246c0,5.5-4.5,10-10,10H70c-5.5,0-10-4.5-10-10V106c0-5.5,4.5-10,10-10H442
		 M442,72H70c-18.8,0-34,15.2-34,34l0,0v246c0,18.8,15.2,34,34,34h372c18.8,0,34-15.2,34-34V106C476,87.2,460.8,72,442,72z"/>
	<polygon class="st2" points="330,428 288,428 288,386 224,386 224,428 182,428 146,460 366,460 	"/>
	<rect x="146" y="460" class="st3" width="220" height="16"/>
	<path class="st4" d="M296,96h144c6.6,0,12,5.4,12,12v242c0,6.6-5.4,12-12,12H216L296,96z"/>
</g>
</svg>
