<?xml version="1.0" encoding="utf-8"?>
<!-- Generator: Adobe Illustrator 23.0.3, SVG Export Plug-In . SVG Version: 6.00 Build 0)  -->
<svg version="1.1" id="扫描易" xmlns="http://www.w3.org/2000/svg" xmlns:xlink="http://www.w3.org/1999/xlink" x="0px" y="0px"
	 viewBox="0 0 512 512" style="enable-background:new 0 0 512 512;" xml:space="preserve">
<style type="text/css">
	.st0{fill:#ECECEC;}
	.st1{fill:#5B6C74;}
	.st2{fill:#515151;}
	.st3{fill:#6CA524;}
	.st4{fill:#13BFD7;}
	.st5{fill:#E0E0E0;}
</style>
<title>512</title>
<g id="_512">
	<polygon class="st0" points="43.3,395 118,201 394,201 468.7,395 	"/>
	<path class="st1" d="M390.6,206l70.9,184H50.6l70.9-184H390.6 M397.4,196H114.6L36,400h440L397.4,196z"/>
	<path class="st2" d="M36,400h440l0,0v28c0,26.5-21.5,48-48,48H84c-26.5,0-48-21.5-48-48V400L36,400z"/>
	<rect x="390" y="420" class="st3" width="32" height="32"/>
	<polygon class="st4" points="146,216 96,366 420,366 366,216 	"/>
	<polygon class="st5" points="43.3,313 118,119 394,119 468.7,313 	"/>
	<path class="st1" d="M390.6,124l70.9,184H50.6l70.9-184H390.6 M397.4,114H114.6L36,318h440L397.4,114z"/>
</g>
</svg>
