<?xml version="1.0" encoding="utf-8"?>
<!-- Generator: Adobe Illustrator 23.0.3, SVG Export Plug-In . SVG Version: 6.00 Build 0)  -->
<svg version="1.1" id="图层_1" xmlns="http://www.w3.org/2000/svg" xmlns:xlink="http://www.w3.org/1999/xlink" x="0px" y="0px"
	 viewBox="0 0 256 256" style="enable-background:new 0 0 256 256;" xml:space="preserve">
<style type="text/css">
	.st0{fill:#5E95E5;}
	.st1{fill:#FFFFFF;}
</style>
<title>256</title>
<g id="辅助技术">
	<g id="_256">
		<path class="st0" d="M42,18h172c13.3,0,24,10.7,24,24v172c0,13.3-10.7,24-24,24H42c-13.3,0-24-10.7-24-24V42
			C18,28.7,28.7,18,42,18z"/>
		<path class="st1" d="M188.3,86.4l-2.3,0.5l-58.6,10.2L69.1,86.4c-1.7-0.6-3.6-0.6-5.3,0c-1.7,1-2.8,2.9-2.8,4.9
			c0,1.9,1.1,3.7,2.8,4.5l44.2,15.4v35.4l-14.9,53.2c-1.6,2.3-1.1,5.3,1.1,7c0,0,0.1,0.1,0.2,0.1c2.3,1.6,5.4,1.1,7.1-1.1
			c0-0.1,0.1-0.1,0.1-0.2l25.9-57.3l25.5,57.2c1.5,2.3,4.6,2.9,6.8,1.4c0.1,0,0.1-0.1,0.2-0.1c2-1.5,2.7-4.1,1.7-6.4L147,147.2
			v-34.9l44.8-16.4c1.9-1.4,2.7-3.8,1.9-6.1c-0.8-2.2-3-3.5-5.3-3.2L188.3,86.4z"/>
		<path class="st1" d="M147,68.9c-0.2,10.8-9.1,19.3-19.9,19.1s-19.3-9.1-19.1-19.9c0.2-10.6,8.9-19.1,19.5-19.1
			C138.4,49.1,147.1,58,147,68.9z"/>
	</g>
</g>
</svg>
