<?xml version="1.0" encoding="utf-8"?>
<!-- Generator: Adobe Illustrator 23.0.3, SVG Export Plug-In . SVG Version: 6.00 Build 0)  -->
<svg version="1.1" id="计算机" xmlns="http://www.w3.org/2000/svg" xmlns:xlink="http://www.w3.org/1999/xlink" x="0px" y="0px"
	 viewBox="0 0 64 64" style="enable-background:new 0 0 64 64;" xml:space="preserve">
<style type="text/css">
	.st0{fill:#4FC4F7;}
	.st1{fill:#2B383D;}
	.st2{fill:#455A64;}
	.st3{fill:#90A4AE;}
	.st4{fill:#84D6F9;}
</style>
<title>64</title>
<g id="_64">
	<path class="st0" d="M8,10.5h48c1.4,0,2.5,1.1,2.5,2.5v32c0,1.4-1.1,2.5-2.5,2.5H8c-1.4,0-2.5-1.1-2.5-2.5V13
		C5.5,11.6,6.6,10.5,8,10.5z"/>
	<path class="st1" d="M56,12c0.6,0,1,0.4,1,1v32c0,0.6-0.4,1-1,1H8c-0.6,0-1-0.4-1-1V13c0-0.6,0.4-1,1-1H56 M56,9H8
		c-2.2,0-4,1.8-4,4v32c0,2.2,1.8,4,4,4h48c2.2,0,4-1.8,4-4V13C60,10.8,58.2,9,56,9z"/>
	<polygon class="st2" points="41,54 36,54 36,49 28,49 28,54 23,54 17,58 47,58 	"/>
	<rect x="17" y="58" class="st3" width="30" height="2"/>
	<path class="st4" d="M37,12h18.8c0.7,0,1.2,0.5,1.2,1.2c0,0,0,0,0,0v31.6c0,0.7-0.5,1.2-1.2,1.2l0,0H27L37,12z"/>
</g>
</svg>
