<?xml version="1.0" encoding="utf-8"?>
<!-- Generator: Adobe Illustrator 23.0.3, SVG Export Plug-In . SVG Version: 6.00 Build 0)  -->
<svg version="1.1" id="鼠标" xmlns="http://www.w3.org/2000/svg" xmlns:xlink="http://www.w3.org/1999/xlink" x="0px" y="0px"
	 viewBox="0 0 64 64" style="enable-background:new 0 0 64 64;" xml:space="preserve">
<style type="text/css">
	.st0{fill:#ADADAD;}
	.st1{fill:#E6E6E6;}
	.st2{clip-path:url(#SVGID_2_);}
	.st3{fill:#4D4D4D;}
	.st4{fill:#FFFFFF;}
</style>
<title>64</title>
<g id="_64">
	<path class="st0" d="M32,3L32,3c11,0,20,9,20,20v18c0,11-9,20-20,20l0,0c-11,0-20-9-20-20V23C12,12,21,3,32,3z"/>
	<path class="st1" d="M32,4L32,4c9.4,0,17,7.6,17,17v18c0,9.4-7.6,17-17,17l0,0c-9.4,0-17-7.6-17-17V21C15,11.6,22.6,4,32,4z"/>
	<g>
		<defs>
			<path id="SVGID_1_" d="M32,3L32,3c11.6,0,21,9.4,21,21v16c0,11.6-9.4,21-21,21l0,0c-11.6,0-21-9.4-21-21V24C11,12.4,20.4,3,32,3z
				"/>
		</defs>
		<clipPath id="SVGID_2_">
			<use xlink:href="#SVGID_1_"  style="overflow:visible;"/>
		</clipPath>
		<g class="st2">
			<path class="st3" d="M37,3c0,16.6,0,40-5,40s-5-23.4-5-40"/>
		</g>
	</g>
	<path class="st4" d="M32,10L32,10c1.1,0,2,0.9,2,2v8c0,1.1-0.9,2-2,2l0,0c-1.1,0-2-0.9-2-2v-8C30,10.9,30.9,10,32,10z"/>
</g>
</svg>
