<?xml version="1.0" encoding="utf-8"?>
<!-- Generator: Adobe Illustrator 23.0.3, SVG Export Plug-In . SVG Version: 6.00 Build 0)  -->
<svg version="1.1" id="扫描易" xmlns="http://www.w3.org/2000/svg" xmlns:xlink="http://www.w3.org/1999/xlink" x="0px" y="0px"
	 viewBox="0 0 64 64" style="enable-background:new 0 0 64 64;" xml:space="preserve">
<style type="text/css">
	.st0{fill:#ECECEC;}
	.st1{fill:#5B6C74;}
	.st2{fill:#515151;}
	.st3{fill:#6CA524;}
	.st4{fill:#13BFD7;}
	.st5{fill:#E0E0E0;}
</style>
<title>64</title>
<g id="_64">
	<polygon class="st0" points="5.5,50 14.7,26 49.3,26 58.5,50 	"/>
	<path class="st1" d="M48.6,27l8.5,22H6.9l8.5-22H48.6 M50,25H14L4,51h56L50,25z"/>
	<path class="st2" d="M4,51h56l0,0v3c0,3.3-2.7,6-6,6H10c-3.3,0-6-2.7-6-6V51L4,51z"/>
	<rect x="51" y="53" class="st3" width="4" height="4.1"/>
	<polygon class="st4" points="18,27 11,47 53,47 46,27 	"/>
	<polygon class="st5" points="5.5,39 14.7,15 49.3,15 58.5,39 	"/>
	<path class="st1" d="M48.6,16l8.5,22H6.9l8.5-22H48.6 M50,14H14L4,40h56L50,14z"/>
</g>
</svg>
