<?xml version="1.0" encoding="utf-8"?>
<!-- Generator: Adobe Illustrator 21.1.0, SVG Export Plug-In . SVG Version: 6.00 Build 0)  -->
<svg version="1.1" id="剪刀" xmlns="http://www.w3.org/2000/svg" xmlns:xlink="http://www.w3.org/1999/xlink" x="0px" y="0px"
	 viewBox="0 0 22 22" style="enable-background:new 0 0 22 22;" xml:space="preserve">
<style type="text/css">
	.st0{fill:#808080;}
	.st1{fill:none;stroke:#808080;stroke-miterlimit:10;}
</style>
<title>22</title>
<g id="_22">
	<path class="st0" d="M4,15c1.7,0,3,1.3,3,3s-1.3,3-3,3s-3-1.3-3-3S2.3,15,4,15 M4,14c-2.2,0-4,1.8-4,4s1.8,4,4,4s4-1.8,4-4
		S6.2,14,4,14z"/>
	<path class="st0" d="M18,15c1.7,0,3,1.3,3,3s-1.3,3-3,3s-3-1.3-3-3S16.3,15,18,15 M18,14c-2.2,0-4,1.8-4,4s1.8,4,4,4s4-1.8,4-4
		S20.2,14,18,14z"/>
	<line class="st1" x1="6.5" y1="15.5" x2="9.5" y2="13.5"/>
	<line class="st1" x1="15.5" y1="15.5" x2="12.5" y2="13.5"/>
	<path class="st0" d="M11,12c0.6,0,1,0.4,1,1s-0.4,1-1,1s-1-0.4-1-1S10.4,12,11,12 M11,11c-1.1,0-2,0.9-2,2s0.9,2,2,2s2-0.9,2-2
		S12.1,11,11,11z"/>
	<path class="st0" d="M2,0l10.3,12c0,0-4.6,0.1-7.3-2.6C2.1,6.5,2,0,2,0z"/>
	<path class="st0" d="M20,0L9.7,12c0,0,4.6,0.1,7.3-2.6C19.8,6.5,20,0,20,0z"/>
</g>
</svg>
