<?xml version="1.0" encoding="utf-8"?>
<!-- Generator: Adobe Illustrator 21.1.0, SVG Export Plug-In . SVG Version: 6.00 Build 0)  -->
<svg version="1.1" id="回收站" xmlns="http://www.w3.org/2000/svg" xmlns:xlink="http://www.w3.org/1999/xlink" x="0px" y="0px"
	 viewBox="0 0 22 22" style="enable-background:new 0 0 22 22;" xml:space="preserve">
<style type="text/css">
	.st0{fill:#808080;}
</style>
<title>22</title>
<g id="_22">
	<path class="st0" d="M2,5v1h1l1,16h15l1-16h1V5H2z M18,21H5L4,6h15L18,21z"/>
	<rect x="7" y="8" class="st0" width="1" height="11"/>
	<rect x="15" y="8" class="st0" width="1" height="11"/>
	<rect x="11" y="8" class="st0" width="1" height="11"/>
	<polygon class="st0" points="11.9,5 11.2,2.7 16.5,1.2 17.5,5 18.6,5 17.2,0 10,1.9 10.8,5 	"/>
	<polygon class="st0" points="4.9,5 4.2,2.7 9.5,1.2 10.6,5 11.6,5 10.2,0 3,1.9 3.8,5 	"/>
</g>
</svg>
