<?xml version="1.0" encoding="utf-8"?>
<!-- Generator: Adobe Illustrator 23.0.1, SVG Export Plug-In . SVG Version: 6.00 Build 0)  -->
<svg version="1.1" id="图层_1" xmlns="http://www.w3.org/2000/svg" xmlns:xlink="http://www.w3.org/1999/xlink" x="0px" y="0px"
	 width="16px" height="16px" viewBox="0 0 16 16" style="enable-background:new 0 0 16 16;" xml:space="preserve">
<style type="text/css">
	.st0{fill:#7E8080;}
</style>
<g>
	<g>
		<polygon class="st0" points="1,13 1,1 9,1 9,2 10,2 10,0 0,0 0,14 6,14 6,13 		"/>
		<path class="st0" d="M12,2H6v14h10V6L12,2z M13,4.4L13.6,5H13V4.4z M15,15H7V3h5v3h3V15z"/>
	</g>
	<rect x="2" y="3" class="st0" width="3" height="1"/>
	<rect x="8" y="5" class="st0" width="3" height="1"/>
	<rect x="8" y="7" class="st0" width="6" height="1"/>
	<rect x="8" y="9" class="st0" width="6" height="1"/>
	<rect x="8" y="11" class="st0" width="6" height="1"/>
	<rect x="8" y="13" class="st0" width="6" height="1"/>
	<rect x="2" y="5" class="st0" width="3" height="1"/>
	<rect x="2" y="7" class="st0" width="3" height="1"/>
	<rect x="2" y="9" class="st0" width="3" height="1"/>
	<rect x="2" y="11" class="st0" width="3" height="1"/>
</g>
</svg>
