<?xml version="1.0" encoding="utf-8"?>
<!-- Generator: Adobe Illustrator 23.0.1, SVG Export Plug-In . SVG Version: 6.00 Build 0)  -->
<svg version="1.1" id="图层_1" xmlns="http://www.w3.org/2000/svg" xmlns:xlink="http://www.w3.org/1999/xlink" x="0px" y="0px"
	 width="16px" height="16px" viewBox="0 0 16 16" style="enable-background:new 0 0 16 16;" xml:space="preserve">
<style type="text/css">
	.st0{fill:#7E8080;}
</style>
<g>
	<path class="st0" d="M15,2H0v13h15V2L15,2z M8,8V3h6v5H8L8,8z M1,8V3h6v5H1L1,8z M8,14V9h6v5H8L8,14z M1,14V9h6v5H1L1,14z"/>
</g>
<g>
	<rect x="2" y="4" class="st0" width="4" height="3"/>
</g>
<g>
	<rect x="9" y="4" class="st0" width="4" height="3"/>
</g>
<g>
	<rect x="2" y="10" class="st0" width="4" height="3"/>
</g>
<g>
	<rect x="9" y="10" class="st0" width="4" height="3"/>
</g>
</svg>
