<?xml version="1.0" encoding="utf-8"?>
<!-- Generator: Adobe Illustrator 21.1.0, SVG Export Plug-In . SVG Version: 6.00 Build 0)  -->
<svg version="1.1" id="视图" xmlns="http://www.w3.org/2000/svg" xmlns:xlink="http://www.w3.org/1999/xlink" x="0px" y="0px"
	 viewBox="0 0 16 16" style="enable-background:new 0 0 16 16;" xml:space="preserve">
<style type="text/css">
	.st0{fill:#808080;}
</style>
<title>16</title>
<g id="_16">
	<rect x="1" y="1" class="st0" width="2" height="2"/>
	<rect x="5" y="1" class="st0" width="2" height="2"/>
	<rect x="9" y="1" class="st0" width="2" height="2"/>
	<rect x="13" y="1" class="st0" width="2" height="2"/>
	<rect x="1" y="5" class="st0" width="2" height="2"/>
	<rect x="5" y="5" class="st0" width="2" height="2"/>
	<rect x="9" y="5" class="st0" width="2" height="2"/>
	<rect x="13" y="5" class="st0" width="2" height="2"/>
	<rect x="1" y="9" class="st0" width="2" height="2"/>
	<rect x="5" y="9" class="st0" width="2" height="2"/>
	<rect x="9" y="9" class="st0" width="2" height="2"/>
	<rect x="13" y="9" class="st0" width="2" height="2"/>
	<rect x="1" y="13" class="st0" width="2" height="2"/>
	<rect x="5" y="13" class="st0" width="2" height="2"/>
	<rect x="9" y="13" class="st0" width="2" height="2"/>
	<rect x="13" y="13" class="st0" width="2" height="2"/>
</g>
</svg>
