<?xml version="1.0" encoding="utf-8"?>
<!-- Generator: Adobe Illustrator 23.0.3, SVG Export Plug-In . SVG Version: 6.00 Build 0)  -->
<svg version="1.1" id="gtk-sort-ascending" xmlns="http://www.w3.org/2000/svg" xmlns:xlink="http://www.w3.org/1999/xlink" x="0px"
	 y="0px" viewBox="0 0 16 16" style="enable-background:new 0 0 16 16;" xml:space="preserve">
<style type="text/css">
	.st0{fill:#808080;}
</style>
<title>16</title>
<rect x="10" y="3" class="st0" width="1" height="11"/>
<polygon class="st0" points="13.5,6 14.2,5.3 10.5,2 9.8,2.7 "/>
<polygon class="st0" points="7.5,6 6.8,5.3 10.5,2 11.2,2.7 "/>
<g>
	<path class="st0" d="M5,4v1H4V4H5 M6,3H3v3h3V3L6,3z"/>
</g>
<g>
	<path class="st0" d="M5,8v1H4V8H5 M6,7H3v3h3V7L6,7z"/>
</g>
<g>
	<path class="st0" d="M5,12v1H4v-1H5 M6,11H3v3h3V11L6,11z"/>
</g>
</svg>
