<?xml version="1.0" encoding="utf-8"?>
<!-- Generator: Adobe Illustrator 21.1.0, SVG Export Plug-In . SVG Version: 6.00 Build 0)  -->
<svg version="1.1" id="gtk-sort-descending" xmlns="http://www.w3.org/2000/svg" xmlns:xlink="http://www.w3.org/1999/xlink"
	 x="0px" y="0px" viewBox="0 0 16 16" style="enable-background:new 0 0 16 16;" xml:space="preserve">
<style type="text/css">
	.st0{fill:#808080;}
</style>
<title>16</title>
<rect x="10" y="2" class="st0" width="1" height="12"/>
<polygon class="st0" points="7.5,5 6.8,4.3 10.5,1 11.2,1.7 "/>
<polygon class="st0" points="13.5,5 14.2,4.3 10.5,1 9.8,1.7 "/>
<path class="st0" d="M4.4,4.8C3.6,4.8,3,4.2,3,3.4S3.6,2,4.4,2s1.4,0.6,1.4,1.4S5.2,4.8,4.4,4.8L4.4,4.8z M4.4,2.8
	c-0.3,0-0.6,0.3-0.6,0.6S4.1,4,4.4,4S5,3.7,5,3.4l0,0C5,3.1,4.7,2.8,4.4,2.8L4.4,2.8z"/>
<path class="st0" d="M4.4,9.4C3.6,9.4,3,8.8,3,8s0.6-1.4,1.4-1.4S5.8,7.2,5.8,8l0,0C5.8,8.8,5.2,9.4,4.4,9.4z M4.4,7.4
	C4.1,7.4,3.8,7.7,3.8,8s0.3,0.6,0.6,0.6S5,8.3,5,8S4.7,7.4,4.4,7.4z"/>
<path class="st0" d="M4.4,14C3.6,14,3,13.4,3,12.6c0-0.8,0.6-1.4,1.4-1.4s1.4,0.6,1.4,1.4l0,0C5.8,13.4,5.2,14,4.4,14z M4.4,12
	c-0.3,0-0.6,0.3-0.6,0.6s0.3,0.6,0.6,0.6S5,12.9,5,12.6C5,12.3,4.7,12,4.4,12L4.4,12z"/>
</svg>
