<?xml version="1.0" encoding="utf-8"?>
<!-- Generator: Adobe Illustrator 23.0.3, SVG Export Plug-In . SVG Version: 6.00 Build 0)  -->
<svg version="1.1" id="stock_new-window" xmlns="http://www.w3.org/2000/svg" xmlns:xlink="http://www.w3.org/1999/xlink" x="0px"
	 y="0px" viewBox="0 0 16 16" style="enable-background:new 0 0 16 16;" xml:space="preserve">
<style type="text/css">
	.st0{fill:#808080;}
</style>
<title>16</title>
<g id="g6">
	<g id="g3340" transform="translate(-71.996853,-179.99766)">
		<path id="rect821" class="st0" d="M82.4,195h-8.8c-0.4,0-0.6-0.2-0.6-0.6l0-10.4c3.6,0,11,0,14,0l0,6.4l1,0v-7.9
			c0-0.9-0.7-1.6-1.6-1.6H73.6c-0.9,0-1.6,0.7-1.6,1.6v11.9c0,0.9,0.7,1.6,1.6,1.6h8.8L82.4,195z"/>
		<path id="path5525-3" class="st0" d="M85,191v2h-2v1h2v2h1v-2h2v-1h-2v-2H85z"/>
	</g>
</g>
</svg>
