<?xml version="1.0" encoding="utf-8"?>
<!-- Generator: Adobe Illustrator 23.0.3, SVG Export Plug-In . SVG Version: 6.00 Build 0)  -->
<svg version="1.1" id="火狐" xmlns="http://www.w3.org/2000/svg" xmlns:xlink="http://www.w3.org/1999/xlink" x="0px" y="0px"
	 viewBox="0 0 64 64" style="enable-background:new 0 0 64 64;" xml:space="preserve">
<style type="text/css">
	.st0{fill:url(#SVGID_1_);}
	.st1{fill:url(#SVGID_2_);}
	.st2{fill:url(#SVGID_3_);}
	.st3{fill:url(#SVGID_4_);}
	.st4{fill:url(#SVGID_5_);}
	.st5{fill:url(#SVGID_6_);}
	.st6{fill:url(#SVGID_7_);}
	.st7{fill:url(#SVGID_8_);}
	.st8{fill:url(#SVGID_9_);}
	.st9{fill:url(#SVGID_10_);}
	.st10{opacity:0.4;fill:url(#SVGID_11_);enable-background:new    ;}
	.st11{clip-path:url(#SVGID_13_);}
	.st12{opacity:0.6;fill:url(#SVGID_14_);enable-background:new    ;}
	.st13{fill:url(#SVGID_15_);}
	.st14{fill:url(#SVGID_16_);}
	.st15{fill:url(#SVGID_17_);}
	.st16{fill:url(#SVGID_18_);}
	.st17{fill:url(#SVGID_19_);}
	.st18{fill:url(#SVGID_20_);}
	.st19{fill:url(#SVGID_21_);}
	.st20{fill:url(#SVGID_22_);}
	.st21{fill:url(#SVGID_23_);}
	.st22{fill:url(#SVGID_24_);}
	.st23{fill:url(#SVGID_25_);}
	.st24{fill:url(#SVGID_26_);}
	.st25{fill:url(#SVGID_27_);}
	.st26{fill:url(#SVGID_28_);}
	.st27{fill:url(#SVGID_29_);}
	.st28{fill:url(#SVGID_30_);}
	.st29{fill:url(#SVGID_31_);}
	.st30{fill:url(#SVGID_32_);}
	.st31{opacity:0.1;fill:url(#SVGID_33_);enable-background:new    ;}
	.st32{opacity:0.5;fill:url(#SVGID_34_);enable-background:new    ;}
	.st33{opacity:0.5;fill:url(#SVGID_35_);enable-background:new    ;}
	.st34{opacity:0.5;fill:url(#SVGID_36_);enable-background:new    ;}
	.st35{fill:url(#SVGID_37_);}
	.st36{opacity:0.1;fill:url(#SVGID_38_);enable-background:new    ;}
	.st37{fill:url(#SVGID_39_);}
</style>
<title>64</title>
<g id="_64">
	
		<linearGradient id="SVGID_1_" gradientUnits="userSpaceOnUse" x1="33.0765" y1="129.9196" x2="30.5465" y2="123.4297" gradientTransform="matrix(1 0 0 1 -22.54 -111.46)">
		<stop  offset="1.000000e-02" style="stop-color:#9B1418"/>
		<stop  offset="0.47" style="stop-color:#E15D0A"/>
		<stop  offset="1" style="stop-color:#F0C055"/>
	</linearGradient>
	<path class="st0" d="M10.7,12.5c-0.1-0.1-0.1,0.2-0.1,0.1c-0.5-1-0.8-2-0.9-3.1c-0.6,0.5-1,1.1-1.2,1.9c-0.1,0.3-0.1,0.4-0.2,0.6
		s0-0.5,0-0.4c-0.2,0.2-0.3,0.5-0.4,0.8c-0.1,0.2-0.2,0.5-0.2,0.7c0,0.1,0-0.4,0-0.3c-0.8,2.2-1.1,4.6-0.8,6.9
		c2-1.7,4.3-3.1,6.7-4.3C12.4,14.6,11.4,13.7,10.7,12.5z"/>
	
		<linearGradient id="SVGID_2_" gradientUnits="userSpaceOnUse" x1="907.0024" y1="-1272.4431" x2="907.0024" y2="-1245.9131" gradientTransform="matrix(0.97 0.25 -0.25 0.97 -1188.1 1023.75)">
		<stop  offset="6.000000e-02" style="stop-color:#DC7305"/>
		<stop  offset="1" style="stop-color:#EDC285"/>
	</linearGradient>
	<path class="st1" d="M3.5,37.2c0-0.5,1.2-9.7,5.5-12.8c3.7-2.7,0.8-1.7-0.6-1.6c-0.7,0.1-1.4,0.3-2,0.7l0,0
		C6.4,23.5,2.8,26.3,3.5,37.2z"/>
	
		<linearGradient id="SVGID_3_" gradientUnits="userSpaceOnUse" x1="10.9407" y1="165.3565" x2="1.9607" y2="179.9865" gradientTransform="matrix(0.99 -8.000000e-02 9.000000e-02 1.17 -16.56 -171.64)">
		<stop  offset="6.000000e-02" style="stop-color:#DC7305"/>
		<stop  offset="1" style="stop-color:#EDC261"/>
	</linearGradient>
	<path class="st2" d="M3,30c0,0,2.5-8,7.7-7.9c3.4,0,0.7-2.9-0.3-3.3S9,18.3,8.8,18.6S5,18.8,3,30z"/>
	
		<radialGradient id="SVGID_4_" cx="71.64" cy="122.6355" r="10.53" gradientTransform="matrix(1 0 0 0.99 -22.54 -112.87)" gradientUnits="userSpaceOnUse">
		<stop  offset="0.26" style="stop-color:#FFE700"/>
		<stop  offset="0.34" style="stop-color:#FADD00"/>
		<stop  offset="0.47" style="stop-color:#F8CE00"/>
		<stop  offset="0.64" style="stop-color:#ECAA00"/>
		<stop  offset="0.85" style="stop-color:#E37B04"/>
		<stop  offset="1" style="stop-color:#DC570E"/>
	</radialGradient>
	<path class="st3" d="M50,9.9c1.6,0.9,3,2.1,4,3.6c1.3,2,0.7,4.8-0.5,4.3S50,9.9,50,9.9z"/>
	
		<radialGradient id="SVGID_5_" cx="75.64" cy="130.7555" r="5.5" gradientTransform="matrix(1 0 0 0.99 -22.54 -112.87)" gradientUnits="userSpaceOnUse">
		<stop  offset="0.13" style="stop-color:#9B1418"/>
		<stop  offset="0.34" style="stop-color:#A42218"/>
		<stop  offset="0.73" style="stop-color:#C63A1A"/>
		<stop  offset="1" style="stop-color:#DB530F"/>
	</radialGradient>
	<path class="st4" d="M54.2,18c0.7-5.1-4.2-8.1-4.2-8.1s0.3,1.8,0.7,5.7C51.2,20,53.9,20.4,54.2,18z"/>
	
		<radialGradient id="SVGID_6_" cx="68.59" cy="170.7955" r="4.89" gradientTransform="matrix(1 0 0 0.99 -22.54 -112.87)" gradientUnits="userSpaceOnUse">
		<stop  offset="0" style="stop-color:#47100E"/>
		<stop  offset="7.000000e-02" style="stop-color:#581010"/>
		<stop  offset="0.27" style="stop-color:#821214"/>
		<stop  offset="0.45" style="stop-color:#9F1217"/>
		<stop  offset="0.6" style="stop-color:#B21319"/>
		<stop  offset="0.71" style="stop-color:#B8131A"/>
		<stop  offset="1" style="stop-color:#B1121B"/>
	</radialGradient>
	<path class="st5" d="M37.9,57.7c8.8,1.8,15.4-5.5,10.7-7.3C44.3,48.8,33.8,56.8,37.9,57.7z"/>
	
		<radialGradient id="SVGID_7_" cx="78.06" cy="-544.1" r="5.41" gradientTransform="matrix(1 0 0 -1 0 66)" gradientUnits="userSpaceOnUse">
		<stop  offset="0.13" style="stop-color:#9B1418"/>
		<stop  offset="0.34" style="stop-color:#A42218"/>
		<stop  offset="0.73" style="stop-color:#C63A1A"/>
		<stop  offset="1" style="stop-color:#DB530F"/>
	</radialGradient>
	<path class="st6" d="M49.4,50.6c8.8-1.9,11.8-11.3,6.7-11C51.5,40,45.2,51.5,49.4,50.6z"/>
	
		<radialGradient id="SVGID_8_" cx="80.71" cy="-559.99" r="4.89" gradientTransform="matrix(1 0 0 -1 0 66)" gradientUnits="userSpaceOnUse">
		<stop  offset="0.13" style="stop-color:#9B1418"/>
		<stop  offset="0.34" style="stop-color:#A42218"/>
		<stop  offset="0.73" style="stop-color:#C63A1A"/>
		<stop  offset="1" style="stop-color:#DB530F"/>
	</radialGradient>
	<path class="st7" d="M57.2,36c5.8-4.1,3-11.4,3-11.4s-1.3,3.8-2.4,8.2S53.7,38.5,57.2,36z"/>
	
		<radialGradient id="SVGID_9_" cx="79.26" cy="133.9155" r="6.11" gradientTransform="matrix(1 0 0 0.99 -22.54 -112.87)" gradientUnits="userSpaceOnUse">
		<stop  offset="0" style="stop-color:#9B1418"/>
		<stop  offset="0.64" style="stop-color:#C53819"/>
		<stop  offset="1" style="stop-color:#DB530F"/>
	</radialGradient>
	<path class="st8" d="M58.9,23.3c-0.3-4.1-2.1-7.9-5-10.7c0,0,0.5,2.4,1,5.7C55.7,22.7,59.2,27.5,58.9,23.3z"/>
	
		<radialGradient id="SVGID_10_" cx="107.7094" cy="138.0236" r="54.15" gradientTransform="matrix(0.94 0 0 0.88 -69.39 -115.34)" gradientUnits="userSpaceOnUse">
		<stop  offset="0" style="stop-color:#62C1EE"/>
		<stop  offset="8.000000e-02" style="stop-color:#52B8E9"/>
		<stop  offset="0.18" style="stop-color:#00A3DC"/>
		<stop  offset="0.38" style="stop-color:#0271B5"/>
		<stop  offset="0.5" style="stop-color:#004A90"/>
		<stop  offset="0.75" style="stop-color:#0E1D50"/>
	</radialGradient>
	<path class="st9" d="M31.9,59.2C47.1,59,59.3,46.6,59.2,31.4C59.1,16.2,46.6,4,31.4,4.1C16.3,4.2,4.1,16.5,4.1,31.6
		C4.2,46.9,16.6,59.2,31.9,59.2C31.9,59.2,31.9,59.2,31.9,59.2z"/>
	
		<radialGradient id="SVGID_11_" cx="49.37" cy="159.1043" r="40.87" gradientTransform="matrix(1 0 0 0.94 -22.54 -116.92)" gradientUnits="userSpaceOnUse">
		<stop  offset="0.62" style="stop-color:#9CD4F3;stop-opacity:0"/>
		<stop  offset="0.71" style="stop-color:#88CEF2"/>
	</radialGradient>
	<path class="st10" d="M19.5,14.3c0.2-0.3,0.4-0.5,0.7-0.8c0.1-0.1,0.2-0.1,0.3-0.1c0.4-0.5,0.9-0.9,1.5-1.2c0.1-0.1,0.3-0.1,0.4,0
		c0.8-0.5,1.6-0.9,2.5-1.1H25c0.1,0,0.2,0,0.2,0.1l0.5-0.1c0.2-0.1,0.4-0.1,0.6-0.1c0.5,0,1.3,0.1,1.4,0.5c0.1,0.2,0,0.4-0.2,0.5
		l-0.2,0.1l-0.2,0.1c0,0.1-0.1,0.2-0.2,0.3c-1.5,1.2-2.5,2.8-3.1,4.5l0.2,0.3c0.1,0.1,0.1,0.2,0.2,0.4c0.4,0.7,1.2,1.2,2.1,1.2H27
		c3.6,0,4.8,0.2,4.9,1.2c0,0.6-0.1,1.3-0.4,1.8c-0.4,0.6-0.9,1.1-1.5,1.6c-0.1,0.1-0.3,0.2-0.8,0.5c-1.3,0.6-2.5,1.4-3.6,2.3
		c0,0.1,0.1,0.1,0.1,0.2c0,0.1,0,0.1,0,0.2c0,0.1,0,0.2-0.1,0.3c0,0.1,0,0.2,0.1,0.3s0,0.2,0,0.3c0.1,0.5,0.1,1.1-0.1,1.6l-0.1,0.2
		c0,0.1-0.1,0.1-0.1,0.2c0.1,0.3,0,0.6-0.2,0.7c-0.2,0.1-0.5,0.1-0.6-0.1c0,0,0,0,0,0l0,0C24.4,30.2,24.2,30,24,30l-0.6-0.3
		c-0.1,0.2-0.4,0.3-0.6,0.1c0,0-0.1-0.1-0.4-0.2c-0.4,0.3-0.7,0.9-0.7,1.4l0,0c0,0.9,0,2.2,2.9,3.8c0.9,0.6,1.9,0.9,2.9,0.9
		c1.1,0,2.2-0.3,3.2-0.8c0.5-0.2,1-0.4,1.4-0.5c0.5-0.1,1.1-0.2,1.7-0.2c1.6,0,3.2,0.7,4.3,1.9c0.5,0.4,0.6,1.1,0.3,1.7
		c-0.2,0.5-0.8,0.8-1.3,0.8c-0.1,0-0.3,0-0.4,0c-0.7-0.2-1.7,0.5-3.1,1.5l-0.8,0.6c-1.8,1-3.8,1.6-5.8,1.5c-0.6,0-1.1,0-1.7-0.1
		c0.6,0.6,1.2,1.1,2,1.4c0.4,0.1,0.9,0.2,1.4,0.3c0.9,0,1.7,0.3,2.4,0.8c0.1,0.1,0.2,0.2,0.2,0.3c0,0.2-0.1,0.3-0.2,0.4
		c1.2,0.4,2.5,0.6,3.8,0.6c0.6,0,1.1,0,1.7-0.1h0.1c1-0.1,1.9-0.4,2.7-1l0,0c0.2-0.1,0.4-0.1,0.6,0l0.1,0.1c0,0,0.1-0.1,0.1-0.1
		l0.4-0.5c0.5-0.6,1.2-1,1.8-1.4c0.1-0.1,0.3-0.1,0.4,0c0.1,0.1,0.2,0.2,0.2,0.3c0,0.2,0,0.4,0,0.6c0,0,0,0,0,0.1
		c6.7,3,19.9-33.6-10.4-35.8c-7.5-0.3-13.7,2.9-16,6C17.5,14,18.5,14.1,19.5,14.3z"/>
	<g>
		<defs>
			<path id="SVGID_12_" d="M31.9,59.1C47.1,59,59.3,46.5,59.2,31.4C59,16.2,46.6,4,31.4,4.1C16.3,4.2,4.1,16.5,4.1,31.6
				C4.2,46.9,16.6,59.2,31.9,59.1z"/>
		</defs>
		<clipPath id="SVGID_13_">
			<use xlink:href="#SVGID_12_"  style="overflow:visible;"/>
		</clipPath>
		<g class="st11">
			
				<radialGradient id="SVGID_14_" cx="57.26" cy="134.0057" r="31.52" gradientTransform="matrix(1 0 0 0.97 -22.54 -115.57)" gradientUnits="userSpaceOnUse">
				<stop  offset="0.13" style="stop-color:#099CD9"/>
				<stop  offset="0.19" style="stop-color:#0894D2"/>
				<stop  offset="0.29" style="stop-color:#047EC0"/>
				<stop  offset="0.33" style="stop-color:#0271B5"/>
				<stop  offset="0.44" style="stop-color:#0561A3"/>
				<stop  offset="0.65" style="stop-color:#003B75"/>
				<stop  offset="0.86" style="stop-color:#0E1D50"/>
			</radialGradient>
			<path class="st12" d="M52.8,49.2c1.6-3,3.8-4.7,4.9-6.8c1.5-2.7,4.5-10.4,2.3-16.6c1,3.9,0.7,7.8-2.5,9.8c1-2.7,1.7-8.7,0.6-14.1
				c-0.7-3.5-2.9-6.6-4.4-7.6c1.3,1,2.4,4.5,2.4,6.2C53,14.7,48,10.8,42,9.1c5.3,3.5,7.3,6.4,8.6,9.1c-1.4-1.4-3.9-2.9-5.5-3.1
				c2.5,1.8,6.6,7.2,6.2,15.4c-0.7-1.5-1.5-2.9-2.6-4.1c0.9,8,0.1,9.8-0.4,11.9c-0.1-0.8-0.3-1.5-0.7-2.2c-0.2,2.1-0.8,4.2-1.7,6.1
				c-1.3,2.7-2.5,3.5-3.1,3.5s-0.2-0.6-0.3-1c-0.6,0.3-1.2,0.8-1.7,1.3c-0.8,0.8-1.5,1.8-1.9,1.5c0.3-0.3,0.5-0.6,0.7-1
				c-0.9,0.6-1.9,1-2.9,1.1c-2.8,0.4-5.6-0.1-8.1-1.4c0.7-0.2,1.5-0.1,2.2,0.1c-0.7-0.8-2.4-0.6-3.6-1s-2.4-1.8-3.2-2.5
				c2.9,0.8,6,0.4,8.6-1.1c2-1.3,3.2-2.3,4.2-2.1s1.8-0.8,0.9-1.8c-1.4-1.5-3.5-2.1-5.5-1.5c-2.3,0.6-4.3,2.6-7.9,0.5
				c-3.1-1.8-3.1-3.3-3.1-4.2c0-0.8,0.5-1.5,1.1-1.9c0.2,0.1,0.4,0.2,0.6,0.3c-0.1-0.1-0.2-0.3-0.3-0.4h0.1c0.3,0.1,1.1,0.4,1.4,0.6
				c0.3,0.1,0.5,0.3,0.7,0.5c0,0,0.1-0.1,0-0.3c-0.2-0.3-0.4-0.6-0.7-0.7l0,0c0.3,0.1,0.6,0.3,0.8,0.4c0.2-0.5,0.2-1.1,0.2-1.7
				c-0.1-0.6-0.1-0.7-0.2-0.9s0-0.3,0.2-0.1c0-0.1-0.1-0.3-0.2-0.4l0,0c0.2-0.7,4.3-2.9,4.6-3.1c0.5-0.4,0.9-0.8,1.1-1.4
				c0.3-0.5,0.4-1,0.3-1.6c0-0.5-0.4-0.9-4.8-0.8c-1,0-1.9-0.5-2.5-1.4c-0.1-0.1-0.2-0.3-0.3-0.4s-0.2-0.4-0.2-0.5
				c0.5-1.9,1.7-3.7,3.3-4.9c0.1-0.1-0.4,0.1-0.3,0s0.8-0.4,0.9-0.5s-0.8-0.3-1.6-0.2c-0.5,0.1-0.9,0.2-1.4,0.5
				c0.2-0.2,0.7-0.4,0.6-0.4c-1,0.3-1.9,0.7-2.8,1.4c0-0.1,0-0.2,0-0.3c-0.7,0.4-1.2,0.9-1.7,1.6c0-0.1,0-0.2,0-0.3
				c-0.3,0.3-0.6,0.6-0.8,0.9l0,0c-2.2-0.6-4.5-0.6-6.6,0.1c-0.9-0.7-1.7-1.5-2.3-2.5c-0.1-0.1-0.1,0.2-0.1,0.1
				c-0.5-1-0.8-2-0.8-3.1c-0.6,0.5-1,1.1-1.2,1.9c-0.1,0.2-0.1,0.4-0.2,0.6c0,0.1,0-0.5,0-0.4c-0.2,0.2-0.3,0.5-0.4,0.8
				c-0.1,0.2-0.2,0.5-0.2,0.7l0,0c0-0.1,0-0.4,0-0.3c-0.3,0.6-0.5,1.2-0.6,1.9c-0.3,1.5-0.4,3-0.3,4.5c0,0.1,0,0.3,0,0.4
				c-0.5,0.7-1,1.4-1.3,2.2c-1.2,2.6-2,5.3-2.4,8.1c0.4-1.1,0.9-2.2,1.4-3.2c-1,3.4-1.3,6.9-0.9,10.3c0.1-1,0.3-2.1,0.5-3.1
				c0.2,4.1,1.5,8.1,3.6,11.6c2,3.3,7.1,11.1,20.1,14c-0.8-0.2-1.6-0.7-2.3-1.2c2.7,0.9,5.5,1.3,8.4,1.4c-1.1-0.2-1.3-0.7-1.3-0.7
				s12.6,0.7,17-5.2c-1.5,1.7-5.3,2.2-6.7,2.3c2.2-2,7-1.9,12.2-7c2-1.8,3.2-4.2,3.5-6.9C57.9,46.3,55.5,47.8,52.8,49.2z"/>
		</g>
	</g>
	
		<radialGradient id="SVGID_15_" cx="67.76" cy="135.5057" r="53.06" gradientTransform="matrix(1 0 0 0.97 -22.54 -115.57)" gradientUnits="userSpaceOnUse">
		<stop  offset="0.12" style="stop-color:#FFFFFF"/>
		<stop  offset="0.12" style="stop-color:#FFFFFC"/>
		<stop  offset="0.25" style="stop-color:#FFE950"/>
		<stop  offset="0.28" style="stop-color:#FDE547"/>
		<stop  offset="0.33" style="stop-color:#F8D92D"/>
		<stop  offset="0.4" style="stop-color:#F1C504"/>
		<stop  offset="0.41" style="stop-color:#F0C300"/>
		<stop  offset="0.45" style="stop-color:#EDAF00"/>
		<stop  offset="0.55" style="stop-color:#E57F00"/>
		<stop  offset="0.76" style="stop-color:#DB510F"/>
		<stop  offset="0.87" style="stop-color:#CB3715"/>
		<stop  offset="1" style="stop-color:#B5141E"/>
	</radialGradient>
	<path class="st13" d="M53,48c1.6-3,3.8-4.7,4.9-6.8c1.5-2.7,4.5-10.4,2.3-16.6c1,3.9,0.7,7.8-2.5,9.8c1-2.7,1.7-8.7,0.6-14.1
		c-0.7-3.5-2.9-6.7-4.4-7.6c1.3,1,2.4,4.5,2.4,6.2C53.2,13.4,48,9.4,42,7.8c5.3,3.5,7.3,6.4,8.6,9.1c-1.4-1.4-3.9-3-5.5-3.1
		c2.5,1.8,6.6,7.2,6.2,15.4c-0.7-1.5-1.6-2.9-2.6-4.1c0.9,8.1,0.1,9.8-0.4,11.9c-0.1-0.8-0.3-1.5-0.7-2.2c-0.2,2.1-0.8,4.2-1.7,6.2
		c-1.3,2.7-2.5,3.5-3.1,3.5c-0.1,0-0.2,0-0.2-0.1c0.1-0.3,0.1-0.7,0-1c-0.3,0.1-0.6,0.4-0.9,0.7c-0.2,0.2-0.3,0.4-0.5,0.5
		c0,0,0.4-0.5,0.3-0.5c-0.2,0.2-0.4,0.4-0.7,0.6c-0.8,0.8-1.5,1.8-1.9,1.5c0.4-0.2,0.7-0.6,0.7-1c-0.9,0.6-1.9,1-2.9,1.1
		c-2.8,0.4-5.6-0.1-8.1-1.4c0.7-0.2,1.5-0.1,2.2,0.1c-0.7-0.8-2.4-0.6-3.6-1c-1-0.3-2.4-1.8-3.2-2.5c2.9,0.8,6,0.4,8.6-1.1
		c2-1.4,3.2-2.3,4.3-2.1c0.5,0.2,1.1,0,1.3-0.5c0.2-0.5,0-1-0.4-1.3c-1.4-1.5-3.6-2-5.6-1.5c-2.1,0.5-3.9,2.2-6.8,1l-0.5-0.2
		c-0.2-0.1,0.6,0.1,0.4,0c-0.6-0.2-1.2-0.5-1.8-0.8c0,0,0.4,0.1,0.4,0c-2.8-1.6-2.6-2.9-2.6-3.7c0-0.8,0.5-1.5,1.1-1.9
		c0.2,0.1,0.4,0.2,0.6,0.3c-0.1-0.1-0.2-0.3-0.3-0.4h0.1c0.5,0.2,1,0.4,1.4,0.6c0.3,0.1,0.5,0.3,0.7,0.5c0,0,0.1-0.1,0-0.3
		c-0.2-0.3-0.4-0.5-0.7-0.7l0,0c0.3,0.1,0.6,0.3,0.8,0.4c0.2-0.5,0.2-1.1,0.2-1.7c-0.1-0.6-0.1-0.7-0.2-0.9s0-0.3,0.2-0.1
		c0-0.1-0.1-0.3-0.2-0.4l0,0c0.2-0.7,4.3-2.9,4.6-3.1c0.5-0.4,0.9-0.8,1.1-1.4c0.3-0.5,0.4-1.1,0.3-1.6c0-0.5-0.4-0.9-4.8-0.8
		c-1,0-1.9-0.5-2.5-1.4l-0.3-0.4c-0.1-0.2-0.2-0.3-0.2-0.5c0.5-1.9,1.7-3.7,3.3-4.9c0.1-0.1-0.4,0.1-0.3,0s0.8-0.4,1-0.5
		s-0.8-0.3-1.6-0.2c-0.5,0.1-1,0.2-1.4,0.5c0.2-0.2,0.7-0.4,0.6-0.4c-1,0.3-1.9,0.8-2.8,1.4c0-0.1,0-0.2,0-0.3
		c-0.7,0.4-1.2,0.9-1.7,1.6c0-0.1,0-0.2,0-0.3c-0.3,0.3-0.6,0.6-0.8,0.9l0,0c-2.2-0.6-4.4-0.6-6.6,0c-0.9-0.7-1.7-1.5-2.3-2.5
		c-0.1-0.1-0.1,0.2-0.1,0.1c-0.5-1-0.8-2-0.9-3.1c-0.6,0.5-1,1.1-1.2,1.9c-0.1,0.2-0.1,0.4-0.2,0.6c0,0,0-0.5,0-0.4
		c-0.2,0.2-0.3,0.5-0.4,0.8c-0.1,0.2-0.2,0.5-0.2,0.7l0,0c0-0.1,0-0.4,0-0.3c-0.2,0.6-0.4,1.2-0.6,1.9c-0.3,1.5-0.4,3-0.3,4.6
		c0,0.1,0,0.3,0,0.4c-0.5,0.7-1,1.4-1.3,2.2C4.3,24.4,3.4,27.2,3,30c0.4-1.1,0.9-2.2,1.4-3.2c-1,3.4-1.3,6.9-0.9,10.4
		c0.1-1,0.3-2.1,0.5-3.1c0.2,4.1,1.4,8.2,3.6,11.7c2,3.3,7.2,11.1,20.2,14c-0.9-0.2-1.6-0.7-2.3-1.2c2.7,0.9,5.6,1.4,8.4,1.4
		c-1.1-0.2-1.3-0.7-1.3-0.7s12.6,0.7,17-5.2c-1.5,1.7-5.3,2.2-6.7,2.2c2.2-2,7-1.9,12.2-7c2-1.8,3.2-4.2,3.5-6.9
		C58.1,45,55.6,46.5,53,48z"/>
	
		<radialGradient id="SVGID_16_" cx="58.79" cy="143.8956" r="39.44" gradientTransform="matrix(1 0 0 0.97 -22.54 -118.82)" gradientUnits="userSpaceOnUse">
		<stop  offset="0.66" style="stop-color:#B5141E;stop-opacity:0"/>
		<stop  offset="0.76" style="stop-color:#B5141E;stop-opacity:1.000000e-02"/>
		<stop  offset="0.81" style="stop-color:#B5141E;stop-opacity:5.000000e-02"/>
		<stop  offset="0.85" style="stop-color:#B5141E;stop-opacity:0.12"/>
		<stop  offset="0.88" style="stop-color:#B6141D;stop-opacity:0.22"/>
		<stop  offset="0.91" style="stop-color:#B6141D;stop-opacity:0.35"/>
		<stop  offset="0.93" style="stop-color:#B7131C;stop-opacity:0.51"/>
		<stop  offset="0.96" style="stop-color:#B7131B;stop-opacity:0.7"/>
		<stop  offset="0.98" style="stop-color:#B8131A;stop-opacity:0.92"/>
		<stop  offset="0.98" style="stop-color:#B8131A"/>
	</radialGradient>
	<path class="st14" d="M53,48c1.6-3,3.8-4.7,4.9-6.8c1.5-2.7,4.5-10.4,2.3-16.6c1,3.9,0.7,7.8-2.5,9.8c1-2.7,1.7-8.7,0.6-14.1
		c-0.7-3.5-2.9-6.7-4.4-7.6c1.3,1,2.4,4.5,2.4,6.2C53.2,13.4,48,9.4,42,7.8c5.3,3.5,7.3,6.4,8.6,9.1c-1.4-1.4-3.9-3-5.5-3.1
		c2.5,1.8,6.6,7.2,6.2,15.4c-0.7-1.5-1.6-2.9-2.6-4.1c0.9,8.1,0.1,9.8-0.4,11.9c-0.1-0.8-0.3-1.5-0.7-2.2c-0.2,2.1-0.8,4.2-1.7,6.2
		c-1.3,2.7-2.5,3.5-3.1,3.5c-0.1,0-0.2,0-0.2-0.1c0.1-0.3,0.1-0.7,0-1c-0.3,0.1-0.6,0.4-0.9,0.7c-0.2,0.2-0.3,0.4-0.5,0.5
		c0,0,0.4-0.5,0.3-0.5c-0.2,0.2-0.4,0.4-0.7,0.6c-0.8,0.8-1.5,1.8-1.9,1.5c0.4-0.2,0.7-0.6,0.7-1c-0.9,0.6-1.9,1-2.9,1.1
		c-2.8,0.4-5.6-0.1-8.1-1.4c0.7-0.2,1.5-0.1,2.2,0.1c-0.7-0.8-2.4-0.6-3.6-1c-1-0.3-2.4-1.8-3.2-2.5c2.9,0.8,6,0.4,8.6-1.1
		c2-1.4,3.2-2.3,4.3-2.1c0.5,0.2,1.1,0,1.3-0.5c0.2-0.5,0-1-0.4-1.3c-1.4-1.5-3.6-2-5.6-1.5c-2.1,0.5-3.9,2.2-6.8,1l-0.5-0.2
		c-0.2-0.1,0.6,0.1,0.4,0c-0.6-0.2-1.2-0.5-1.8-0.8c0,0,0.4,0.1,0.4,0c-2.8-1.6-2.6-2.9-2.6-3.7c0-0.8,0.5-1.5,1.1-1.9
		c0.2,0.1,0.4,0.2,0.6,0.3c-0.1-0.1-0.2-0.3-0.3-0.4h0.1c0.5,0.2,1,0.4,1.4,0.6c0.3,0.1,0.5,0.3,0.7,0.5c0,0,0.1-0.1,0-0.3
		c-0.2-0.3-0.4-0.5-0.7-0.7l0,0c0.3,0.1,0.6,0.3,0.8,0.4c0.2-0.5,0.2-1.1,0.2-1.7c-0.1-0.6-0.1-0.7-0.2-0.9s0-0.3,0.2-0.1
		c0-0.1-0.1-0.3-0.2-0.4l0,0c0.2-0.7,4.3-2.9,4.6-3.1c0.5-0.4,0.9-0.8,1.1-1.4c0.3-0.5,0.4-1.1,0.3-1.6c0-0.5-0.4-0.9-4.8-0.8
		c-1,0-1.9-0.5-2.5-1.4l-0.3-0.4c-0.1-0.2-0.2-0.3-0.2-0.5c0.5-1.9,1.7-3.7,3.3-4.9c0.1-0.1-0.4,0.1-0.3,0s0.8-0.4,1-0.5
		s-0.8-0.3-1.6-0.2c-0.5,0.1-1,0.2-1.4,0.5c0.2-0.2,0.7-0.4,0.6-0.4c-1,0.3-1.9,0.8-2.8,1.4c0-0.1,0-0.2,0-0.3
		c-0.7,0.4-1.2,0.9-1.7,1.6c0-0.1,0-0.2,0-0.3c-0.3,0.3-0.6,0.6-0.8,0.9l0,0c-2.2-0.6-4.4-0.6-6.6,0c-0.9-0.7-1.7-1.5-2.3-2.5
		c-0.1-0.1-0.1,0.2-0.1,0.1c-0.5-1-0.8-2-0.9-3.1c-0.6,0.5-1,1.1-1.2,1.9c-0.1,0.2-0.1,0.4-0.2,0.6c0,0,0-0.5,0-0.4
		c-0.2,0.2-0.3,0.5-0.4,0.8c-0.1,0.2-0.2,0.5-0.2,0.7l0,0c0-0.1,0-0.4,0-0.3c-0.2,0.6-0.4,1.2-0.6,1.9c-0.3,1.5-0.4,3-0.3,4.6
		c0,0.1,0,0.3,0,0.4c-0.5,0.7-1,1.4-1.3,2.2C4.3,24.4,3.4,27.2,3,30c0.4-1.1,0.9-2.2,1.4-3.2c-1,3.4-1.3,6.9-0.9,10.4
		c0.1-1,0.3-2.1,0.5-3.1c0.2,4.1,1.4,8.2,3.6,11.7c2,3.3,7.2,11.1,20.2,14c-0.9-0.2-1.6-0.7-2.3-1.2c2.7,0.9,5.6,1.4,8.4,1.4
		c-1.1-0.2-1.3-0.7-1.3-0.7s12.6,0.7,17-5.2c-1.5,1.7-5.3,2.2-6.7,2.2c2.2-2,7-1.9,12.2-7c2-1.8,3.2-4.2,3.5-6.9
		C58.1,45,55.6,46.5,53,48z"/>
	
		<radialGradient id="SVGID_17_" cx="-549.3367" cy="545.1024" r="40.27" gradientTransform="matrix(0.53 -0.82 0.84 0.51 -127.23 -693.39)" gradientUnits="userSpaceOnUse">
		<stop  offset="0.71" style="stop-color:#E86304;stop-opacity:0"/>
		<stop  offset="0.81" style="stop-color:#E86304;stop-opacity:1.000000e-02"/>
		<stop  offset="0.84" style="stop-color:#E86504;stop-opacity:4.000000e-02"/>
		<stop  offset="0.87" style="stop-color:#E96804;stop-opacity:8.000000e-02"/>
		<stop  offset="0.89" style="stop-color:#EA6B03;stop-opacity:0.15"/>
		<stop  offset="0.9" style="stop-color:#EB7003;stop-opacity:0.24"/>
		<stop  offset="0.92" style="stop-color:#EC7603;stop-opacity:0.36"/>
		<stop  offset="0.93" style="stop-color:#ED7D02;stop-opacity:0.49"/>
		<stop  offset="0.94" style="stop-color:#EF8601;stop-opacity:0.65"/>
		<stop  offset="0.96" style="stop-color:#F18F01;stop-opacity:0.81"/>
		<stop  offset="0.97" style="stop-color:#F39900"/>
	</radialGradient>
	<path class="st15" d="M53,48c1.6-3,3.8-4.7,4.9-6.8c1.5-2.7,4.5-10.4,2.3-16.6c1,3.9,0.7,7.8-2.5,9.8c1-2.7,1.7-8.7,0.6-14.1
		c-0.7-3.5-2.9-6.7-4.4-7.6c1.3,1,2.4,4.5,2.4,6.2C53.2,13.4,48,9.4,42,7.8c5.3,3.5,7.3,6.4,8.6,9.1c-1.4-1.4-3.9-3-5.5-3.1
		c2.5,1.8,6.6,7.2,6.2,15.4c-0.7-1.5-1.6-2.9-2.6-4.1c0.9,8.1,0.1,9.8-0.4,11.9c-0.1-0.8-0.3-1.5-0.7-2.2c-0.2,2.1-0.8,4.2-1.7,6.2
		c-1.3,2.7-2.5,3.5-3.1,3.5c-0.1,0-0.2,0-0.2-0.1c0.1-0.3,0.1-0.7,0-1c-0.3,0.1-0.6,0.4-0.9,0.7c-0.2,0.2-0.3,0.4-0.5,0.5
		c0,0,0.4-0.5,0.3-0.5c-0.2,0.2-0.4,0.4-0.7,0.6c-0.8,0.8-1.5,1.8-1.9,1.5c0.4-0.2,0.7-0.6,0.7-1c-0.9,0.6-1.9,1-2.9,1.1
		c-2.8,0.4-5.6-0.1-8.1-1.4c0.7-0.2,1.5-0.1,2.2,0.1c-0.7-0.8-2.4-0.6-3.6-1c-1-0.3-2.4-1.8-3.2-2.5c2.9,0.8,6,0.4,8.6-1.1
		c2-1.4,3.2-2.3,4.3-2.1c0.5,0.2,1.1,0,1.3-0.5c0.2-0.5,0-1-0.4-1.3c-1.4-1.5-3.6-2-5.6-1.5c-2.1,0.5-3.9,2.2-6.8,1l-0.5-0.2
		c-0.2-0.1,0.6,0.1,0.4,0c-0.6-0.2-1.2-0.5-1.8-0.8c0,0,0.4,0.1,0.4,0c-2.8-1.6-2.6-2.9-2.6-3.7c0-0.8,0.5-1.5,1.1-1.9
		c0.2,0.1,0.4,0.2,0.6,0.3c-0.1-0.1-0.2-0.3-0.3-0.4h0.1c0.5,0.2,1,0.4,1.4,0.6c0.3,0.1,0.5,0.3,0.7,0.5c0,0,0.1-0.1,0-0.3
		c-0.2-0.3-0.4-0.5-0.7-0.7l0,0c0.3,0.1,0.6,0.3,0.8,0.4c0.2-0.5,0.2-1.1,0.2-1.7c-0.1-0.6-0.1-0.7-0.2-0.9s0-0.3,0.2-0.1
		c0-0.1-0.1-0.3-0.2-0.4l0,0c0.2-0.7,4.3-2.9,4.6-3.1c0.5-0.4,0.9-0.8,1.1-1.4c0.3-0.5,0.4-1.1,0.3-1.6c0-0.5-0.4-0.9-4.8-0.8
		c-1,0-1.9-0.5-2.5-1.4l-0.3-0.4c-0.1-0.2-0.2-0.3-0.2-0.5c0.5-1.9,1.7-3.7,3.3-4.9c0.1-0.1-0.4,0.1-0.3,0s0.8-0.4,1-0.5
		s-0.8-0.3-1.6-0.2c-0.5,0.1-1,0.2-1.4,0.5c0.2-0.2,0.7-0.4,0.6-0.4c-1,0.3-1.9,0.8-2.8,1.4c0-0.1,0-0.2,0-0.3
		c-0.7,0.4-1.2,0.9-1.7,1.6c0-0.1,0-0.2,0-0.3c-0.3,0.3-0.6,0.6-0.8,0.9l0,0c-2.2-0.6-4.4-0.6-6.6,0c-0.9-0.7-1.7-1.5-2.3-2.5
		c-0.1-0.1-0.1,0.2-0.1,0.1c-0.5-1-0.8-2-0.9-3.1c-0.6,0.5-1,1.1-1.2,1.9c-0.1,0.2-0.1,0.4-0.2,0.6c0,0,0-0.5,0-0.4
		c-0.2,0.2-0.3,0.5-0.4,0.8c-0.1,0.2-0.2,0.5-0.2,0.7l0,0c0-0.1,0-0.4,0-0.3c-0.2,0.6-0.4,1.2-0.6,1.9c-0.3,1.5-0.4,3-0.3,4.6
		c0,0.1,0,0.3,0,0.4c-0.5,0.7-1,1.4-1.3,2.2C4.3,24.4,3.4,27.2,3,30c0.4-1.1,0.9-2.2,1.4-3.2c-1,3.4-1.3,6.9-0.9,10.4
		c0.1-1,0.3-2.1,0.5-3.1c0.2,4.1,1.4,8.2,3.6,11.7c2,3.3,7.2,11.1,20.2,14c-0.9-0.2-1.6-0.7-2.3-1.2c2.7,0.9,5.6,1.4,8.4,1.4
		c-1.1-0.2-1.3-0.7-1.3-0.7s12.6,0.7,17-5.2c-1.5,1.7-5.3,2.2-6.7,2.2c2.2-2,7-1.9,12.2-7c2-1.8,3.2-4.2,3.5-6.9
		C58.1,45,55.6,46.5,53,48z"/>
	
		<radialGradient id="SVGID_18_" cx="51.37" cy="299.489" r="12.95" gradientTransform="matrix(1 0 0 0.62 -22.54 -165.96)" gradientUnits="userSpaceOnUse">
		<stop  offset="0" style="stop-color:#DE570C;stop-opacity:0.1"/>
		<stop  offset="0.31" style="stop-color:#DD550D;stop-opacity:0.84"/>
		<stop  offset="0.56" style="stop-color:#B5141E"/>
	</radialGradient>
	<path class="st16" d="M31.2,20.4c0-0.5-0.4-0.9-4.8-0.9c-1.4-0.1-2.6-0.9-3-2.2c-0.5,1.8-0.6,3.7-0.2,5.5c0.3,1.2,0.9,2.4,1.8,3.4
		c0.1,0.1,0.2,0.2,0.2,0.1c0.2-0.4,4.1-2.6,4.4-2.9C30.5,22.7,31.1,21.6,31.2,20.4z"/>
	
		<radialGradient id="SVGID_19_" cx="-88.5288" cy="1181.9359" r="10.91" gradientTransform="matrix(0.95 -0.28 0.14 0.41 -54.52 -487.66)" gradientUnits="userSpaceOnUse">
		<stop  offset="0" style="stop-color:#DE570C;stop-opacity:0"/>
		<stop  offset="0.45" style="stop-color:#DC570E;stop-opacity:0.8"/>
		<stop  offset="0.72" style="stop-color:#B5141E"/>
	</radialGradient>
	<path class="st17" d="M25,19.9c0,0,1.5,0.7,1.8,1.2c0.1,0.1-0.8-0.3-0.7-0.1s1.1,0.7,1.1,1s-0.6-0.2-0.9-0.3
		c0.2,0.2,0.5,0.4,0.3,0.6s-0.7,0.2-0.8,0.3c-1.4,0.9,2,1.1,3.2,0.4c0.8-0.4,1.5-1,2-1.8c0-0.1,0.5-1.4-2.1-1
		C27.7,20.6,26.3,20.5,25,19.9z"/>
	
		<radialGradient id="SVGID_20_" cx="61.88" cy="144.4654" r="29.35" gradientTransform="matrix(1 0 0 0.99 -22.54 -112.87)" gradientUnits="userSpaceOnUse">
		<stop  offset="0.46" style="stop-color:#EFBE00"/>
		<stop  offset="0.72" style="stop-color:#E15D09"/>
		<stop  offset="0.77" style="stop-color:#DC550B"/>
		<stop  offset="0.85" style="stop-color:#CF3E12"/>
		<stop  offset="0.96" style="stop-color:#B91A1C"/>
		<stop  offset="0.97" style="stop-color:#B5141E"/>
	</radialGradient>
	<path class="st18" d="M46.2,53.4c-1.9,0.9-3.9,1.6-6,1.9c6.2-1.9,8.2-4.5,9.2-6.2c3.2-0.6,9-3.5,9.3-6.8c-0.3,4.6-4.1,7.7-6.8,9.6
		c-3.2,2.2-6,2.3-8.3,3.8C44.5,55.1,45.4,54.3,46.2,53.4z"/>
	
		<radialGradient id="SVGID_21_" cx="82.47" cy="127.8554" r="35.5" gradientTransform="matrix(1 0 0 0.99 -22.54 -112.87)" gradientUnits="userSpaceOnUse">
		<stop  offset="0.31" style="stop-color:#FFE700"/>
		<stop  offset="0.48" style="stop-color:#F8CE00"/>
		<stop  offset="0.84" style="stop-color:#E15D09"/>
		<stop  offset="1" style="stop-color:#E15D09"/>
	</radialGradient>
	<path class="st19" d="M60.2,24.6c1.9,6.2-1.2,8.9-2.6,9.7c1.7-4.6,2.3-10.4,0.5-15.5c-0.8-2.4-2.3-4.6-4.2-6.3
		c2.9,3.1,3.8,7.6,2.2,11.6c0.5,3-1.2,11.2,0.9,10.8c-0.6,4.1-1.7,8.1-3.4,11.9c1.5-2.3,3.6-4.5,4.6-6.3
		C60.1,37.2,62.2,30.4,60.2,24.6z"/>
	
		<radialGradient id="SVGID_22_" cx="71.96" cy="141.3555" r="14.44" gradientTransform="matrix(1 0 0 0.99 -22.54 -112.87)" gradientUnits="userSpaceOnUse">
		<stop  offset="9.000000e-02" style="stop-color:#FFFFFF"/>
		<stop  offset="0.12" style="stop-color:#FFFEF9"/>
		<stop  offset="0.15" style="stop-color:#FFFDE6"/>
		<stop  offset="0.19" style="stop-color:#FFFAC8"/>
		<stop  offset="0.24" style="stop-color:#FFF69F"/>
		<stop  offset="0.29" style="stop-color:#FFF169"/>
		<stop  offset="0.34" style="stop-color:#FFEB29"/>
		<stop  offset="0.37" style="stop-color:#FFE700"/>
		<stop  offset="0.43" style="stop-color:#FBDD00"/>
		<stop  offset="0.52" style="stop-color:#F1C400"/>
		<stop  offset="0.54" style="stop-color:#EFBE00"/>
		<stop  offset="1" style="stop-color:#E15D09"/>
	</radialGradient>
	<path class="st20" d="M52.6,26.1c-0.6,1.5-0.9,3.1-0.8,4.7c-0.5-2.2-1.6-4.1-3.2-5.6c0.3,3.3,0.8,8-0.4,12c0.3,2.4,0.1,4.9-0.7,7.2
		c1.9-2.1,4.3-3.8,4.7-5.5c0-0.1,0-0.1,0-0.2c0.9,0,1.7-0.4,2.3-1.1c0.6-1,2.3-4.2,2.4-5.9C54.6,30.6,53,28.5,52.6,26.1z"/>
	
		<radialGradient id="SVGID_23_" cx="74.75" cy="139.6055" r="26.2" gradientTransform="matrix(1 0 0 0.99 -22.54 -112.87)" gradientUnits="userSpaceOnUse">
		<stop  offset="9.000000e-02" style="stop-color:#FFFFFF"/>
		<stop  offset="0.12" style="stop-color:#FFFEF9"/>
		<stop  offset="0.15" style="stop-color:#FFFDE6"/>
		<stop  offset="0.19" style="stop-color:#FFFAC8"/>
		<stop  offset="0.24" style="stop-color:#FFF69F"/>
		<stop  offset="0.29" style="stop-color:#FFF169"/>
		<stop  offset="0.34" style="stop-color:#FFEB29"/>
		<stop  offset="0.37" style="stop-color:#FFE700"/>
		<stop  offset="0.43" style="stop-color:#FBDD00"/>
		<stop  offset="0.52" style="stop-color:#F1C400"/>
		<stop  offset="0.54" style="stop-color:#EFBE00"/>
		<stop  offset="0.74" style="stop-color:#E27403"/>
		<stop  offset="0.94" style="stop-color:#DC570E"/>
	</radialGradient>
	<path class="st21" d="M51.9,36.6c5.1-7,3.3-14.4,2.8-16.6C62,31.9,54.5,45.6,53,47.9c-1.2,0.6-2.4,1.1-3.7,1.3
		c0.7-1.2,1.1-2.6,1-4.1c-1.1,2.7-5,4.7-7.2,5.4C46.9,47.8,51.2,40.3,51.9,36.6z"/>
	
		<radialGradient id="SVGID_24_" cx="70.58" cy="146.4355" r="22.18" gradientTransform="matrix(1 0 0 0.99 -22.54 -112.87)" gradientUnits="userSpaceOnUse">
		<stop  offset="9.000000e-02" style="stop-color:#FFFFFF"/>
		<stop  offset="0.11" style="stop-color:#FFFEF9"/>
		<stop  offset="0.13" style="stop-color:#FFFDE6"/>
		<stop  offset="0.16" style="stop-color:#FFFAC8"/>
		<stop  offset="0.19" style="stop-color:#FFF69F"/>
		<stop  offset="0.22" style="stop-color:#FFF169"/>
		<stop  offset="0.26" style="stop-color:#FFEB29"/>
		<stop  offset="0.28" style="stop-color:#FFE700"/>
		<stop  offset="0.33" style="stop-color:#FBDD00"/>
		<stop  offset="0.41" style="stop-color:#F1C400"/>
		<stop  offset="0.43" style="stop-color:#EFBE00"/>
		<stop  offset="0.46" style="stop-color:#EDB101"/>
		<stop  offset="0.63" style="stop-color:#E27403"/>
		<stop  offset="0.79" style="stop-color:#DF6309"/>
		<stop  offset="0.95" style="stop-color:#DC570E"/>
	</radialGradient>
	<path class="st22" d="M51.1,31.4c0,0,0.4,6.1-2.7,11c0.6-2.5,0.3-5.2-0.8-7.5c-0.2,1.7-0.6,3.3-1.2,4.9c-1.7,4.2-3.3,5-3.9,4.6
		c-1.3,5.2-10,4.9-10,4.9c2,0.5,8.9,0.9,14-2.8c-1.1,2.4-3.1,4.3-5.6,5.4c3.7-0.2,8.6-4.1,9.5-6.7c0,1.4-0.3,2.8-1,4
		C55.5,42.3,51.1,31.4,51.1,31.4z"/>
	
		<linearGradient id="SVGID_25_" gradientUnits="userSpaceOnUse" x1="64.0069" y1="160.9394" x2="60.3169" y2="177.0393" gradientTransform="matrix(1 -3.000000e-02 3.000000e-02 1 -27.7 -119.8)">
		<stop  offset="0" style="stop-color:#FDEF17"/>
		<stop  offset="0" style="stop-color:#FFEE00"/>
		<stop  offset="9.000000e-02" style="stop-color:#FACD00"/>
		<stop  offset="0.19" style="stop-color:#F6B100"/>
		<stop  offset="0.27" style="stop-color:#F49F00"/>
		<stop  offset="0.33" style="stop-color:#F39900"/>
		<stop  offset="0.57" style="stop-color:#E87907;stop-opacity:0.54"/>
		<stop  offset="0.82" style="stop-color:#DC570E;stop-opacity:6.000000e-02"/>
	</linearGradient>
	<path class="st23" d="M31.4,52.6c3.2-0.3,5.9-1,7.6-3.3c-2.2,0.4-4.5,0.4-6.7,0c1.7,0,3.5-0.2,5.2-0.6c4.2-0.9,7.8-3.5,9.9-7.2
		C47.4,52,36.5,54.1,31.4,52.6z"/>
	
		<linearGradient id="SVGID_26_" gradientUnits="userSpaceOnUse" x1="33.001" y1="130.224" x2="29.721" y2="121.824" gradientTransform="matrix(1 0 0 1 -22.54 -111.46)">
		<stop  offset="0.17" style="stop-color:#B5141E"/>
		<stop  offset="0.35" style="stop-color:#C0281B;stop-opacity:0.76"/>
		<stop  offset="0.52" style="stop-color:#C83719;stop-opacity:0.58"/>
		<stop  offset="0.62" style="stop-color:#CB3D18;stop-opacity:0.51"/>
		<stop  offset="1" style="stop-color:#DE570C;stop-opacity:0"/>
	</linearGradient>
	<path class="st24" d="M10.7,12.5c-0.1-0.1-0.1,0.2-0.1,0.1c-0.5-1-0.8-2-0.9-3.1c-0.6,0.5-1,1.1-1.2,1.9c-0.1,0.2-0.1,0.4-0.2,0.6
		c0,0,0-0.5,0-0.4c-0.2,0.2-0.3,0.5-0.4,0.8c-0.1,0.2-0.2,0.5-0.2,0.7c0,0.1,0-0.4,0-0.3c-0.8,2.2-1.1,4.6-0.9,6.9
		C8.4,17.6,10.6,16,13,15C12.1,14.4,11.3,13.5,10.7,12.5z"/>
	
		<linearGradient id="SVGID_27_" gradientUnits="userSpaceOnUse" x1="46.3721" y1="136.5494" x2="50.7821" y2="134.6094" gradientTransform="matrix(1 0 0 1 -22.54 -111.46)">
		<stop  offset="7.000000e-02" style="stop-color:#DC570E"/>
		<stop  offset="0.3" style="stop-color:#E89C68"/>
		<stop  offset="0.67" style="stop-color:#F6DAAF"/>
		<stop  offset="1" style="stop-color:#FAF8CE"/>
	</linearGradient>
	<path class="st25" d="M29.9,23.1c0.6-0.5,1-1.1,1.2-1.8c-0.1,0.1-0.2-0.1-0.3,0c-0.6,0.6-1.2,1.1-1.9,1.6c0.3-0.2,0.5-0.4,0.8-0.7
		c-0.9,0.7-1.9,1-3,1c0.5,0,1-0.2,1.4-0.5C27.4,23,26.7,23,26,23c-0.1,0,1.1-0.2,1-0.2c-0.5-0.1-1-0.1-1.5,0
		c-0.3,0.2-0.6,0.4-0.9,0.6c0.1-0.2,0.2-0.4,0.3-0.6c-0.3,0.3-0.7,0.6-1.1,0.9c0.1-0.1,1-0.9,0.9-0.8s-0.5,0.3-0.8,0.5
		c-0.1,0,0.6-0.5,0.5-0.5c-1.1,0.3-1,0.9-1,0.9s0,0.1,0,0.2c0.3,0.6,0.6,1.2,1.1,1.7c0.3,0.4,0.4,0.8,0.5,0.7
		C25.2,25.8,29.5,23.4,29.9,23.1z"/>
	
		<linearGradient id="SVGID_28_" gradientUnits="userSpaceOnUse" x1="46.8051" y1="137.1102" x2="58.1851" y2="131.3902" gradientTransform="matrix(1 0 0 1 -22.54 -111.46)">
		<stop  offset="4.000000e-02" style="stop-color:#DC570E"/>
		<stop  offset="0.26" style="stop-color:#EDAD78"/>
		<stop  offset="1" style="stop-color:#FAF8CE"/>
	</linearGradient>
	<path class="st26" d="M30.9,21.5c0,0-0.1-0.5,0-0.4c0,0.7-0.4,1.4-1,1.8c-0.2,0.1,0-0.4-0.3-0.1c-0.9,1.1-2.2,1.8-3.7,1.8
		c-0.1,0,0.9-0.4,0.8-0.4s-0.5,0.1-1.5,0.4c-0.1,0,0.8-0.5,0.7-0.5s-0.6,0.4-1.3,0.6c0.3-0.3,0.6-0.6,0.5-0.5
		c-0.4,0.2-0.8,0.5-1.1,0.9c0.1,0.2,0.3,0.4,0.5,0.6c0.3,0.4,0.4,0.8,0.5,0.7c0.9-1,4.3-2.6,5.1-3.4S30.6,22.3,30.9,21.5z"/>
	
		<radialGradient id="SVGID_29_" cx="50.64" cy="190.4116" r="15.68" gradientTransform="matrix(1 0 0 0.83 -22.54 -114.99)" gradientUnits="userSpaceOnUse">
		<stop  offset="0.5" style="stop-color:#DE570C;stop-opacity:0"/>
		<stop  offset="0.53" style="stop-color:#DE570C;stop-opacity:5.000000e-02"/>
		<stop  offset="0.58" style="stop-color:#DE570C;stop-opacity:0.17"/>
		<stop  offset="0.64" style="stop-color:#DE560C;stop-opacity:0.38"/>
		<stop  offset="0.72" style="stop-color:#DD550D;stop-opacity:0.65"/>
		<stop  offset="0.75" style="stop-color:#DD550D;stop-opacity:0.77"/>
		<stop  offset="0.95" style="stop-color:#B5141E"/>
	</radialGradient>
	<path class="st27" d="M25.8,45.2c-4.4-1.4-9.5-3.4-9.9-9.1c-0.5-7.5,6.5-6.8,6.5-6.8c-0.5,0.3-0.8,0.8-1,1.3c-0.4,1.2,0,2.6,1,3.4
		c2.5,2.2-4.1,6.2,7.2,11.4C28.3,45.5,27,45.5,25.8,45.2z"/>
	
		<linearGradient id="SVGID_30_" gradientUnits="userSpaceOnUse" x1="51.1032" y1="134.5621" x2="54.3932" y2="129.4921" gradientTransform="matrix(1 0 0 1 -22.54 -111.46)">
		<stop  offset="0" style="stop-color:#393739"/>
		<stop  offset="0.65" style="stop-color:#853F38"/>
		<stop  offset="1" style="stop-color:#DC570E"/>
	</linearGradient>
	<path class="st28" d="M31.2,21.6c0.2-0.5,0.4-1.6-0.2-1.9c-0.6-0.2-1.3-0.2-1.9-0.2c0.3,0.1,1.1,0.2,1.4,0.6
		c0.3,0.8,0.2,1.8-0.1,2.6C30.8,22.5,31.1,22.1,31.2,21.6z"/>
	
		<radialGradient id="SVGID_31_" cx="-0.9577" cy="450.5853" r="14.38" gradientTransform="matrix(0.99 -0.16 0.12 0.74 -24.48 -300.04)" gradientUnits="userSpaceOnUse">
		<stop  offset="0.5" style="stop-color:#DE570C;stop-opacity:0"/>
		<stop  offset="0.66" style="stop-color:#DC570E"/>
		<stop  offset="0.81" style="stop-color:#B5141E"/>
	</radialGradient>
	<path class="st29" d="M24,41.5c3.1,0.7,6.6,0.2,8.6-1.2c1.3-0.9,3.3-2.3,4.1-2.1c-0.8-0.3-1.7-0.4-2.6-0.3h-0.5
		c-0.3,0-0.6,0.1-1,0.1c-0.5,0.2-1.1,0.4-1.6,0.5c0,0,0.5-0.3,0.5-0.3c-0.3,0.1-0.6,0.1-0.9,0.2l-0.6,0.1C23.7,39.7,18,36.4,18,36.4
		C17.8,38,20.5,40.7,24,41.5z"/>
	
		<radialGradient id="SVGID_32_" cx="55.8919" cy="148.7247" r="27.08" gradientTransform="matrix(1 -3.000000e-02 3.000000e-02 0.97 -19.43 -133.49)" gradientUnits="userSpaceOnUse">
		<stop  offset="0" style="stop-color:#FFE300;stop-opacity:0"/>
		<stop  offset="0.36" style="stop-color:#FDDB00;stop-opacity:0.52"/>
		<stop  offset="0.48" style="stop-color:#FCD600;stop-opacity:0.7"/>
		<stop  offset="0.86" style="stop-color:#FCD600;stop-opacity:0"/>
	</radialGradient>
	<path class="st30" d="M50.6,16.8c1.4,1.5,2.5,3.1,3.5,4.9c0.7,1.6,1.2,3.4,1.5,5.1c0-2.1-0.4-4.2-1.1-6.2c-1.3-3.8-3.6-7.2-6.8-9.7
		c-1.8-1.2-3.6-2.2-5.5-3.1C42.2,7.9,48.5,11.5,50.6,16.8z"/>
	
		<radialGradient id="SVGID_33_" cx="23.81" cy="48.6245" r="34.7" gradientTransform="matrix(1 0 0 -0.99 0 62.53)" gradientUnits="userSpaceOnUse">
		<stop  offset="0" style="stop-color:#E86304"/>
		<stop  offset="1" style="stop-color:#F39900"/>
	</radialGradient>
	<path class="st31" d="M16.4,16.3c0,0-1.2,0.1-3.3,2c-0.8,0.6-1.5,1.3-2.2,2.1c-0.9,1.1-1.8,2.4-2.5,3.7c0.2-0.9,0.4-1.8,0.8-2.6
		C7.7,24,6.7,27,6.1,30c0-1.7,0.1-3.4,0.5-5.1c-0.3,0.9-0.5,1.8-0.6,2.7c-0.3,2.2-0.3,4.5,0,6.7c0,0-0.2-0.7-0.4-1.7
		c0.1,0.7,0.2,1.6,0.4,2.5c0.5,2.3,1.2,4.5,2,6.6c-1.2-1.7-2.1-3.6-2.7-5.6c0.2,1,0.5,2.3,1,3.8C6.9,42.6,8,45,9.4,47.2
		c0,0-1.4-1.2-3.2-5.7C5.5,39.8,5,38,4.7,36.2c-0.2-1-0.3-2-0.4-3.3c0-0.5-0.1-1-0.1-1.5c-0.4,1.9-0.6,3.4-0.6,3.4
		c0.1-2.4,0.3-4.7,0.7-7.1c0.1-0.5,0.2-1,0.4-1.4c-0.6,1.1-1,2-1,2s0.8-2.1,1.5-3.8c-0.4,0.8-0.8,1.6-1.2,2.4
		c0.6-2.3,1.6-4.4,2.8-6.5c0.6-0.9,1.4-1.7,2.2-2.5c0.2-0.2,0.4-0.4,0.6-0.5l0.6-0.5l0.3-0.2c1.4-1.1,3.2-1.7,5-1.8
		c-0.7,0.1-1.4,0.4-2.1,0.8c0.5-0.2,1-0.3,1.5-0.3c-0.6,0.2-1.1,0.5-1.6,0.9c1.1-0.6,2.3-0.9,3.5-0.9c-1.2,0.3-2.4,0.8-3.4,1.6
		L13.2,17l0,0C14.2,16.6,15.3,16.3,16.4,16.3z M9.9,29.1L9.9,29.1 M9.9,29.1c-0.4,0.2-0.9,1.8-0.5,5.3c0.1,1.6,0.6,3.1,1.5,4.4
		c0,0-0.6-1.2-1-5.1C9.6,30.3,9.9,29.2,9.9,29.1z M11,26.4c-0.3,2.3-0.2,4.7,0.2,7c0-2.3,0.2-4.7,0.6-7c0.8-3.8,2-4.9,2-4.9
		C13.2,21.6,11.6,23.5,11,26.4z M12.5,19.1c-0.3,0.4-0.6,0.7-0.9,1.2c-1.3,1.4-2.2,3.2-2.5,5.1c-0.6,2.5-0.7,5.1-0.3,7.7
		c0-2.8,0.3-5.5,1-8.2c0.1-0.5,0.3-1,0.5-1.5c-0.2,0.6-0.3,1.2-0.3,1.9c0.7-2.5,2.1-4.7,3.9-6.5c0.9-1,2-1.8,3.2-2.3
		C15.3,16.9,13.7,17.8,12.5,19.1L12.5,19.1z M11.4,29.4c-0.1,1.4-0.1,2.9,0.2,4.3c0-1.6,0.1-3.1,0.3-4.7c0.1-1.2,0.3-2.3,0.7-3.4
		C12.1,25.8,11.6,27.8,11.4,29.4z M11.7,22.2c-0.6,1-1,2.1-1.3,3.3c0.6-1.4,1.3-2.7,2.1-3.9c0.5-0.7,1.1-1.4,1.7-2
		C13,20.1,12.2,21.1,11.7,22.2z M7.3,28.3L7.3,28.3 M7.3,28.3c-0.4,0.2-1,1.7-0.8,5.3c0,1.6,0.4,3.1,1.2,4.5c0,0-0.6-1.2-0.7-5.2
		 M24.4,12c-1.2,0.5-2.3,1.2-3.1,2.1C20.6,15,20.2,16,20,17.1C20.9,14.9,22.4,13.2,24.4,12z M23,13.9c-0.8,1-1.4,2.1-1.8,3.2
		c1.2-2.4,3.2-4.3,5.6-5.3C25.3,12,24,12.7,23,13.9z M8.6,13.5c0.1-1.2,0.4-2.4,0.9-3.5c-1.2,2.1-1.5,4.6-0.8,6.9
		C8.5,15.8,8.4,14.7,8.6,13.5z M10.2,16.2c-0.4-0.9-0.6-1.9-0.6-2.9c-0.1-1-0.1-2,0.1-3C8.9,12.2,9.1,14.4,10.2,16.2z"/>
	
		<radialGradient id="SVGID_34_" cx="-2803.168" cy="2849.3428" r="8.87" gradientTransform="matrix(-0.28 0.94 0.64 0.18 -2566.0601 2167.6001)" gradientUnits="userSpaceOnUse">
		<stop  offset="0" style="stop-color:#FFFFFF"/>
		<stop  offset="4.000000e-02" style="stop-color:#FFFBD5;stop-opacity:0.91"/>
		<stop  offset="0.12" style="stop-color:#FFF595;stop-opacity:0.77"/>
		<stop  offset="0.18" style="stop-color:#FFF060;stop-opacity:0.66"/>
		<stop  offset="0.25" style="stop-color:#FFEC36;stop-opacity:0.57"/>
		<stop  offset="0.3" style="stop-color:#FFE919;stop-opacity:0.51"/>
		<stop  offset="0.35" style="stop-color:#FFE806;stop-opacity:0.47"/>
		<stop  offset="0.39" style="stop-color:#FFE700;stop-opacity:0.45"/>
		<stop  offset="0.81" style="stop-color:#FFE700;stop-opacity:0"/>
	</radialGradient>
	<path class="st32" d="M37.3,36.4c-0.8-0.8-1.9-1.3-3-1.4c-1.2-0.1-2.4,0.2-3.5,0.7c1.1-0.4,2.3-0.6,3.5-0.4
		C35.4,35.4,36.4,35.8,37.3,36.4z"/>
	
		<radialGradient id="SVGID_35_" cx="-2992.0027" cy="2696.8286" r="9.25" gradientTransform="matrix(-0.32 0.82 0.65 0.24 -2668.73 1849.0901)" gradientUnits="userSpaceOnUse">
		<stop  offset="0" style="stop-color:#FFFFFF"/>
		<stop  offset="4.000000e-02" style="stop-color:#FFFBD5;stop-opacity:0.91"/>
		<stop  offset="0.12" style="stop-color:#FFF595;stop-opacity:0.77"/>
		<stop  offset="0.18" style="stop-color:#FFF060;stop-opacity:0.66"/>
		<stop  offset="0.25" style="stop-color:#FFEC36;stop-opacity:0.57"/>
		<stop  offset="0.3" style="stop-color:#FFE919;stop-opacity:0.51"/>
		<stop  offset="0.35" style="stop-color:#FFE806;stop-opacity:0.47"/>
		<stop  offset="0.39" style="stop-color:#FFE700;stop-opacity:0.45"/>
		<stop  offset="0.81" style="stop-color:#FFE700;stop-opacity:0"/>
	</radialGradient>
	<path class="st33" d="M38,37.2c-0.8-0.9-1.9-1.5-3.1-1.7c-1.3-0.2-2.7-0.1-3.9,0.5c1.2-0.4,2.6-0.4,3.8-0.1
		C36,36.1,37.1,36.5,38,37.2z"/>
	
		<radialGradient id="SVGID_36_" cx="-3440.4919" cy="3071.1597" r="6.93" gradientTransform="matrix(-0.23 0.52 0.54 0.23 -2423.0601 1108.25)" gradientUnits="userSpaceOnUse">
		<stop  offset="0" style="stop-color:#FFFFFF"/>
		<stop  offset="4.000000e-02" style="stop-color:#FFFBD5;stop-opacity:0.91"/>
		<stop  offset="0.12" style="stop-color:#FFF595;stop-opacity:0.77"/>
		<stop  offset="0.18" style="stop-color:#FFF060;stop-opacity:0.66"/>
		<stop  offset="0.25" style="stop-color:#FFEC36;stop-opacity:0.57"/>
		<stop  offset="0.3" style="stop-color:#FFE919;stop-opacity:0.51"/>
		<stop  offset="0.35" style="stop-color:#FFE806;stop-opacity:0.47"/>
		<stop  offset="0.39" style="stop-color:#FFE700;stop-opacity:0.45"/>
		<stop  offset="0.81" style="stop-color:#FFE700;stop-opacity:0"/>
	</radialGradient>
	<path class="st34" d="M37.3,37.2c-0.5-0.4-1.1-0.7-1.8-0.9c-0.9-0.3-1.8-0.3-2.6,0c0.7-0.1,1.5,0,2.2,0.2
		C35.9,36.6,36.6,36.8,37.3,37.2z"/>
	
		<linearGradient id="SVGID_37_" gradientUnits="userSpaceOnUse" x1="30.215" y1="36.61" x2="30.215" y2="5.48" gradientTransform="matrix(1 0 0 -1 0 66)">
		<stop  offset="0" style="stop-color:#E57F00"/>
		<stop  offset="0.5" style="stop-color:#DB510F"/>
		<stop  offset="0.62" style="stop-color:#CB3715"/>
		<stop  offset="0.75" style="stop-color:#B5141E"/>
		<stop  offset="0.84" style="stop-color:#AD121B"/>
		<stop  offset="0.98" style="stop-color:#960D14"/>
		<stop  offset="1" style="stop-color:#930C13"/>
	</linearGradient>
	<path class="st35" d="M57.4,46.2c-0.4,0.7-0.8,1.3-1.3,1.9c-1.3,1.5-2.8,2.8-4.4,3.9c-0.5,0.4-1.1,0.7-1.7,1v-0.2l0,0
		c1.9-1,3.6-2.2,5.1-3.7C56.1,48.3,56.8,47.3,57.4,46.2z M8.4,11.8c0.1-0.2,0.1-0.4,0.2-0.6c0.1-0.3,0.2-0.5,0.4-0.8
		c-0.2,0.3-0.3,0.7-0.4,1c0,0.1,0,0.1-0.1,0.2L8.4,11.8z M25.6,58.3c0.2,0.2,0.4,0.3,0.6,0.5c2.5,0.8,5.1,1.2,7.7,1.2
		c-0.3,0-0.5-0.1-0.8-0.2C30.6,59.6,28.1,59.1,25.6,58.3z M4.6,26.6L4.4,27v-0.1c-0.9,3.3-1.2,6.8-0.9,10.3c0,0,0-0.1,0-0.2
		c0,0.1,0,0.1,0,0.2s0-0.3,0.1-0.8C3.3,33.1,3.7,29.8,4.6,26.6L4.6,26.6z M7.8,45.6C5.6,42,4.4,38,4.2,33.8c0,0.2-0.1,0.4-0.1,0.5
		c0.2,4,1.5,8,3.5,11.4c2,3.3,7.2,11.1,20.2,14c-0.5-0.1-1-0.4-1.5-0.6C14.5,56,9.6,48.8,7.8,45.6L7.8,45.6z M49.6,54l0.1-0.2
		c-4.4,5.9-17,5.2-17,5.2c0.1,0.1,0.1,0.2,0.2,0.3c1.8,0.1,10.4,0.1,15-3.5c1-0.7,1.8-1.6,2.2-2.8H50C49.9,53.3,49.8,53.7,49.6,54z
		 M5.8,21.3c-1,1.6-2,4.3-2.8,8.7c0,0,0-0.1,0.1-0.2L3,30c0,0,0.1-0.2,0.2-0.5c0.4-2.7,1.2-5.4,2.4-7.9C5.6,21.5,5.7,21.4,5.8,21.3z
		 M7.8,12.8c0-0.2,0.1-0.5,0.2-0.7c0-0.1,0-0.1,0.1-0.2C8,12.1,8,12.2,7.9,12.4l-0.1,0.3C7.8,12.7,7.8,12.8,7.8,12.8L7.8,12.8z
		 M6.9,19.4c0-0.1,0-0.3,0-0.5c-0.1-1.5,0-3,0.3-4.5c0.1-0.5,0.3-1.1,0.4-1.6v-0.1l0,0c0,0-0.1,0.2-0.1,0.3l0,0c0,0.1,0,0.1,0,0.1
		s-0.1,0.3-0.1,0.4s-0.1,0.5-0.2,0.8c0,0,0,0.1,0,0.1c0,0,0,0.1,0,0.1c0,0,0,0,0,0.1C7.1,15.2,7,15.8,7,16.3
		c-0.2,1.1-0.2,2.2-0.1,3.3L6.9,19.4z M50.1,52.8c-0.1,0-0.9,0.5-2.3,1c-2.5,1-4.3,1.8-4.4,2.1c0.9-0.5,1.9-1,2.9-1.3
		c2.3-0.9,3.5-1.5,3.8-1.6h0.1L50.1,52.8L50.1,52.8z"/>
	
		<radialGradient id="SVGID_38_" cx="1884.5258" cy="3811.6936" r="18.37" gradientTransform="matrix(3.000000e-02 -0.99 -1 -3.000000e-02 3780.3401 2023.8101)" gradientUnits="userSpaceOnUse">
		<stop  offset="0" style="stop-color:#E86304"/>
		<stop  offset="1" style="stop-color:#F39900"/>
	</radialGradient>
	<path class="st36" d="M28.4,56.5L28.4,56.5 M28.4,56.3c0.2,0.4,1.7,1,5.3,0.8c1.6,0,3.2-0.4,4.5-1.2c0,0-1.2,0.5-5.3,0.7
		C29.6,56.7,28.5,56.4,28.4,56.3z M26.2,55.2c2.2,0.4,4.4,0.4,6.5,0.1c-2.4,0-4.7-0.3-7.1-0.8c-3.8-0.9-4.9-2.1-4.9-2.1
		C20.9,53,23.3,54.6,26.2,55.2z M28.7,55c1.4,0.1,2.9,0.1,4.3-0.1c-1.6,0-3.2-0.2-4.7-0.4c-1.2-0.1-2.3-0.4-3.4-0.8
		C25.1,54.3,27.1,54.8,28.7,55z M21.5,54.6c1.1,0.5,2.2,0.9,3.4,1.1c-1.4-0.5-2.8-1.1-4.1-1.8c-1.3-0.8-2.3-1.4-2.3-1.5
		C19.3,53.4,20.3,54.2,21.5,54.6L21.5,54.6z M27.5,59L27.5,59"/>
	
		<radialGradient id="SVGID_39_" cx="87.0394" cy="174.8565" r="7.23" gradientTransform="matrix(0.96 0.29 0.19 -0.63 -101.24 102.61)" gradientUnits="userSpaceOnUse">
		<stop  offset="0.49" style="stop-color:#E57F00;stop-opacity:0"/>
		<stop  offset="0.85" style="stop-color:#F0C300"/>
	</radialGradient>
	<path class="st37" d="M19.6,14.9c-0.3,0.3-0.5,0.7-0.8,1.1c-0.4,0.6-0.7,1.2-0.7,1.2c-1.1-0.8-2.3-1.3-3.6-1.6
		c-0.7-0.1-1.4-0.2-2.2-0.2C14.7,14.4,17.2,14.2,19.6,14.9z"/>
</g>
</svg>
