<?xml version="1.0" encoding="utf-8"?>
<!-- Generator: Adobe Illustrator 23.0.3, SVG Export Plug-In . SVG Version: 6.00 Build 0)  -->
<svg version="1.1" id="图层_1" xmlns="http://www.w3.org/2000/svg" xmlns:xlink="http://www.w3.org/1999/xlink" x="0px" y="0px"
	 viewBox="0 0 64 64" style="enable-background:new 0 0 64 64;" xml:space="preserve">
<style type="text/css">
	.st0{fill:#5E95E5;}
	.st1{fill:#FFFFFF;}
</style>
<title>64</title>
<g id="辅助技术">
	<g id="_64">
		<path class="st0" d="M10,4h44c3.3,0,6,2.7,6,6v44c0,3.3-2.7,6-6,6H10c-3.3,0-6-2.7-6-6V10C4,6.7,6.7,4,10,4z"/>
		<path class="st1" d="M47.5,21.1L47,21.2l-15,2.6l-14.9-2.7c-0.4-0.2-0.9-0.2-1.4,0c-0.4,0.3-0.7,0.7-0.7,1.2
			c0,0.5,0.3,0.9,0.7,1.1L27,27.4v9l-3.8,13.5c-0.4,0.6-0.3,1.4,0.3,1.8l0,0c0.6,0.4,1.4,0.3,1.8-0.3c0,0,0,0,0,0L32,36.9l6.5,14.5
			c0.4,0.6,1.2,0.7,1.8,0.3c0,0,0,0,0,0c0.5-0.4,0.7-1,0.4-1.6L37,36.5v-8.9l11.4-4.2c0.5-0.3,0.7-1,0.5-1.5
			C48.7,21.4,48.2,21.1,47.5,21.1L47.5,21.1z"/>
		<path class="st1" d="M37,17.1c-0.1,2.8-2.3,4.9-5.1,4.9c-2.8-0.1-4.9-2.3-4.9-5.1c0.1-2.7,2.3-4.9,5-4.9C34.8,12,37,14.3,37,17.1z
			"/>
	</g>
</g>
</svg>
