<?xml version="1.0" encoding="utf-8"?>
<!-- Generator: Adobe Illustrator 23.0.3, SVG Export Plug-In . SVG Version: 6.00 Build 0)  -->
<svg version="1.1" id="计算机" xmlns="http://www.w3.org/2000/svg" xmlns:xlink="http://www.w3.org/1999/xlink" x="0px" y="0px"
	 viewBox="0 0 256 256" style="enable-background:new 0 0 256 256;" xml:space="preserve">
<style type="text/css">
	.st0{fill:#4FC4F7;}
	.st1{fill:#2B383D;}
	.st2{fill:#455A64;}
	.st3{fill:#90A4AE;}
	.st4{fill:#84D6F9;}
</style>
<title>256</title>
<g id="_256">
	<path class="st0" d="M34,42h188c5.5,0,10,4.5,10,10v125c0,5.5-4.5,10-10,10H34c-5.5,0-10-4.5-10-10V52C24,46.5,28.5,42,34,42z"/>
	<path class="st1" d="M222,48c2.2,0,4,1.8,4,4v125c0,2.2-1.8,4-4,4H34c-2.2,0-4-1.8-4-4V52c0-2.2,1.8-4,4-4H222 M222,36H34
		c-8.8,0-16,7.2-16,16v125c0,8.8,7.2,16,16,16h188c8.8,0,16-7.2,16-16V52C238,43.2,230.8,36,222,36z"/>
	<polygon class="st2" points="165,214 144,214 144,193 112,193 112,214 91,214 73,230 183,230 	"/>
	<rect x="73" y="230" class="st3" width="110" height="8"/>
	<path class="st4" d="M148,48h72c3.3,0,6,2.7,6,6v121c0,3.3-2.7,6-6,6H108L148,48z"/>
</g>
</svg>
