<?xml version="1.0" encoding="utf-8"?>
<!-- Generator: Adobe Illustrator 23.0.3, SVG Export Plug-In . SVG Version: 6.00 Build 0)  -->
<svg version="1.1" id="鼠标" xmlns="http://www.w3.org/2000/svg" xmlns:xlink="http://www.w3.org/1999/xlink" x="0px" y="0px"
	 viewBox="0 0 256 256" style="enable-background:new 0 0 256 256;" xml:space="preserve">
<style type="text/css">
	.st0{fill:#ADADAD;}
	.st1{fill:#E6E6E6;}
	.st2{clip-path:url(#SVGID_2_);}
	.st3{fill:#4D4D4D;}
	.st4{fill:#FFFFFF;}
</style>
<title>256</title>
<g id="_256">
	<path class="st0" d="M128,14L128,14c43.6,0,79,35.4,79,79v70c0,43.6-35.4,79-79,79l0,0c-43.6,0-79-35.4-79-79V93
		C49,49.4,84.4,14,128,14z"/>
	<path class="st1" d="M127.7,19h0.6c36.3,0,65.7,29.4,65.7,65.7v68.6c0,36.3-29.4,65.7-65.7,65.7h-0.6C91.4,219,62,189.6,62,153.3
		V84.7C62,48.4,91.4,19,127.7,19z"/>
	<g>
		<defs>
			<path id="SVGID_1_" d="M128,14L128,14c43.8,0,79.2,35.5,79.2,79.2v69.6c0,43.8-35.5,79.2-79.2,79.2l0,0
				c-43.8,0-79.2-35.5-79.2-79.2V93.2C48.8,49.5,84.2,14,128,14z"/>
		</defs>
		<clipPath id="SVGID_2_">
			<use xlink:href="#SVGID_1_"  style="overflow:visible;"/>
		</clipPath>
		<g class="st2">
			<path class="st3" d="M147,13c0,65.7,0,158-19,158s-19-92.3-19-158"/>
		</g>
	</g>
	<path class="st4" d="M128,41L128,41c4.4,0,8,3.6,8,8v30c0,4.4-3.6,8-8,8l0,0c-4.4,0-8-3.6-8-8V49C120,44.6,123.6,41,128,41z"/>
</g>
</svg>
