<?xml version="1.0" encoding="utf-8"?>
<!-- Generator: Adobe Illustrator 23.0.3, SVG Export Plug-In . SVG Version: 6.00 Build 0)  -->
<svg version="1.1" id="打印机" xmlns="http://www.w3.org/2000/svg" xmlns:xlink="http://www.w3.org/1999/xlink" x="0px" y="0px"
	 viewBox="0 0 256 256" style="enable-background:new 0 0 256 256;" xml:space="preserve">
<style type="text/css">
	.st0{fill:#64798A;}
	.st1{fill:#3A556A;}
	.st2{fill:#ECECDE;}
	.st3{fill:#3FC59B;}
	.st4{fill:#CECDBC;}
	.st5{fill:#8F9396;}
</style>
<title>256</title>
<g id="_256">
	<path class="st0" d="M42,63h172c13.3,0,24,10.7,24,24v42H18V87C18,73.7,28.7,63,42,63z"/>
	<path class="st1" d="M18,128h220v42c0,13.3-10.7,24-24,24H42c-13.3,0-24-10.7-24-24V128z"/>
	<rect x="51" y="87" class="st1" width="154" height="23"/>
	<rect x="51" y="194" class="st1" width="154" height="44"/>
	<rect x="63" y="161" class="st2" width="130" height="65"/>
	<circle class="st3" cx="215" cy="145" r="9"/>
	<polygon class="st2" points="169,42 169,18 63,18 63,96 193,96 193,42 	"/>
	<polygon class="st4" points="193,42 169,18 169,42 	"/>
	<rect x="89" y="28" class="st5" width="78" height="8"/>
	<rect x="89" y="51.6" class="st5" width="78" height="8"/>
	<rect x="89" y="75.1" class="st5" width="78" height="8"/>
</g>
</svg>
