<?xml version="1.0" encoding="utf-8"?>
<!-- Generator: Adobe Illustrator 23.0.3, SVG Export Plug-In . SVG Version: 6.00 Build 0)  -->
<svg version="1.1" id="计算机" xmlns="http://www.w3.org/2000/svg" xmlns:xlink="http://www.w3.org/1999/xlink" x="0px" y="0px"
	 viewBox="0 0 96 96" style="enable-background:new 0 0 96 96;" xml:space="preserve">
<style type="text/css">
	.st0{fill:#4FC4F7;}
	.st1{fill:#2B383D;}
	.st2{fill:#455A64;}
	.st3{fill:#90A4AE;}
	.st4{fill:#84D6F9;}
</style>
<title>96</title>
<g id="_96">
	<path class="st0" d="M12,15h72c2.2,0,4,1.8,4,4v48c0,2.2-1.8,4-4,4H12c-2.2,0-4-1.8-4-4V19C8,16.8,9.8,15,12,15z"/>
	<path class="st1" d="M84,17c1.1,0,2,0.9,2,2v48c0,1.1-0.9,2-2,2H12c-1.1,0-2-0.9-2-2V19c0-1.1,0.9-2,2-2H84 M84,13H12
		c-3.3,0-6,2.7-6,6v48c0,3.3,2.7,6,6,6h72c3.3,0,6-2.7,6-6V19C90,15.7,87.3,13,84,13z"/>
	<polygon class="st2" points="63,81 54,81 54,73 42,73 42,81 34,81 27,87 70,87 	"/>
	<rect x="27" y="87" class="st3" width="43" height="3"/>
	<path class="st4" d="M56,17h28c1.1,0,2,0.9,2,2v48c0,1.1-0.9,2-2,2H41L56,17z"/>
</g>
</svg>
