<?xml version="1.0" encoding="utf-8"?>
<!-- Generator: Adobe Illustrator 23.0.3, SVG Export Plug-In . SVG Version: 6.00 Build 0)  -->
<svg version="1.1" id="扫描易" xmlns="http://www.w3.org/2000/svg" xmlns:xlink="http://www.w3.org/1999/xlink" x="0px" y="0px"
	 viewBox="0 0 96 96" style="enable-background:new 0 0 96 96;" xml:space="preserve">
<style type="text/css">
	.st0{fill:#ECECEC;}
	.st1{fill:#5B6C74;}
	.st2{fill:#515151;}
	.st3{fill:#6CA524;}
	.st4{fill:#13BFD7;}
	.st5{fill:#E0E0E0;}
</style>
<title>96</title>
<g id="_96">
	<polygon class="st0" points="8.2,74.5 22,38.5 74,38.5 87.8,74.5 	"/>
	<path class="st1" d="M72.9,40l12.7,33H10.4l12.7-33H72.9 M75,37H21L6,76h84L75,37z"/>
	<path class="st2" d="M81,90H15c-5,0-9-4-9-9v-5h84v5C90,86,86,90,81,90z"/>
	<rect x="76" y="79" class="st3" width="6" height="6"/>
	<polygon class="st4" points="27,40 16,70 80,70 69,40 	"/>
	<polygon class="st5" points="8.2,58.5 22,22.5 74,22.5 87.8,58.5 	"/>
	<path class="st1" d="M72.9,24l12.7,33H10.4l12.7-33H72.9 M75,21H21L6,60h84L75,21z"/>
</g>
</svg>
