<?xml version="1.0" encoding="utf-8"?>
<!-- Generator: Adobe Illustrator 23.0.3, SVG Export Plug-In . SVG Version: 6.00 Build 0)  -->
<svg version="1.1" id="火狐" xmlns="http://www.w3.org/2000/svg" xmlns:xlink="http://www.w3.org/1999/xlink" x="0px" y="0px"
	 viewBox="0 0 48 48" style="enable-background:new 0 0 48 48;" xml:space="preserve">
<style type="text/css">
	.st0{fill:url(#SVGID_1_);}
	.st1{fill:url(#SVGID_2_);}
	.st2{fill:url(#SVGID_3_);}
	.st3{fill:url(#SVGID_4_);}
	.st4{fill:url(#SVGID_5_);}
	.st5{fill:url(#SVGID_6_);}
	.st6{fill:url(#SVGID_7_);}
	.st7{fill:url(#SVGID_8_);}
	.st8{fill:url(#SVGID_9_);}
	.st9{fill:url(#SVGID_10_);}
	.st10{clip-path:url(#SVGID_12_);}
	.st11{opacity:0.6;fill:url(#SVGID_13_);enable-background:new    ;}
	.st12{fill:url(#SVGID_14_);}
	.st13{fill:url(#SVGID_15_);}
	.st14{fill:url(#SVGID_16_);}
	.st15{fill:url(#SVGID_17_);}
	.st16{fill:url(#SVGID_18_);}
	.st17{fill:url(#SVGID_19_);}
	.st18{fill:url(#SVGID_20_);}
	.st19{fill:url(#SVGID_21_);}
	.st20{fill:url(#SVGID_22_);}
	.st21{fill:url(#SVGID_23_);}
	.st22{fill:url(#SVGID_24_);}
	.st23{fill:url(#SVGID_25_);}
	.st24{fill:url(#SVGID_26_);}
	.st25{fill:url(#SVGID_27_);}
	.st26{fill:url(#SVGID_28_);}
	.st27{fill:url(#SVGID_29_);}
	.st28{fill:url(#SVGID_30_);}
	.st29{fill:url(#SVGID_31_);}
	.st30{opacity:0.1;fill:url(#SVGID_32_);enable-background:new    ;}
	.st31{opacity:0.5;fill:url(#SVGID_33_);enable-background:new    ;}
	.st32{opacity:0.5;fill:url(#SVGID_34_);enable-background:new    ;}
	.st33{opacity:0.5;fill:url(#SVGID_35_);enable-background:new    ;}
	.st34{fill:url(#SVGID_36_);}
	.st35{opacity:0.1;fill:url(#SVGID_37_);enable-background:new    ;}
</style>
<title>48</title>
<g id="_48">
	
		<linearGradient id="SVGID_1_" gradientUnits="userSpaceOnUse" x1="30.9774" y1="125.7371" x2="29.1674" y2="121.0971" gradientTransform="matrix(1 0 0 1 -22.54 -111.46)">
		<stop  offset="1.000000e-02" style="stop-color:#9B1418"/>
		<stop  offset="0.47" style="stop-color:#E15D0A"/>
		<stop  offset="1" style="stop-color:#F0C055"/>
	</linearGradient>
	<path class="st0" d="M8.6,10c-0.1-0.1-0.1,0.2-0.1,0.1C8.1,9.4,7.9,8.7,7.9,7.9C7.4,8.2,7.1,8.7,7,9.3c0,0.1-0.1,0.3-0.2,0.4
		c0,0,0-0.3,0-0.3C6.7,9.5,6.6,9.7,6.5,9.9c-0.1,0.2-0.1,0.3-0.2,0.5c0,0.1,0-0.3,0-0.2c-0.6,1.6-0.8,3.3-0.6,4.9
		c1.5-1.2,3.1-2.2,4.8-3.1C9.8,11.5,9.1,10.8,8.6,10z"/>
	
		<linearGradient id="SVGID_2_" gradientUnits="userSpaceOnUse" x1="903.381" y1="-1300.8726" x2="903.381" y2="-1281.8726" gradientTransform="matrix(0.97 0.25 -0.25 0.97 -1193.09 1046.8201)">
		<stop  offset="6.000000e-02" style="stop-color:#DC7305"/>
		<stop  offset="1" style="stop-color:#EDC285"/>
	</linearGradient>
	<path class="st1" d="M3.4,27.7c0-0.3,0.8-6.9,4-9.2c2.7-1.9,0.6-1.2-0.4-1.1c-0.5,0.1-1,0.2-1.5,0.5l0,0
		C5.4,17.9,2.8,19.9,3.4,27.7z"/>
	
		<linearGradient id="SVGID_3_" gradientUnits="userSpaceOnUse" x1="9.3879" y1="166.1676" x2="2.9379" y2="176.6776" gradientTransform="matrix(0.99 -8.000000e-02 9.000000e-02 1.17 -16.78 -177.65)">
		<stop  offset="6.000000e-02" style="stop-color:#DC7305"/>
		<stop  offset="1" style="stop-color:#EDC261"/>
	</linearGradient>
	<path class="st2" d="M3,22.5c0,0,1.8-5.7,5.6-5.7c2.5,0,0.5-2-0.2-2.4s-1-0.3-1.2-0.1S4.4,14.5,3,22.5z"/>
	
		<radialGradient id="SVGID_4_" cx="319.5288" cy="257.6038" r="10.53" gradientTransform="matrix(0.72 0 0 0.71 -193.94 -176.85)" gradientUnits="userSpaceOnUse">
		<stop  offset="0.26" style="stop-color:#FFE700"/>
		<stop  offset="0.34" style="stop-color:#FADD00"/>
		<stop  offset="0.47" style="stop-color:#F8CE00"/>
		<stop  offset="0.64" style="stop-color:#ECAA00"/>
		<stop  offset="0.85" style="stop-color:#E37B04"/>
		<stop  offset="1" style="stop-color:#DC570E"/>
	</radialGradient>
	<path class="st3" d="M37.1,8.1c1.2,0.6,2.2,1.5,2.9,2.6c0.9,1.4,0.5,3.4-0.3,3S37.1,8.1,37.1,8.1z"/>
	
		<radialGradient id="SVGID_5_" cx="323.5288" cy="265.7238" r="5.5" gradientTransform="matrix(0.72 0 0 0.71 -193.94 -176.85)" gradientUnits="userSpaceOnUse">
		<stop  offset="0.13" style="stop-color:#9B1418"/>
		<stop  offset="0.34" style="stop-color:#A42218"/>
		<stop  offset="0.73" style="stop-color:#C63A1A"/>
		<stop  offset="1" style="stop-color:#DB530F"/>
	</radialGradient>
	<path class="st4" d="M40.1,14c0.5-3.7-3-5.9-3-5.9s0.2,1.3,0.5,4.1C37.9,15.4,39.9,15.7,40.1,14z"/>
	
		<radialGradient id="SVGID_6_" cx="316.4789" cy="305.7538" r="4.89" gradientTransform="matrix(0.72 0 0 0.71 -193.94 -176.85)" gradientUnits="userSpaceOnUse">
		<stop  offset="0" style="stop-color:#47100E"/>
		<stop  offset="7.000000e-02" style="stop-color:#581010"/>
		<stop  offset="0.27" style="stop-color:#821214"/>
		<stop  offset="0.45" style="stop-color:#9F1217"/>
		<stop  offset="0.6" style="stop-color:#B21319"/>
		<stop  offset="0.71" style="stop-color:#B8131A"/>
		<stop  offset="1" style="stop-color:#B1121B"/>
	</radialGradient>
	<path class="st5" d="M28.3,42.3c6.3,1.3,11.2-3.9,7.7-5.2C32.9,36,25.3,41.7,28.3,42.3z"/>
	
		<radialGradient id="SVGID_7_" cx="70.06" cy="-568.22" r="5.41" gradientTransform="matrix(1 0 0 -1 0 50)" gradientUnits="userSpaceOnUse">
		<stop  offset="0.13" style="stop-color:#9B1418"/>
		<stop  offset="0.34" style="stop-color:#A42218"/>
		<stop  offset="0.73" style="stop-color:#C63A1A"/>
		<stop  offset="1" style="stop-color:#DB530F"/>
	</radialGradient>
	<path class="st6" d="M36.6,37.3c6.3-1.4,8.5-8.1,4.9-7.9C38.1,29.7,33.6,38,36.6,37.3z"/>
	
		<radialGradient id="SVGID_8_" cx="72.71" cy="-584.12" r="4.89" gradientTransform="matrix(1 0 0 -1 0 50)" gradientUnits="userSpaceOnUse">
		<stop  offset="0.13" style="stop-color:#9B1418"/>
		<stop  offset="0.34" style="stop-color:#A42218"/>
		<stop  offset="0.73" style="stop-color:#C63A1A"/>
		<stop  offset="1" style="stop-color:#DB530F"/>
	</radialGradient>
	<path class="st7" d="M42.2,26.9c4.2-2.9,2.2-8.2,2.2-8.2s-0.9,2.7-1.8,5.9S39.7,28.6,42.2,26.9z"/>
	
		<radialGradient id="SVGID_9_" cx="327.1489" cy="268.8838" r="6.11" gradientTransform="matrix(0.72 0 0 0.71 -193.94 -176.85)" gradientUnits="userSpaceOnUse">
		<stop  offset="0" style="stop-color:#9B1418"/>
		<stop  offset="0.64" style="stop-color:#C53819"/>
		<stop  offset="1" style="stop-color:#DB530F"/>
	</radialGradient>
	<path class="st8" d="M43.5,17.7c-0.2-2.9-1.5-5.7-3.6-7.7c0,0,0.3,1.7,0.8,4.1C41.1,17.3,43.7,20.7,43.5,17.7z"/>
	
		<radialGradient id="SVGID_10_" cx="372.647" cy="291.8313" r="54.15" gradientTransform="matrix(0.68 0 0 0.63 -229.55 -178.72)" gradientUnits="userSpaceOnUse">
		<stop  offset="0" style="stop-color:#62C1EE"/>
		<stop  offset="8.000000e-02" style="stop-color:#52B8E9"/>
		<stop  offset="0.18" style="stop-color:#00A3DC"/>
		<stop  offset="0.38" style="stop-color:#0271B5"/>
		<stop  offset="0.5" style="stop-color:#004A90"/>
		<stop  offset="0.75" style="stop-color:#0E1D50"/>
	</radialGradient>
	<path class="st9" d="M23.9,43.4c11,0.1,20-8.7,20.1-19.7c0,0,0,0,0,0C43.9,12.7,34.9,3.9,23.9,4c0,0,0,0,0,0
		c-11-0.1-20,8.7-20.1,19.7c0,0,0,0,0,0C3.9,34.7,12.9,43.5,23.9,43.4z"/>
	<g>
		<defs>
			<path id="SVGID_11_" d="M23.9,43.4c11,0.1,20-8.7,20.1-19.7C43.9,12.7,34.9,3.9,23.9,4c-11-0.1-20,8.7-20.1,19.7
				C3.9,34.7,12.9,43.5,23.9,43.4C23.9,43.4,23.9,43.4,23.9,43.4z"/>
		</defs>
		<clipPath id="SVGID_12_">
			<use xlink:href="#SVGID_11_"  style="overflow:visible;"/>
		</clipPath>
		<g class="st10">
			
				<radialGradient id="SVGID_13_" cx="305.1489" cy="268.7271" r="31.52" gradientTransform="matrix(0.72 0 0 0.7 -193.94 -180.66)" gradientUnits="userSpaceOnUse">
				<stop  offset="0.13" style="stop-color:#099CD9"/>
				<stop  offset="0.19" style="stop-color:#0894D2"/>
				<stop  offset="0.29" style="stop-color:#047EC0"/>
				<stop  offset="0.33" style="stop-color:#0271B5"/>
				<stop  offset="0.44" style="stop-color:#0561A3"/>
				<stop  offset="0.65" style="stop-color:#003B75"/>
				<stop  offset="0.86" style="stop-color:#0E1D50"/>
			</radialGradient>
			<path class="st11" d="M39.1,36.3c1.2-2.1,2.7-3.4,3.6-4.8c1.1-2,3.3-7.4,1.7-11.9c0.7,2.8,0.5,5.6-1.8,7c1-3.3,1.1-6.8,0.5-10.1
				c-0.4-2.1-1.5-4.1-3.2-5.5c1,0.7,1.7,3.2,1.7,4.4c-2.3-3.8-6-6.6-10.3-7.8c3.9,2.5,5.3,4.6,6.2,6.5c-1.1-1.1-2.5-1.9-4-2.2
				c1.8,1.3,4.8,5.2,4.5,11c-0.5-1-1.1-2-1.9-2.9c0.6,5.8,0.1,7-0.3,8.5c-0.1-0.5-0.2-1.1-0.5-1.5c-0.2,1.5-0.6,3-1.3,4.4
				c-0.9,1.9-1.8,2.5-2.2,2.5s-0.1-0.4-0.2-0.7c-0.5,0.2-0.9,0.5-1.2,0.9c-0.6,0.6-1.1,1.3-1.4,1.1c0.2-0.2,0.4-0.4,0.5-0.7
				c-0.6,0.4-1.4,0.7-2.1,0.8c-2,0.3-4.1,0-5.8-1C22,34,22.5,34,23,34.2c-0.5-0.5-1.7-0.4-2.6-0.7c-0.9-0.5-1.7-1.1-2.3-1.8
				c2.1,0.6,4.3,0.3,6.2-0.8c1.4-1,2.3-1.7,3.1-1.5s1.3-0.6,0.7-1.3c-1-1.1-2.6-1.5-4-1.1c-1.7,0.4-3.1,1.9-5.7,0.3
				c-2.2-1.3-2.2-2.3-2.2-3c0-0.6,0.3-1.1,0.8-1.4c0.2,0.1,0.3,0.1,0.5,0.2c-0.1-0.1-0.1-0.2-0.2-0.3h0.1c0.3,0.1,0.7,0.3,1,0.4
				c0.2,0.1,0.4,0.2,0.5,0.4c0,0,0.1,0,0-0.2c-0.1-0.2-0.3-0.4-0.5-0.5l0,0c0.2,0.1,0.4,0.2,0.6,0.3c0.1-0.4,0.2-0.9,0.1-1.3
				c-0.1-0.4-0.1-0.5-0.2-0.6s0-0.2,0.2-0.1c0-0.1-0.1-0.2-0.1-0.3l0,0c0.1-0.5,3.1-2,3.4-2.2c0.3-0.3,0.6-0.6,0.8-1
				c0.2-0.4,0.3-0.8,0.2-1.1c0-0.4-0.3-0.6-3.5-0.6c-0.7,0-1.4-0.4-1.8-1l-0.2-0.3c-0.1-0.1-0.1-0.3-0.2-0.3
				c0.4-1.4,1.2-2.6,2.4-3.5c0.1-0.1-0.3,0-0.2,0c0.2-0.1,0.5-0.3,0.7-0.4c0.1-0.1-0.6-0.3-1.1-0.1c-0.4,0.1-0.7,0.2-1,0.3
				c0.1-0.1,0.5-0.3,0.4-0.3c-0.7,0.2-1.4,0.6-2,1c0-0.1,0-0.1,0-0.2c-0.5,0.3-0.9,0.6-1.2,1.1c0-0.1,0-0.2,0-0.2
				c-0.2,0.2-0.4,0.4-0.6,0.6l0,0c-1.6-0.4-3.2-0.4-4.8,0.1C9.5,12.3,9,11.7,8.6,11c-0.1-0.1-0.1,0.2-0.1,0.1
				c-0.4-0.7-0.6-1.4-0.6-2.2C7.4,9.2,7.1,9.7,7,10.2c0,0.1-0.1,0.3-0.2,0.4c0,0,0-0.3,0-0.3c-0.1,0.2-0.2,0.4-0.3,0.6
				c-0.1,0.2-0.1,0.3-0.2,0.5l0,0c0-0.1,0-0.3,0-0.2c-0.2,0.4-0.3,0.9-0.4,1.3c-0.2,1.1-0.3,2.2-0.2,3.3c0,0.1,0,0.2,0,0.3
				c-0.4,0.5-0.7,1-1,1.6c-0.9,1.8-1.5,3.8-1.8,5.8c0.3-0.8,0.6-1.5,1-2.3c-0.7,2.4-0.9,4.9-0.7,7.4c0.1-0.7,0.2-1.5,0.4-2.2
				c0.2,3,1,5.8,2.6,8.4c1.4,2.4,5.2,7.9,14.6,10c-0.6-0.2-1.2-0.5-1.7-0.9c2,0.6,4,1,6.1,1c-0.8-0.1-1-0.5-1-0.5s9.1,0.5,12.3-3.7
				c-1.1,1.2-3.8,1.6-4.8,1.6c1.6-1.4,5-1.4,8.8-5c1.4-1.3,2.3-3,2.5-4.9C42.8,34.2,41,35.3,39.1,36.3z"/>
		</g>
	</g>
	
		<radialGradient id="SVGID_14_" cx="315.6489" cy="270.2271" r="53.06" gradientTransform="matrix(0.72 0 0 0.7 -193.94 -180.66)" gradientUnits="userSpaceOnUse">
		<stop  offset="0.12" style="stop-color:#FFFFFF"/>
		<stop  offset="0.12" style="stop-color:#FFFFFC"/>
		<stop  offset="0.25" style="stop-color:#FFE950"/>
		<stop  offset="0.28" style="stop-color:#FDE547"/>
		<stop  offset="0.33" style="stop-color:#F8D92D"/>
		<stop  offset="0.4" style="stop-color:#F1C504"/>
		<stop  offset="0.41" style="stop-color:#F0C300"/>
		<stop  offset="0.45" style="stop-color:#EDAF00"/>
		<stop  offset="0.55" style="stop-color:#E57F00"/>
		<stop  offset="0.76" style="stop-color:#DB510F"/>
		<stop  offset="0.87" style="stop-color:#CB3715"/>
		<stop  offset="1" style="stop-color:#B5141E"/>
	</radialGradient>
	<path class="st12" d="M39.2,35.4c1.2-2.1,2.7-3.4,3.6-4.8c1.1-2,3.3-7.5,1.7-11.9c0.7,2.8,0.5,5.6-1.8,7c1-3.3,1.1-6.8,0.4-10.1
		c-0.4-2.1-1.5-4-3.2-5.5c1,0.7,1.7,3.3,1.7,4.4c-2.3-3.9-6-6.7-10.3-7.8c3.9,2.5,5.3,4.6,6.2,6.5c-1.1-1.1-2.5-1.9-4-2.2
		c1.8,1.3,4.8,5.2,4.5,11c-0.5-1.1-1.1-2.1-1.9-2.9c0.6,5.8,0.1,7-0.3,8.5c-0.1-0.5-0.2-1.1-0.5-1.5c-0.2,1.5-0.6,3-1.3,4.4
		c-0.9,1.9-1.8,2.5-2.3,2.5c-0.1,0-0.1,0-0.2-0.1c0.1-0.2,0.1-0.5,0-0.7c-0.2,0.1-0.5,0.3-0.6,0.5c-0.1,0.2-0.2,0.3-0.4,0.4
		c0,0,0.3-0.4,0.3-0.4c-0.2,0.1-0.3,0.3-0.5,0.4c-0.6,0.6-1.1,1.3-1.4,1.1c0.3-0.1,0.5-0.4,0.5-0.7c-0.6,0.4-1.4,0.7-2.1,0.8
		c-2,0.3-4.1,0-5.9-1c0.5-0.1,1.1-0.1,1.6,0.1c-0.5-0.5-1.7-0.4-2.6-0.7c-0.9-0.5-1.7-1.1-2.3-1.8c2.1,0.6,4.3,0.3,6.3-0.8
		c1.5-1,2.3-1.7,3.1-1.5s1.3-0.6,0.7-1.3c-1-1.1-2.6-1.5-4-1.1c-1.5,0.4-2.8,1.5-4.9,0.7l-0.4-0.2c-0.1-0.1,0.4,0.1,0.3,0
		c-0.5-0.2-0.9-0.4-1.3-0.6c0,0,0.3,0.1,0.3,0c-2-1.2-1.9-2.1-1.9-2.7c0-0.6,0.3-1.1,0.8-1.4c0.2,0.1,0.3,0.1,0.5,0.2
		c-0.1-0.1-0.1-0.2-0.2-0.3h0.1c0.2,0.1,0.8,0.3,1,0.4c0.2,0.1,0.4,0.2,0.5,0.4c0,0,0.1,0,0-0.2c-0.1-0.2-0.3-0.4-0.5-0.5l0,0
		c0.2,0.1,0.4,0.2,0.6,0.3c0.2-0.4,0.2-0.8,0.2-1.2c-0.1-0.4-0.1-0.5-0.2-0.7s0-0.2,0.2-0.1c0-0.1-0.1-0.2-0.1-0.3l0,0
		c0.1-0.5,3.1-2,3.4-2.2c0.3-0.3,0.6-0.6,0.8-1c0.2-0.4,0.3-0.8,0.2-1.1c0-0.4-0.3-0.6-3.5-0.6c-0.7,0-1.4-0.4-1.8-1l-0.2-0.3
		c-0.1-0.1-0.1-0.3-0.2-0.4c0.4-1.4,1.2-2.6,2.4-3.5c0.1-0.1-0.3,0-0.2,0c0.2-0.1,0.5-0.3,0.7-0.4c0.1-0.1-0.6-0.2-1.1-0.1
		c-0.4,0.1-0.7,0.2-1,0.3c0.1-0.1,0.5-0.3,0.4-0.3c-0.7,0.2-1.4,0.6-2,1c0-0.1,0-0.1,0-0.2c-0.5,0.3-0.9,0.6-1.2,1.1
		c0-0.1,0-0.2,0-0.2c-0.2,0.2-0.4,0.4-0.6,0.6l0,0c-1.6-0.4-3.3-0.4-4.8,0.1C9.5,11.4,9,10.7,8.6,10c-0.1-0.1-0.1,0.2-0.1,0.1
		C8.1,9.4,7.9,8.7,7.9,7.9C7.4,8.2,7.1,8.7,7,9.3c0,0.1-0.1,0.3-0.2,0.4c0,0,0-0.3,0-0.3C6.7,9.5,6.6,9.7,6.5,9.9
		c-0.1,0.2-0.1,0.3-0.1,0.5l0,0c0,0,0-0.3,0-0.2c-0.2,0.4-0.3,0.9-0.4,1.3c-0.2,1.1-0.3,2.2-0.2,3.3c0,0.1,0,0.2,0,0.3
		c-0.4,0.5-0.7,1-1,1.6c-0.9,1.8-1.5,3.8-1.8,5.8c0.3-0.8,0.6-1.5,1-2.3c-0.7,2.4-0.9,4.9-0.7,7.4c0.1-0.7,0.2-1.5,0.4-2.2
		c0.2,3,1,5.8,2.6,8.4c1.4,2.4,5.2,7.9,14.6,10c-0.6-0.2-1.1-0.4-1.6-0.8c2,0.6,4,0.9,6.1,1c-0.8-0.1-1-0.5-1-0.5s9.1,0.5,12.3-3.7
		c-1.1,1.2-3.8,1.6-4.9,1.6c1.6-1.4,5.1-1.4,8.8-5c1.4-1.3,2.3-3,2.5-4.9C42.9,33.3,41.1,34.4,39.2,35.4z"/>
	
		<radialGradient id="SVGID_15_" cx="306.6789" cy="286.0599" r="39.44" gradientTransform="matrix(0.72 0 0 0.69 -193.94 -178.93)" gradientUnits="userSpaceOnUse">
		<stop  offset="0.66" style="stop-color:#B5141E;stop-opacity:0"/>
		<stop  offset="0.76" style="stop-color:#B5141E;stop-opacity:1.000000e-02"/>
		<stop  offset="0.81" style="stop-color:#B5141E;stop-opacity:5.000000e-02"/>
		<stop  offset="0.85" style="stop-color:#B5141E;stop-opacity:0.12"/>
		<stop  offset="0.88" style="stop-color:#B6141D;stop-opacity:0.22"/>
		<stop  offset="0.91" style="stop-color:#B6141D;stop-opacity:0.35"/>
		<stop  offset="0.93" style="stop-color:#B7131C;stop-opacity:0.51"/>
		<stop  offset="0.96" style="stop-color:#B7131B;stop-opacity:0.7"/>
		<stop  offset="0.98" style="stop-color:#B8131A;stop-opacity:0.92"/>
		<stop  offset="0.98" style="stop-color:#B8131A"/>
	</radialGradient>
	<path class="st13" d="M39.2,35.4c1.2-2.1,2.7-3.4,3.6-4.8c1.1-2,3.3-7.5,1.7-11.9c0.7,2.8,0.5,5.6-1.8,7c1-3.3,1.1-6.8,0.4-10.1
		c-0.4-2.1-1.5-4-3.2-5.5c1,0.7,1.7,3.3,1.7,4.4c-2.3-3.9-6-6.7-10.3-7.8c3.9,2.5,5.3,4.6,6.2,6.5c-1.1-1.1-2.5-1.9-4-2.2
		c1.8,1.3,4.8,5.2,4.5,11c-0.5-1.1-1.1-2.1-1.9-2.9c0.6,5.8,0.1,7-0.3,8.5c-0.1-0.5-0.2-1.1-0.5-1.5c-0.2,1.5-0.6,3-1.3,4.4
		c-0.9,1.9-1.8,2.5-2.3,2.5c-0.1,0-0.1,0-0.2-0.1c0.1-0.2,0.1-0.5,0-0.7c-0.2,0.1-0.5,0.3-0.6,0.5c-0.1,0.2-0.2,0.3-0.4,0.4
		c0,0,0.3-0.4,0.3-0.4c-0.2,0.1-0.3,0.3-0.5,0.4c-0.6,0.6-1.1,1.3-1.4,1.1c0.3-0.1,0.5-0.4,0.5-0.7c-0.6,0.4-1.4,0.7-2.1,0.8
		c-2,0.3-4.1,0-5.9-1c0.5-0.1,1.1-0.1,1.6,0.1c-0.5-0.5-1.7-0.4-2.6-0.7c-0.9-0.5-1.7-1.1-2.3-1.8c2.1,0.6,4.3,0.3,6.3-0.8
		c1.5-1,2.3-1.7,3.1-1.5s1.3-0.6,0.7-1.3c-1-1.1-2.6-1.5-4-1.1c-1.5,0.4-2.8,1.5-4.9,0.7l-0.4-0.2c-0.1-0.1,0.4,0.1,0.3,0
		c-0.5-0.2-0.9-0.4-1.3-0.6c0,0,0.3,0.1,0.3,0c-2-1.2-1.9-2.1-1.9-2.7c0-0.6,0.3-1.1,0.8-1.4c0.2,0.1,0.3,0.1,0.5,0.2
		c-0.1-0.1-0.1-0.2-0.2-0.3h0.1c0.2,0.1,0.8,0.3,1,0.4c0.2,0.1,0.4,0.2,0.5,0.4c0,0,0.1,0,0-0.2c-0.1-0.2-0.3-0.4-0.5-0.5l0,0
		c0.2,0.1,0.4,0.2,0.6,0.3c0.2-0.4,0.2-0.8,0.2-1.2c-0.1-0.4-0.1-0.5-0.2-0.7s0-0.2,0.2-0.1c0-0.1-0.1-0.2-0.1-0.3l0,0
		c0.1-0.5,3.1-2,3.4-2.2c0.3-0.3,0.6-0.6,0.8-1c0.2-0.4,0.3-0.8,0.2-1.1c0-0.4-0.3-0.6-3.5-0.6c-0.7,0-1.4-0.4-1.8-1l-0.2-0.3
		c-0.1-0.1-0.1-0.3-0.2-0.4c0.4-1.4,1.2-2.6,2.4-3.5c0.1-0.1-0.3,0-0.2,0c0.2-0.1,0.5-0.3,0.7-0.4c0.1-0.1-0.6-0.2-1.1-0.1
		c-0.4,0.1-0.7,0.2-1,0.3c0.1-0.1,0.5-0.3,0.4-0.3c-0.7,0.2-1.4,0.6-2,1c0-0.1,0-0.1,0-0.2c-0.5,0.3-0.9,0.6-1.2,1.1
		c0-0.1,0-0.2,0-0.2c-0.2,0.2-0.4,0.4-0.6,0.6l0,0c-1.6-0.4-3.3-0.4-4.8,0.1C9.5,11.4,9,10.7,8.6,10c-0.1-0.1-0.1,0.2-0.1,0.1
		C8.1,9.4,7.9,8.7,7.9,7.9C7.4,8.2,7.1,8.7,7,9.3c0,0.1-0.1,0.3-0.2,0.4c0,0,0-0.3,0-0.3C6.7,9.5,6.6,9.7,6.5,9.9
		c-0.1,0.2-0.1,0.3-0.1,0.5l0,0c0,0,0-0.3,0-0.2c-0.2,0.4-0.3,0.9-0.4,1.3c-0.2,1.1-0.3,2.2-0.2,3.3c0,0.1,0,0.2,0,0.3
		c-0.4,0.5-0.7,1-1,1.6c-0.9,1.8-1.5,3.8-1.8,5.8c0.3-0.8,0.6-1.5,1-2.3c-0.7,2.4-0.9,4.9-0.7,7.4c0.1-0.7,0.2-1.5,0.4-2.2
		c0.2,3,1,5.8,2.6,8.4c1.4,2.4,5.2,7.9,14.6,10c-0.6-0.2-1.1-0.4-1.6-0.8c2,0.6,4,0.9,6.1,1c-0.8-0.1-1-0.5-1-0.5s9.1,0.5,12.3-3.7
		c-1.1,1.2-3.8,1.6-4.9,1.6c1.6-1.4,5.1-1.4,8.8-5c1.4-1.3,2.3-3,2.5-4.9C42.9,33.3,41.1,34.4,39.2,35.4z"/>
	
		<radialGradient id="SVGID_16_" cx="-567.5423" cy="835.3812" r="40.27" gradientTransform="matrix(0.38 -0.59 0.61 0.36 -265.78 -606.58)" gradientUnits="userSpaceOnUse">
		<stop  offset="0.71" style="stop-color:#E86304;stop-opacity:0"/>
		<stop  offset="0.81" style="stop-color:#E86304;stop-opacity:1.000000e-02"/>
		<stop  offset="0.84" style="stop-color:#E86504;stop-opacity:4.000000e-02"/>
		<stop  offset="0.87" style="stop-color:#E96804;stop-opacity:8.000000e-02"/>
		<stop  offset="0.89" style="stop-color:#EA6B03;stop-opacity:0.15"/>
		<stop  offset="0.9" style="stop-color:#EB7003;stop-opacity:0.24"/>
		<stop  offset="0.92" style="stop-color:#EC7603;stop-opacity:0.36"/>
		<stop  offset="0.93" style="stop-color:#ED7D02;stop-opacity:0.49"/>
		<stop  offset="0.94" style="stop-color:#EF8601;stop-opacity:0.65"/>
		<stop  offset="0.96" style="stop-color:#F18F01;stop-opacity:0.81"/>
		<stop  offset="0.97" style="stop-color:#F39900"/>
	</radialGradient>
	<path class="st14" d="M39.2,35.4c1.2-2.1,2.7-3.4,3.6-4.8c1.1-2,3.3-7.5,1.7-11.9c0.7,2.8,0.5,5.6-1.8,7c1-3.3,1.1-6.8,0.4-10.1
		c-0.4-2.1-1.5-4-3.2-5.5c1,0.7,1.7,3.3,1.7,4.4c-2.3-3.9-6-6.7-10.3-7.8c3.9,2.5,5.3,4.6,6.2,6.5c-1.1-1.1-2.5-1.9-4-2.2
		c1.8,1.3,4.8,5.2,4.5,11c-0.5-1.1-1.1-2.1-1.9-2.9c0.6,5.8,0.1,7-0.3,8.5c-0.1-0.5-0.2-1.1-0.5-1.5c-0.2,1.5-0.6,3-1.3,4.4
		c-0.9,1.9-1.8,2.5-2.3,2.5c-0.1,0-0.1,0-0.2-0.1c0.1-0.2,0.1-0.5,0-0.7c-0.2,0.1-0.5,0.3-0.6,0.5c-0.1,0.2-0.2,0.3-0.4,0.4
		c0,0,0.3-0.4,0.3-0.4c-0.2,0.1-0.3,0.3-0.5,0.4c-0.6,0.6-1.1,1.3-1.4,1.1c0.3-0.1,0.5-0.4,0.5-0.7c-0.6,0.4-1.4,0.7-2.1,0.8
		c-2,0.3-4.1,0-5.9-1c0.5-0.1,1.1-0.1,1.6,0.1c-0.5-0.5-1.7-0.4-2.6-0.7c-0.9-0.5-1.7-1.1-2.3-1.8c2.1,0.6,4.3,0.3,6.3-0.8
		c1.5-1,2.3-1.7,3.1-1.5s1.3-0.6,0.7-1.3c-1-1.1-2.6-1.5-4-1.1c-1.5,0.4-2.8,1.5-4.9,0.7l-0.4-0.2c-0.1-0.1,0.4,0.1,0.3,0
		c-0.5-0.2-0.9-0.4-1.3-0.6c0,0,0.3,0.1,0.3,0c-2-1.2-1.9-2.1-1.9-2.7c0-0.6,0.3-1.1,0.8-1.4c0.2,0.1,0.3,0.1,0.5,0.2
		c-0.1-0.1-0.1-0.2-0.2-0.3h0.1c0.2,0.1,0.8,0.3,1,0.4c0.2,0.1,0.4,0.2,0.5,0.4c0,0,0.1,0,0-0.2c-0.1-0.2-0.3-0.4-0.5-0.5l0,0
		c0.2,0.1,0.4,0.2,0.6,0.3c0.2-0.4,0.2-0.8,0.2-1.2c-0.1-0.4-0.1-0.5-0.2-0.7s0-0.2,0.2-0.1c0-0.1-0.1-0.2-0.1-0.3l0,0
		c0.1-0.5,3.1-2,3.4-2.2c0.3-0.3,0.6-0.6,0.8-1c0.2-0.4,0.3-0.8,0.2-1.1c0-0.4-0.3-0.6-3.5-0.6c-0.7,0-1.4-0.4-1.8-1l-0.2-0.3
		c-0.1-0.1-0.1-0.3-0.2-0.4c0.4-1.4,1.2-2.6,2.4-3.5c0.1-0.1-0.3,0-0.2,0c0.2-0.1,0.5-0.3,0.7-0.4c0.1-0.1-0.6-0.2-1.1-0.1
		c-0.4,0.1-0.7,0.2-1,0.3c0.1-0.1,0.5-0.3,0.4-0.3c-0.7,0.2-1.4,0.6-2,1c0-0.1,0-0.1,0-0.2c-0.5,0.3-0.9,0.6-1.2,1.1
		c0-0.1,0-0.2,0-0.2c-0.2,0.2-0.4,0.4-0.6,0.6l0,0c-1.6-0.4-3.3-0.4-4.8,0.1C9.5,11.4,9,10.7,8.6,10c-0.1-0.1-0.1,0.2-0.1,0.1
		C8.1,9.4,7.9,8.7,7.9,7.9C7.4,8.2,7.1,8.7,7,9.3c0,0.1-0.1,0.3-0.2,0.4c0,0,0-0.3,0-0.3C6.7,9.5,6.6,9.7,6.5,9.9
		c-0.1,0.2-0.1,0.3-0.1,0.5l0,0c0,0,0-0.3,0-0.2c-0.2,0.4-0.3,0.9-0.4,1.3c-0.2,1.1-0.3,2.2-0.2,3.3c0,0.1,0,0.2,0,0.3
		c-0.4,0.5-0.7,1-1,1.6c-0.9,1.8-1.5,3.8-1.8,5.8c0.3-0.8,0.6-1.5,1-2.3c-0.7,2.4-0.9,4.9-0.7,7.4c0.1-0.7,0.2-1.5,0.4-2.2
		c0.2,3,1,5.8,2.6,8.4c1.4,2.4,5.2,7.9,14.6,10c-0.6-0.2-1.1-0.4-1.6-0.8c2,0.6,4,0.9,6.1,1c-0.8-0.1-1-0.5-1-0.5s9.1,0.5,12.3-3.7
		c-1.1,1.2-3.8,1.6-4.9,1.6c1.6-1.4,5.1-1.4,8.8-5c1.4-1.3,2.3-3,2.5-4.9C42.9,33.3,41.1,34.4,39.2,35.4z"/>
	
		<radialGradient id="SVGID_17_" cx="299.2589" cy="528.3091" r="12.95" gradientTransform="matrix(0.72 0 0 0.44 -193.94 -214.79)" gradientUnits="userSpaceOnUse">
		<stop  offset="0" style="stop-color:#DE570C;stop-opacity:0.1"/>
		<stop  offset="0.31" style="stop-color:#DD550D;stop-opacity:0.84"/>
		<stop  offset="0.56" style="stop-color:#B5141E"/>
	</radialGradient>
	<path class="st15" d="M23.4,15.7c0-0.4-0.3-0.7-3.5-0.6c-1,0-1.8-0.7-2.1-1.6c-0.4,1.3-0.4,2.7-0.1,4c0.3,0.9,0.7,1.7,1.3,2.4
		c0.1,0.1,0.1,0.1,0.2,0.1c1-0.8,2.1-1.4,3.2-2C22.9,17.3,23.4,16.5,23.4,15.7z"/>
	
		<radialGradient id="SVGID_18_" cx="98.9638" cy="1674.4191" r="10.91" gradientTransform="matrix(0.69 -0.2 0.1 0.3 -214.74 -468.74)" gradientUnits="userSpaceOnUse">
		<stop  offset="0" style="stop-color:#DE570C;stop-opacity:0"/>
		<stop  offset="0.45" style="stop-color:#DC570E;stop-opacity:0.8"/>
		<stop  offset="0.72" style="stop-color:#B5141E"/>
	</radialGradient>
	<path class="st16" d="M19,15.3c0,0,1.1,0.5,1.3,0.9c0.1,0.1-0.6-0.2-0.5-0.1c0,0.1,0.8,0.5,0.8,0.7s-0.4-0.1-0.7-0.2
		c0.1,0.1,0.3,0.3,0.2,0.4s-0.5,0.2-0.6,0.2c-1,0.6,1.5,0.8,2.4,0.3c0.6-0.3,1.1-0.7,1.5-1.3c0-0.1,0.3-1-1.5-0.7
		C20.9,15.8,19.9,15.7,19,15.3z"/>
	
		<radialGradient id="SVGID_19_" cx="309.7689" cy="279.4338" r="29.35" gradientTransform="matrix(0.72 0 0 0.71 -193.94 -176.85)" gradientUnits="userSpaceOnUse">
		<stop  offset="0.46" style="stop-color:#EFBE00"/>
		<stop  offset="0.72" style="stop-color:#E15D09"/>
		<stop  offset="0.77" style="stop-color:#DC550B"/>
		<stop  offset="0.85" style="stop-color:#CF3E12"/>
		<stop  offset="0.96" style="stop-color:#B91A1C"/>
		<stop  offset="0.97" style="stop-color:#B5141E"/>
	</radialGradient>
	<path class="st17" d="M34.3,39.3c-1.4,0.7-2.9,1.1-4.4,1.4c4.5-1.3,5.9-3.2,6.7-4.4c2.3-0.4,6.5-2.5,6.7-4.9
		c-0.2,3.3-2.9,5.5-4.9,6.8c-2.3,1.5-4.3,1.7-6,2.8C33,40.5,33.7,40,34.3,39.3z"/>
	
		<radialGradient id="SVGID_20_" cx="330.3589" cy="262.8138" r="35.5" gradientTransform="matrix(0.72 0 0 0.71 -193.94 -176.85)" gradientUnits="userSpaceOnUse">
		<stop  offset="0.31" style="stop-color:#FFE700"/>
		<stop  offset="0.48" style="stop-color:#F8CE00"/>
		<stop  offset="0.84" style="stop-color:#E15D09"/>
		<stop  offset="1" style="stop-color:#E15D09"/>
	</radialGradient>
	<path class="st18" d="M44.4,18.7c1.4,4.4-0.9,6.4-1.9,7c1.4-3.5,1.5-7.4,0.3-11c-0.6-1.7-1.6-3.3-3-4.5c2.1,2.2,2.7,5.5,1.6,8.3
		c0.4,2.1-0.9,8,0.7,7.7c-0.4,2.9-1.2,5.8-2.5,8.5c1.1-1.7,2.6-3.2,3.3-4.5C44.3,27.7,45.9,22.8,44.4,18.7z"/>
	
		<radialGradient id="SVGID_21_" cx="319.8488" cy="276.3238" r="14.44" gradientTransform="matrix(0.72 0 0 0.71 -193.94 -176.85)" gradientUnits="userSpaceOnUse">
		<stop  offset="9.000000e-02" style="stop-color:#FFFFFF"/>
		<stop  offset="0.12" style="stop-color:#FFFEF9"/>
		<stop  offset="0.15" style="stop-color:#FFFDE6"/>
		<stop  offset="0.19" style="stop-color:#FFFAC8"/>
		<stop  offset="0.24" style="stop-color:#FFF69F"/>
		<stop  offset="0.29" style="stop-color:#FFF169"/>
		<stop  offset="0.34" style="stop-color:#FFEB29"/>
		<stop  offset="0.37" style="stop-color:#FFE700"/>
		<stop  offset="0.43" style="stop-color:#FBDD00"/>
		<stop  offset="0.52" style="stop-color:#F1C400"/>
		<stop  offset="0.54" style="stop-color:#EFBE00"/>
		<stop  offset="1" style="stop-color:#E15D09"/>
	</radialGradient>
	<path class="st19" d="M38.9,19.7c-0.4,1.1-0.6,2.2-0.5,3.3c-0.3-1.5-1.1-2.9-2.3-4c0.2,2.3,0.6,5.7-0.3,8.6
		c0.2,1.7,0.1,3.5-0.5,5.1c1.3-1.5,3.1-2.7,3.4-4c0,0,0-0.1,0-0.1c0.6,0,1.2-0.3,1.6-0.8c0.8-1.3,1.4-2.7,1.8-4.2
		C40.4,23,39.2,21.5,38.9,19.7z"/>
	
		<radialGradient id="SVGID_22_" cx="322.6389" cy="274.5738" r="26.2" gradientTransform="matrix(0.72 0 0 0.71 -193.94 -176.85)" gradientUnits="userSpaceOnUse">
		<stop  offset="9.000000e-02" style="stop-color:#FFFFFF"/>
		<stop  offset="0.12" style="stop-color:#FFFEF9"/>
		<stop  offset="0.15" style="stop-color:#FFFDE6"/>
		<stop  offset="0.19" style="stop-color:#FFFAC8"/>
		<stop  offset="0.24" style="stop-color:#FFF69F"/>
		<stop  offset="0.29" style="stop-color:#FFF169"/>
		<stop  offset="0.34" style="stop-color:#FFEB29"/>
		<stop  offset="0.37" style="stop-color:#FFE700"/>
		<stop  offset="0.43" style="stop-color:#FBDD00"/>
		<stop  offset="0.52" style="stop-color:#F1C400"/>
		<stop  offset="0.54" style="stop-color:#EFBE00"/>
		<stop  offset="0.74" style="stop-color:#E27403"/>
		<stop  offset="0.94" style="stop-color:#DC570E"/>
	</radialGradient>
	<path class="st20" d="M38.4,27.3c2.4-3.5,3.2-7.8,2-11.9c5.3,8.5-0.1,18.3-1.2,19.9c-0.8,0.4-1.7,0.8-2.7,0.9
		c0.5-0.9,0.8-1.9,0.7-2.9c-0.8,1.9-3.6,3.3-5.2,3.9C34.8,35.3,37.9,29.9,38.4,27.3z"/>
	
		<radialGradient id="SVGID_23_" cx="318.4688" cy="281.4038" r="22.18" gradientTransform="matrix(0.72 0 0 0.71 -193.94 -176.85)" gradientUnits="userSpaceOnUse">
		<stop  offset="9.000000e-02" style="stop-color:#FFFFFF"/>
		<stop  offset="0.11" style="stop-color:#FFFEF9"/>
		<stop  offset="0.13" style="stop-color:#FFFDE6"/>
		<stop  offset="0.16" style="stop-color:#FFFAC8"/>
		<stop  offset="0.19" style="stop-color:#FFF69F"/>
		<stop  offset="0.22" style="stop-color:#FFF169"/>
		<stop  offset="0.26" style="stop-color:#FFEB29"/>
		<stop  offset="0.28" style="stop-color:#FFE700"/>
		<stop  offset="0.33" style="stop-color:#FBDD00"/>
		<stop  offset="0.41" style="stop-color:#F1C400"/>
		<stop  offset="0.43" style="stop-color:#EFBE00"/>
		<stop  offset="0.46" style="stop-color:#EDB101"/>
		<stop  offset="0.63" style="stop-color:#E27403"/>
		<stop  offset="0.79" style="stop-color:#DF6309"/>
		<stop  offset="0.95" style="stop-color:#DC570E"/>
	</radialGradient>
	<path class="st21" d="M37.8,23.5c0.1,2.8-0.6,5.5-2,7.9c0.4-1.8,0.2-3.7-0.6-5.4c-0.1,1.2-0.4,2.4-0.9,3.5c-1.3,3-2.4,3.6-2.8,3.3
		c-1,3.7-7.3,3.5-7.3,3.5c1.4,0.3,6.5,0.6,10.1-2c-0.8,1.7-2.3,3.1-4,3.8c2.7-0.2,6.2-2.9,6.8-4.8c0,1-0.2,2-0.7,2.9
		C41,31.3,37.8,23.5,37.8,23.5z"/>
	
		<linearGradient id="SVGID_24_" gradientUnits="userSpaceOnUse" x1="53.5296" y1="153.2794" x2="50.8796" y2="164.8294" gradientTransform="matrix(1 -3.000000e-02 3.000000e-02 1 -27.5 -122.68)">
		<stop  offset="0" style="stop-color:#FDEF17"/>
		<stop  offset="0" style="stop-color:#FFEE00"/>
		<stop  offset="9.000000e-02" style="stop-color:#FACD00"/>
		<stop  offset="0.19" style="stop-color:#F6B100"/>
		<stop  offset="0.27" style="stop-color:#F49F00"/>
		<stop  offset="0.33" style="stop-color:#F39900"/>
		<stop  offset="0.57" style="stop-color:#E87907;stop-opacity:0.54"/>
		<stop  offset="0.82" style="stop-color:#DC570E;stop-opacity:6.000000e-02"/>
	</linearGradient>
	<path class="st22" d="M23.6,38.7c2.3-0.2,4.2-0.7,5.5-2.4c-1.6,0.3-3.2,0.3-4.8,0c1.3,0,2.5-0.1,3.8-0.5c3-0.6,5.6-2.5,7.2-5.2
		C35.2,38.3,27.3,39.8,23.6,38.7z"/>
	
		<linearGradient id="SVGID_25_" gradientUnits="userSpaceOnUse" x1="30.9165" y1="125.9575" x2="28.5665" y2="119.9575" gradientTransform="matrix(1 0 0 1 -22.54 -111.46)">
		<stop  offset="0.17" style="stop-color:#B5141E"/>
		<stop  offset="0.35" style="stop-color:#C0281B;stop-opacity:0.76"/>
		<stop  offset="0.52" style="stop-color:#C83719;stop-opacity:0.58"/>
		<stop  offset="0.62" style="stop-color:#CB3D18;stop-opacity:0.51"/>
		<stop  offset="1" style="stop-color:#DE570C;stop-opacity:0"/>
	</linearGradient>
	<path class="st23" d="M8.6,10C8.6,9.9,8.5,10.2,8.6,10C8.1,9.4,7.9,8.7,7.9,7.9C7.4,8.2,7.1,8.7,7,9.3c0,0.1-0.1,0.3-0.2,0.4
		c0,0,0-0.3,0-0.3C6.7,9.5,6.6,9.7,6.5,9.9c-0.1,0.2-0.1,0.3-0.2,0.5c0,0.1,0-0.3,0-0.2c-0.6,1.6-0.8,3.3-0.6,4.9
		c1.2-1.5,2.7-2.6,4.5-3.3C9.5,11.3,9,10.7,8.6,10z"/>
	
		<linearGradient id="SVGID_26_" gradientUnits="userSpaceOnUse" x1="40.6355" y1="130.5324" x2="43.8255" y2="129.1223" gradientTransform="matrix(1 0 0 1 -22.54 -111.46)">
		<stop  offset="7.000000e-02" style="stop-color:#DC570E"/>
		<stop  offset="0.3" style="stop-color:#E89C68"/>
		<stop  offset="0.67" style="stop-color:#F6DAAF"/>
		<stop  offset="1" style="stop-color:#FAF8CE"/>
	</linearGradient>
	<path class="st24" d="M22.4,17.6c0.4-0.3,0.7-0.8,0.9-1.3c-0.1,0-0.1-0.1-0.2,0c-0.4,0.4-0.9,0.8-1.4,1.1c0.2-0.2,0.4-0.3,0.5-0.5
		c-0.6,0.5-1.4,0.7-2.1,0.7c0.4,0,0.7-0.1,1-0.3c-0.5,0.2-0.9,0.2-1.4,0.2c-0.1,0,0.8-0.1,0.8-0.1c-0.4-0.1-0.7-0.1-1.1,0
		c-0.2,0.1-0.4,0.3-0.6,0.5c0.1-0.1,0.2-0.3,0.2-0.4c-0.2,0.2-0.5,0.4-0.8,0.6c0-0.1,0.8-0.6,0.6-0.6s-0.4,0.2-0.6,0.4
		s0.4-0.4,0.4-0.4c-0.8,0.2-0.7,0.6-0.7,0.6s0,0.1,0,0.1c0.2,0.4,0.5,0.8,0.8,1.2c0.2,0.3,0.3,0.6,0.3,0.5
		C19.1,19.5,22.2,17.8,22.4,17.6z"/>
	
		<linearGradient id="SVGID_27_" gradientUnits="userSpaceOnUse" x1="40.9412" y1="130.8925" x2="49.1513" y2="126.7725" gradientTransform="matrix(1 0 0 1 -22.54 -111.46)">
		<stop  offset="4.000000e-02" style="stop-color:#DC570E"/>
		<stop  offset="0.26" style="stop-color:#EDAD78"/>
		<stop  offset="1" style="stop-color:#FAF8CE"/>
	</linearGradient>
	<path class="st25" d="M23.2,16.5c0,0,0-0.4,0-0.3c0,0.5-0.3,1-0.7,1.3c-0.1,0.1,0-0.2-0.2-0.1c-0.6,0.8-1.6,1.3-2.7,1.3
		c-0.1,0,0.7-0.3,0.6-0.3l-1,0.3c-0.1,0,0.6-0.4,0.5-0.4c-0.3,0.2-0.6,0.3-0.9,0.5c0.2-0.2,0.5-0.4,0.4-0.4
		c-0.3,0.2-0.6,0.4-0.8,0.6c0.1,0.2,0.2,0.3,0.3,0.5c0.2,0.3,0.3,0.6,0.3,0.5c0.6-0.7,3.1-1.9,3.7-2.5S23,17,23.2,16.5z"/>
	
		<radialGradient id="SVGID_28_" cx="298.5288" cy="348.2133" r="15.68" gradientTransform="matrix(0.72 0 0 0.6 -193.94 -181.11)" gradientUnits="userSpaceOnUse">
		<stop  offset="0.5" style="stop-color:#DE570C;stop-opacity:0"/>
		<stop  offset="0.53" style="stop-color:#DE570C;stop-opacity:5.000000e-02"/>
		<stop  offset="0.58" style="stop-color:#DE570C;stop-opacity:0.17"/>
		<stop  offset="0.64" style="stop-color:#DE560C;stop-opacity:0.38"/>
		<stop  offset="0.72" style="stop-color:#DD550D;stop-opacity:0.65"/>
		<stop  offset="0.75" style="stop-color:#DD550D;stop-opacity:0.77"/>
		<stop  offset="0.95" style="stop-color:#B5141E"/>
	</radialGradient>
	<path class="st26" d="M19.5,33.4c-3.2-1-6.9-2.4-7.2-6.5C11.9,21.4,17,22,17,22c-0.3,0.2-0.6,0.5-0.7,0.9c-0.3,0.9,0,1.9,0.7,2.4
		c1.8,1.6-3,4.5,5.2,8.2C21.3,33.6,20.4,33.6,19.5,33.4z"/>
	
		<linearGradient id="SVGID_29_" gradientUnits="userSpaceOnUse" x1="44.0634" y1="129.0622" x2="46.4234" y2="125.4322" gradientTransform="matrix(1 0 0 1 -22.54 -111.46)">
		<stop  offset="0" style="stop-color:#393739"/>
		<stop  offset="0.65" style="stop-color:#853F38"/>
		<stop  offset="1" style="stop-color:#DC570E"/>
	</linearGradient>
	<path class="st27" d="M23.4,16.6c0.1-0.4,0.3-1.2-0.2-1.4c-0.5-0.1-0.9-0.2-1.4-0.1c0.2,0,0.8,0.2,1,0.4c0.2,0.6,0.2,1.3,0,1.9
		C23.1,17.2,23.3,16.9,23.4,16.6z"/>
	
		<radialGradient id="SVGID_30_" cx="217.0174" cy="710.4187" r="14.38" gradientTransform="matrix(0.71 -0.12 9.000000e-02 0.53 -198.63 -326.08)" gradientUnits="userSpaceOnUse">
		<stop  offset="0.5" style="stop-color:#DE570C;stop-opacity:0"/>
		<stop  offset="0.66" style="stop-color:#DC570E"/>
		<stop  offset="0.81" style="stop-color:#B5141E"/>
	</radialGradient>
	<path class="st28" d="M18.2,30.8c2.1,0.5,4.3,0.2,6.2-0.8c1-0.7,2.4-1.6,3-1.5c-0.6-0.2-1.3-0.3-1.9-0.3h-0.4
		c-0.2,0-0.5,0.1-0.7,0.1c-0.4,0.2-0.8,0.3-1.2,0.4c0,0,0.4-0.2,0.3-0.2L23,28.6l-0.4,0.1c-3,0.4-6-0.1-8.6-1.6
		C13.7,28.2,15.7,30.2,18.2,30.8z"/>
	
		<radialGradient id="SVGID_31_" cx="300.2527" cy="299.2595" r="27.08" gradientTransform="matrix(0.72 -2.000000e-02 2.000000e-02 0.69 -190.83 -190.2)" gradientUnits="userSpaceOnUse">
		<stop  offset="0" style="stop-color:#FFE300;stop-opacity:0"/>
		<stop  offset="0.36" style="stop-color:#FDDB00;stop-opacity:0.52"/>
		<stop  offset="0.48" style="stop-color:#FCD600;stop-opacity:0.7"/>
		<stop  offset="0.86" style="stop-color:#FCD600;stop-opacity:0"/>
	</radialGradient>
	<path class="st29" d="M37.5,13.1c1,1.1,1.8,2.2,2.5,3.5c0.5,1.2,0.9,2.4,1.1,3.7c0-1.5-0.3-3-0.8-4.4c-0.9-2.8-2.6-5.2-4.9-7
		c-1.3-0.8-2.6-1.6-4-2.3C31.4,6.6,35.9,9.3,37.5,13.1z"/>
	
		<radialGradient id="SVGID_32_" cx="271.6989" cy="-102.3438" r="34.7" gradientTransform="matrix(0.72 0 0 -0.71 -177.62 -61.28)" gradientUnits="userSpaceOnUse">
		<stop  offset="0" style="stop-color:#E86304"/>
		<stop  offset="1" style="stop-color:#F39900"/>
	</radialGradient>
	<path class="st30" d="M12.7,12.7c-0.9,0.3-1.7,0.7-2.4,1.4c-0.6,0.4-1.1,0.9-1.6,1.5c-0.7,0.8-1.3,1.7-1.8,2.6
		c0.1-0.7,0.3-1.3,0.6-1.9c-1.1,1.9-1.9,4-2.3,6.2c0-1.2,0.1-2.4,0.3-3.6c-0.2,0.6-0.4,1.3-0.5,2c-0.2,1.6-0.2,3.2,0,4.8
		c0,0-0.1-0.5-0.3-1.2C4.9,25,5,25.6,5.1,26.3C5.5,27.9,6,29.5,6.6,31c-0.9-1.2-1.5-2.6-2-4c0.2,0.7,0.4,1.6,0.7,2.7
		c0.5,1.8,1.2,3.5,2.3,5.1c0,0-1-0.9-2.3-4.1c-0.5-1.2-0.8-2.5-1-3.7c-0.1-0.7-0.2-1.4-0.3-2.4c0-0.4-0.1-0.7-0.1-1.1
		C3.6,24.8,3.4,26,3.4,26c0.1-1.7,0.2-3.4,0.5-5.1c0.1-0.3,0.2-0.7,0.3-1c-0.4,0.8-0.7,1.5-0.7,1.5s0.6-1.5,1.1-2.8
		c-0.3,0.5-0.6,1.1-0.8,1.7c0.5-1.6,1.1-3.2,2-4.6c0.5-0.7,1-1.3,1.6-1.8c0.1-0.1,0.3-0.3,0.4-0.4l0.5-0.3C8.3,13.1,8.4,13,8.4,13
		c1-0.8,2.3-1.2,3.6-1.3c-0.5,0.1-1,0.3-1.5,0.6c0.4-0.1,0.8-0.2,1.1-0.2c-0.4,0.1-0.8,0.4-1.2,0.6c0.8-0.4,1.6-0.6,2.5-0.6
		c-0.9,0.2-1.7,0.6-2.4,1.1l-0.1,0.1l0,0C11.1,12.9,11.9,12.7,12.7,12.7z M8,21.9L8,21.9 M8,21.9c-0.3,0.1-0.7,1.3-0.4,3.8
		c0.1,1.1,0.5,2.2,1.1,3.2C8.3,27.7,8,26.5,8,25.2C7.8,24.1,7.8,23,8,21.9z M8.8,19.9c-0.2,1.7-0.2,3.4,0.1,5c0-1.7,0.1-3.4,0.4-5
		c0.6-2.7,1.4-3.5,1.4-3.5C10.4,16.5,9.2,17.9,8.8,19.9L8.8,19.9z M9.9,14.7c-0.2,0.3-0.5,0.5-0.6,0.8c-0.9,1-1.6,2.3-1.8,3.7
		C7,21,6.9,22.9,7.3,24.7c0-2,0.3-3.9,0.7-5.8c0.1-0.4,0.2-0.7,0.3-1c-0.1,0.4-0.2,0.9-0.2,1.3c0.5-1.8,1.5-3.3,2.8-4.6
		c0.6-0.7,1.4-1.3,2.3-1.6C12,13.2,10.8,13.8,9.9,14.7L9.9,14.7z M9.1,22c-0.1,1,0,2.1,0.1,3.1c0-1.1,0.1-2.2,0.2-3.4
		c0.1-0.8,0.2-1.6,0.5-2.4C9.6,19.6,9.2,21,9.1,22L9.1,22z M9.3,16.9c-0.4,0.7-0.7,1.5-0.9,2.4c0.4-1,0.9-1.9,1.5-2.8
		c0.3-0.5,0.7-0.9,1.2-1.4C10.2,15.5,9.6,16.1,9.3,16.9L9.3,16.9z M6.1,21.3L6.1,21.3 M6.1,21.3c-0.3,0.1-0.7,1.2-0.6,3.8
		c0,1.1,0.3,2.2,0.9,3.2c-0.4-1.2-0.5-2.5-0.5-3.7 M18.5,9.7c-0.9,0.3-1.6,0.9-2.3,1.5c-0.5,0.6-0.8,1.3-1,2.1
		C15.9,11.8,17.1,10.5,18.5,9.7z M17.5,11c-0.6,0.7-1,1.5-1.3,2.3c0.8-1.7,2.3-3.1,4.1-3.8C19.2,9.6,18.2,10.2,17.5,11L17.5,11z
		 M7.1,10.8c0.1-0.9,0.3-1.7,0.6-2.5c-0.9,1.5-1.1,3.3-0.6,4.9C7,12.4,6.9,11.6,7.1,10.8z M8.2,12.6c-0.3-0.7-0.4-1.4-0.5-2.1
		C7.6,9.9,7.7,9.1,7.8,8.4C7.3,9.8,7.4,11.4,8.2,12.6z"/>
	
		<radialGradient id="SVGID_33_" cx="-2844.5896" cy="3363.3628" r="8.87" gradientTransform="matrix(-0.2 0.67 0.47 0.13 -2115.24 1510.51)" gradientUnits="userSpaceOnUse">
		<stop  offset="0" style="stop-color:#FFFFFF"/>
		<stop  offset="4.000000e-02" style="stop-color:#FFFBD5;stop-opacity:0.91"/>
		<stop  offset="0.12" style="stop-color:#FFF595;stop-opacity:0.77"/>
		<stop  offset="0.18" style="stop-color:#FFF060;stop-opacity:0.66"/>
		<stop  offset="0.25" style="stop-color:#FFEC36;stop-opacity:0.57"/>
		<stop  offset="0.3" style="stop-color:#FFE919;stop-opacity:0.51"/>
		<stop  offset="0.35" style="stop-color:#FFE806;stop-opacity:0.47"/>
		<stop  offset="0.39" style="stop-color:#FFE700;stop-opacity:0.45"/>
		<stop  offset="0.81" style="stop-color:#FFE700;stop-opacity:0"/>
	</radialGradient>
	<path class="st31" d="M27.9,27.1c-0.6-0.6-1.4-0.9-2.2-1c-0.9-0.1-1.7,0.1-2.5,0.5c0.8-0.3,1.7-0.4,2.5-0.3
		C26.5,26.4,27.2,26.7,27.9,27.1z"/>
	
		<radialGradient id="SVGID_34_" cx="-3060.5493" cy="3216.5283" r="9.25" gradientTransform="matrix(-0.23 0.59 0.47 0.17 -2189.97 1280.0499)" gradientUnits="userSpaceOnUse">
		<stop  offset="0" style="stop-color:#FFFFFF"/>
		<stop  offset="4.000000e-02" style="stop-color:#FFFBD5;stop-opacity:0.91"/>
		<stop  offset="0.12" style="stop-color:#FFF595;stop-opacity:0.77"/>
		<stop  offset="0.18" style="stop-color:#FFF060;stop-opacity:0.66"/>
		<stop  offset="0.25" style="stop-color:#FFEC36;stop-opacity:0.57"/>
		<stop  offset="0.3" style="stop-color:#FFE919;stop-opacity:0.51"/>
		<stop  offset="0.35" style="stop-color:#FFE806;stop-opacity:0.47"/>
		<stop  offset="0.39" style="stop-color:#FFE700;stop-opacity:0.45"/>
		<stop  offset="0.81" style="stop-color:#FFE700;stop-opacity:0"/>
	</radialGradient>
	<path class="st32" d="M28.3,27.6c-0.6-0.7-1.4-1.1-2.3-1.2c-0.9-0.2-1.9-0.1-2.8,0.4c0.9-0.3,1.9-0.3,2.8-0.1
		C26.8,26.9,27.6,27.2,28.3,27.6z"/>
	
		<radialGradient id="SVGID_35_" cx="-3515.5828" cy="3696.522" r="6.93" gradientTransform="matrix(-0.17 0.37 0.39 0.16 -2010.46 727.58)" gradientUnits="userSpaceOnUse">
		<stop  offset="0" style="stop-color:#FFFFFF"/>
		<stop  offset="4.000000e-02" style="stop-color:#FFFBD5;stop-opacity:0.91"/>
		<stop  offset="0.12" style="stop-color:#FFF595;stop-opacity:0.77"/>
		<stop  offset="0.18" style="stop-color:#FFF060;stop-opacity:0.66"/>
		<stop  offset="0.25" style="stop-color:#FFEC36;stop-opacity:0.57"/>
		<stop  offset="0.3" style="stop-color:#FFE919;stop-opacity:0.51"/>
		<stop  offset="0.35" style="stop-color:#FFE806;stop-opacity:0.47"/>
		<stop  offset="0.39" style="stop-color:#FFE700;stop-opacity:0.45"/>
		<stop  offset="0.81" style="stop-color:#FFE700;stop-opacity:0"/>
	</radialGradient>
	<path class="st33" d="M27.9,27.7c-0.4-0.3-0.8-0.5-1.3-0.7c-0.6-0.2-1.3-0.2-1.9,0c0.5-0.1,1.1,0,1.6,0.1
		C26.8,27.2,27.4,27.4,27.9,27.7z"/>
	
		<linearGradient id="SVGID_36_" gradientUnits="userSpaceOnUse" x1="22.705" y1="27.9" x2="22.705" y2="5.63" gradientTransform="matrix(1 0 0 -1 0 50)">
		<stop  offset="0" style="stop-color:#E57F00"/>
		<stop  offset="0.5" style="stop-color:#DB510F"/>
		<stop  offset="0.62" style="stop-color:#CB3715"/>
		<stop  offset="0.75" style="stop-color:#B5141E"/>
		<stop  offset="0.84" style="stop-color:#AD121B"/>
		<stop  offset="0.98" style="stop-color:#960D14"/>
		<stop  offset="1" style="stop-color:#930C13"/>
	</linearGradient>
	<path class="st34" d="M42.4,34.2c-0.3,0.5-0.6,0.9-0.9,1.3c-0.9,1.1-2,2-3.2,2.8c-0.4,0.3-0.8,0.5-1.2,0.7v-0.1l0,0
		c1.4-0.7,2.6-1.6,3.7-2.6C41.4,35.6,42,34.9,42.4,34.2z M7,9.5c0-0.1,0.1-0.2,0.1-0.4c0.1-0.2,0.1-0.4,0.2-0.6C7.2,8.8,7.1,9,7,9.3
		C7,9.3,7,9.4,7,9.5C7,9.5,6.9,9.5,7,9.5z M19.4,42.8c0.1,0.1,0.3,0.2,0.5,0.3c1.8,0.5,3.7,0.8,5.5,0.8c-0.2,0-0.4-0.1-0.6-0.2
		C23,43.7,21.1,43.4,19.4,42.8z M4.2,20.1L4,20.4l0,0c-0.7,2.4-0.9,4.9-0.7,7.4c0,0,0-0.1,0-0.1v0.1c0,0,0-0.3,0.1-0.5
		C3.2,24.8,3.5,22.4,4.2,20.1z M6.4,33.7c-1.5-2.5-2.4-5.4-2.6-8.4c0,0.1,0,0.3-0.1,0.4c0.2,2.9,1.1,5.7,2.6,8.2
		c1.4,2.4,5.2,8,14.6,10c-0.4-0.1-0.7-0.3-1.1-0.5C11.3,41.1,7.8,36,6.4,33.7z M36.7,39.7c0,0,0.1-0.1,0.1-0.1
		c-3.2,4.2-12.3,3.7-12.3,3.7c0,0.1,0.1,0.1,0.1,0.2c1.3,0,7.5,0.1,10.9-2.5c0.7-0.5,1.3-1.2,1.6-2l0,0C37,39.2,36.9,39.5,36.7,39.7
		L36.7,39.7z M5,16.3c-1,2-1.7,4.1-2,6.3v-0.1v0.1l0.1-0.4c0.3-2,0.9-3.9,1.7-5.6C4.9,16.5,5,16.4,5,16.3z M6.5,10.3
		c0-0.2,0.1-0.3,0.2-0.5c0,0,0-0.1,0-0.1C6.6,9.7,6.5,9.8,6.5,10c0,0.1,0,0.1-0.1,0.2C6.4,10.2,6.4,10.3,6.5,10.3L6.5,10.3z M5.8,15
		c0-0.1,0-0.2,0-0.3c-0.1-1.1,0-2.2,0.2-3.3c0.1-0.4,0.2-0.8,0.3-1.1l0,0l0,0c0,0.1-0.1,0.1-0.1,0.2l0,0v0.1c0,0.1-0.1,0.2-0.1,0.3
		c-0.1,0.2-0.1,0.4-0.2,0.5v0.1c0,0,0,0.1,0,0.1l0,0C6,12,5.9,12.4,5.9,12.8c-0.1,0.8-0.1,1.6,0,2.3L5.8,15z M37.1,38.8
		c-0.1,0-0.7,0.3-1.7,0.7c-1.1,0.4-2.2,0.9-3.2,1.5c0.7-0.4,1.4-0.7,2.1-1c1.7-0.7,2.5-1,2.7-1.1l0,0L37.1,38.8L37.1,38.8z"/>
	
		<radialGradient id="SVGID_37_" cx="1657.7948" cy="3460.7813" r="18.37" gradientTransform="matrix(2.000000e-02 -0.71 -0.72 -2.000000e-02 2489.22 1279.73)" gradientUnits="userSpaceOnUse">
		<stop  offset="0" style="stop-color:#E86304"/>
		<stop  offset="1" style="stop-color:#F39900"/>
	</radialGradient>
	<path class="st35" d="M21.4,41.5L21.4,41.5 M21.4,41.4c0.1,0.3,1.3,0.7,3.9,0.6c1.2,0,2.3-0.3,3.3-0.9c-1.2,0.4-2.5,0.5-3.8,0.5
		C23.6,41.7,22.5,41.6,21.4,41.4z M19.8,40.6c1.6,0.3,3.2,0.3,4.7,0.1c-1.7,0-3.4-0.2-5.1-0.6c-2.8-0.6-3.6-1.5-3.6-1.5
		C15.9,39,17.7,40.1,19.8,40.6z M21.6,40.4c1,0.1,2.1,0.1,3.1,0c-1.1,0-2.3-0.1-3.4-0.3c-0.8-0.1-1.7-0.3-2.5-0.5
		C19,39.9,20.5,40.3,21.6,40.4z M16.4,40.1c0.8,0.4,1.6,0.6,2.5,0.8c-1-0.4-2-0.8-3-1.3c-0.6-0.3-1.1-0.6-1.7-1
		C14.7,39.3,15.5,39.8,16.4,40.1z M20.8,43.3L20.8,43.3"/>
</g>
</svg>
