<svg id="文档查看器" xmlns="http://www.w3.org/2000/svg" xmlns:xlink="http://www.w3.org/1999/xlink" viewBox="0 0 48 48"><defs><style>.cls-1{fill:#f6af1f;}.cls-2{fill:#f7d33c;}.cls-3{fill:url(#未命名的渐变_49);}.cls-4{fill:#e5e5e5;}.cls-5{fill:#e65c38;}</style><linearGradient id="未命名的渐变_49" x1="35.28" y1="31.74" x2="26.13" y2="19.48" gradientUnits="userSpaceOnUse"><stop offset="0" stop-color="#3e8bfd"/><stop offset="1" stop-color="#75a8ff"/></linearGradient></defs><title>48</title><g id="_48" data-name="48"><polygon class="cls-1" points="42 22 6 22 6 7 17 7 19 9 42 9 42 22"/><path class="cls-2" d="M4,15H44a0,0,0,0,1,0,0V36a5,5,0,0,1-5,5H9a5,5,0,0,1-5-5V15A0,0,0,0,1,4,15Z"/><g id="放大镜"><path class="cls-3" d="M31,37a11,11,0,1,1,9.53-5.5A10.95,10.95,0,0,1,31,37Z"/><path class="cls-4" d="M31,16h0a10,10,0,1,1-8.67,5A10,10,0,0,1,31,16m0-2a12,12,0,1,0,6,1.61A12,12,0,0,0,31,14Z"/><rect class="cls-4" x="22.5" y="36.49" width="4" height="2" transform="translate(-20.22 39.96) rotate(-60)"/><rect class="cls-5" x="20.75" y="37.02" width="4" height="7" rx="1.5" transform="translate(23.31 -5.95) rotate(30)"/></g></g></svg>