<?xml version="1.0" encoding="utf-8"?>
<!-- Generator: Adobe Illustrator 23.0.3, SVG Export Plug-In . SVG Version: 6.00 Build 0)  -->
<svg version="1.1" id="鼠标" xmlns="http://www.w3.org/2000/svg" xmlns:xlink="http://www.w3.org/1999/xlink" x="0px" y="0px"
	 viewBox="0 0 512 512" style="enable-background:new 0 0 512 512;" xml:space="preserve">
<style type="text/css">
	.st0{fill:#ADADAD;}
	.st1{fill:#E6E6E6;}
	.st2{clip-path:url(#SVGID_2_);}
	.st3{fill:#4D4D4D;}
	.st4{fill:#FFFFFF;}
</style>
<title>512</title>
<g id="_512">
	<path class="st0" d="M255.6,30h0.8C342.9,30,413,100.1,413,186.6v138.8c0,86.5-70.1,156.6-156.6,156.6h-0.8
		C169.1,482,99,411.9,99,325.4V186.6C99,100.1,169.1,30,255.6,30z"/>
	<path class="st1" d="M255.8,40h0.3C328.4,40,387,98.6,387,170.8v134.3c0,72.3-58.6,130.8-130.8,130.8h-0.3
		C183.6,436,125,377.4,125,305.2V170.8C125,98.6,183.6,40,255.8,40z"/>
	<g>
		<defs>
			<path id="SVGID_1_" d="M256,30L256,30c86.7,0,157,70.3,157,157v138c0,86.7-70.3,157-157,157l0,0c-86.7,0-157-70.3-157-157V187
				C99,100.3,169.3,30,256,30z"/>
		</defs>
		<clipPath id="SVGID_2_">
			<use xlink:href="#SVGID_1_"  style="overflow:visible;"/>
		</clipPath>
		<g class="st2">
			<path class="st3" d="M294,29c0,128.9,0,310-38,310s-38-181.1-38-310"/>
		</g>
	</g>
	<path class="st4" d="M256,83.5L256,83.5c8.8,0,16,7.2,16,16v59c0,8.8-7.2,16-16,16l0,0c-8.8,0-16-7.2-16-16v-59
		C240,90.7,247.2,83.5,256,83.5z"/>
</g>
</svg>
