<?xml version="1.0" encoding="utf-8"?>
<!-- Generator: Adobe Illustrator 23.0.3, SVG Export Plug-In . SVG Version: 6.00 Build 0)  -->
<svg version="1.1" id="打印机" xmlns="http://www.w3.org/2000/svg" xmlns:xlink="http://www.w3.org/1999/xlink" x="0px" y="0px"
	 viewBox="0 0 512 512" style="enable-background:new 0 0 512 512;" xml:space="preserve">
<style type="text/css">
	.st0{fill:#64798A;}
	.st1{fill:#3A556A;}
	.st2{fill:#ECECDE;}
	.st3{fill:#3FC59B;}
	.st4{fill:#CECDBC;}
	.st5{fill:#8F9396;}
</style>
<title>512</title>
<g id="_512">
	<path class="st0" d="M84,126h344c26.5,0,48,21.5,48,48v84H36v-84C36,147.5,57.5,126,84,126z"/>
	<path class="st1" d="M36,257h440v84c0,26.5-21.5,48-48,48H84c-26.5,0-48-21.5-48-48V257z"/>
	<rect x="102" y="175" class="st1" width="308" height="46"/>
	<rect x="102" y="389" class="st1" width="308" height="86"/>
	<rect x="126" y="323" class="st2" width="260" height="130"/>
	<circle class="st3" cx="430" cy="291" r="18"/>
	<polygon class="st2" points="338,84 338,36 126,36 126,193 386,193 386,84 	"/>
	<polygon class="st4" points="386,84 338,36 338,84 	"/>
	<rect x="178" y="56" class="st5" width="156" height="16"/>
	<rect x="178" y="103" class="st5" width="156" height="16"/>
	<rect x="178" y="151" class="st5" width="156" height="16"/>
</g>
</svg>
