<?xml version="1.0" encoding="utf-8"?>
<!-- Generator: Adobe Illustrator 23.0.3, SVG Export Plug-In . SVG Version: 6.00 Build 0)  -->
<svg version="1.1" id="火狐" xmlns="http://www.w3.org/2000/svg" xmlns:xlink="http://www.w3.org/1999/xlink" x="0px" y="0px"
	 viewBox="0 0 16 16" style="enable-background:new 0 0 16 16;" xml:space="preserve">
<style type="text/css">
	.st0{fill:url(#SVGID_1_);}
	.st1{fill:url(#SVGID_2_);}
	.st2{fill:url(#SVGID_3_);}
	.st3{fill:url(#SVGID_4_);}
	.st4{fill:url(#SVGID_5_);}
	.st5{fill:url(#SVGID_6_);}
	.st6{fill:url(#SVGID_7_);}
	.st7{fill:url(#SVGID_8_);}
</style>
<title>16</title>
<g id="_16">
	
		<radialGradient id="SVGID_1_" cx="371.5511" cy="235.0868" r="4.01" gradientTransform="matrix(0.72 0 0 0.74 -255.25 -170.34)" gradientUnits="userSpaceOnUse">
		<stop  offset="0.26" style="stop-color:#FFE700"/>
		<stop  offset="0.34" style="stop-color:#FADD00"/>
		<stop  offset="0.47" style="stop-color:#F8CE00"/>
		<stop  offset="0.64" style="stop-color:#ECAA00"/>
		<stop  offset="0.85" style="stop-color:#E37B04"/>
		<stop  offset="1" style="stop-color:#DC570E"/>
	</radialGradient>
	<path class="st0" d="M13,1.6c0.4,0.3,0.8,0.6,1.1,1.1C14.5,3.3,14.3,4,14,3.9S13,1.6,13,1.6z"/>
	
		<radialGradient id="SVGID_2_" cx="373.0711" cy="238.1867" r="2.1" gradientTransform="matrix(0.72 0 0 0.74 -255.25 -170.34)" gradientUnits="userSpaceOnUse">
		<stop  offset="0.13" style="stop-color:#9B1418"/>
		<stop  offset="0.34" style="stop-color:#A42218"/>
		<stop  offset="0.73" style="stop-color:#C63A1A"/>
		<stop  offset="1" style="stop-color:#DB530F"/>
	</radialGradient>
	<path class="st1" d="M14.1,4c0.1-0.9-0.4-1.8-1.1-2.4c0,0,0.1,0.5,0.2,1.6C13.3,4.6,14.1,4.7,14.1,4z"/>
	
		<radialGradient id="SVGID_3_" cx="370.3911" cy="253.4568" r="1.87" gradientTransform="matrix(0.72 0 0 0.74 -255.25 -170.34)" gradientUnits="userSpaceOnUse">
		<stop  offset="0" style="stop-color:#47100E"/>
		<stop  offset="7.000000e-02" style="stop-color:#581010"/>
		<stop  offset="0.27" style="stop-color:#821214"/>
		<stop  offset="0.45" style="stop-color:#9F1217"/>
		<stop  offset="0.6" style="stop-color:#B21319"/>
		<stop  offset="0.71" style="stop-color:#B8131A"/>
		<stop  offset="1" style="stop-color:#B1121B"/>
	</radialGradient>
	<path class="st2" d="M9.6,15.3c2.4,0.5,4.3-1.6,2.9-2.1S8.5,15.1,9.6,15.3z"/>
	
		<radialGradient id="SVGID_4_" cx="111.89" cy="-631.87" r="2.06" gradientTransform="matrix(1 0 0 -1 0 18)" gradientUnits="userSpaceOnUse">
		<stop  offset="0.13" style="stop-color:#9B1418"/>
		<stop  offset="0.34" style="stop-color:#A42218"/>
		<stop  offset="0.73" style="stop-color:#C63A1A"/>
		<stop  offset="1" style="stop-color:#DB530F"/>
	</radialGradient>
	<path class="st3" d="M12.8,13.3c2.4-0.5,3.2-3.2,1.9-3.1S11.7,13.6,12.8,13.3z"/>
	
		<radialGradient id="SVGID_5_" cx="112.9" cy="-637.93" r="1.86" gradientTransform="matrix(1 0 0 -1 0 18)" gradientUnits="userSpaceOnUse">
		<stop  offset="0.13" style="stop-color:#9B1418"/>
		<stop  offset="0.34" style="stop-color:#A42218"/>
		<stop  offset="0.73" style="stop-color:#C63A1A"/>
		<stop  offset="1" style="stop-color:#DB530F"/>
	</radialGradient>
	<path class="st4" d="M15,9.1c0.9-0.8,1.3-2.1,0.8-3.3c0,0-0.4,1.1-0.7,2.3S14,9.9,15,9.1z"/>
	
		<radialGradient id="SVGID_6_" cx="374.4511" cy="239.3867" r="2.33" gradientTransform="matrix(0.72 0 0 0.74 -255.25 -170.34)" gradientUnits="userSpaceOnUse">
		<stop  offset="0" style="stop-color:#9B1418"/>
		<stop  offset="0.64" style="stop-color:#C53819"/>
		<stop  offset="1" style="stop-color:#DB530F"/>
	</radialGradient>
	<path class="st5" d="M15.4,5.5c-0.1-1.2-0.6-2.3-1.4-3.1l0.3,1.6C14.5,5.3,15.5,6.7,15.4,5.5z"/>
	
		<radialGradient id="SVGID_7_" cx="453.1265" cy="266.0318" r="20.65" gradientTransform="matrix(0.68 0 0 0.66 -300.33 -175.19)" gradientUnits="userSpaceOnUse">
		<stop  offset="0" style="stop-color:#62C1EE"/>
		<stop  offset="8.000000e-02" style="stop-color:#52B8E9"/>
		<stop  offset="0.18" style="stop-color:#00A3DC"/>
		<stop  offset="0.38" style="stop-color:#0271B5"/>
		<stop  offset="0.5" style="stop-color:#004A90"/>
		<stop  offset="0.75" style="stop-color:#0E1D50"/>
	</radialGradient>
	<path class="st6" d="M8,15.8c4.3-0.1,7.7-3.6,7.7-7.9C15.7,3.6,12.3,0.1,8,0c0,0,0,0,0,0C3.7,0,0.3,3.6,0.3,7.9c0,0,0,0,0,0
		C0.2,12.2,3.7,15.7,8,15.8C8,15.8,8,15.8,8,15.8z"/>
	
		<radialGradient id="SVGID_8_" cx="370.0711" cy="243.1386" r="20.23" gradientTransform="matrix(0.72 0 0 0.73 -255.25 -174.69)" gradientUnits="userSpaceOnUse">
		<stop  offset="0.12" style="stop-color:#FFFFFF"/>
		<stop  offset="0.12" style="stop-color:#FFFFFC"/>
		<stop  offset="0.25" style="stop-color:#FFE950"/>
		<stop  offset="0.28" style="stop-color:#FDE547"/>
		<stop  offset="0.33" style="stop-color:#F8D92D"/>
		<stop  offset="0.4" style="stop-color:#F1C504"/>
		<stop  offset="0.41" style="stop-color:#F0C300"/>
		<stop  offset="0.45" style="stop-color:#EDAF00"/>
		<stop  offset="0.55" style="stop-color:#E57F00"/>
		<stop  offset="0.76" style="stop-color:#DB510F"/>
		<stop  offset="0.87" style="stop-color:#CB3715"/>
		<stop  offset="1" style="stop-color:#B5141E"/>
	</radialGradient>
	<path class="st7" d="M13.8,12.6c0.4-0.9,1-1.4,1.4-1.9c0.8-1.5,1-3.2,0.6-4.8C16.1,7,16,8.1,15.1,8.7c0.4-1.3,0.4-2.7,0.2-4
		C15.1,3.8,14.7,3,14,2.4c0.4,0.5,0.6,1.1,0.7,1.8c-0.8-1.5-2.2-2.7-3.9-3.2c1,0.6,1.9,1.5,2.4,2.6c-0.4-0.4-0.9-0.8-1.5-0.9
		c1.2,1.1,1.9,2.8,1.7,4.4c-0.2-0.4-0.4-0.8-0.7-1.1c0.2,1.1,0.2,2.3-0.1,3.4c0-0.2-0.1-0.4-0.2-0.6c-0.1,0.6-0.2,1.2-0.5,1.8
		c-0.4,0.8-0.7,1-0.9,1s-0.1,0-0.1,0c0-0.1,0-0.2,0-0.3c-0.1,0-0.2,0.1-0.2,0.2c0,0.1-0.1,0.1-0.2,0.2c0,0,0.1-0.1,0.1-0.1l-0.2,0.2
		c-0.2,0.2-0.4,0.5-0.5,0.4c0.1-0.1,0.2-0.2,0.2-0.3c-0.2,0.2-0.5,0.3-0.8,0.3c-0.8,0.1-1.6,0-2.3-0.4c0.2-0.1,0.4-0.1,0.6,0
		c-0.2-0.2-0.7-0.2-1-0.3C6.3,11.2,6,11,5.7,10.7c0.8,0.2,1.7,0.1,2.4-0.3C8.7,10,9,9.7,9.3,9.8s0.5-0.2,0.3-0.5
		c-0.4-0.4-1-0.6-1.5-0.4C7.5,9,7,9.4,6.2,9.1L6,9.1c0,0,0.2,0,0.1,0C5.9,9,5.8,8.9,5.6,8.8h0.1C5,8.4,5,8,5,7.8
		c0-0.2,0.1-0.4,0.3-0.6l0.2,0.1c0,0-0.1-0.1-0.1-0.1l0,0c0.1,0,0.3,0.1,0.4,0.2c0.1,0,0.2,0.1,0.2,0.1c0,0,0,0,0-0.1
		c0-0.1-0.1-0.2-0.2-0.2l0,0L6,7.3c0-0.2,0-0.3,0-0.5C6,6.6,6,6.6,6,6.5s0-0.1,0.1,0c0,0,0-0.1,0-0.1l0,0c0-0.2,1.2-0.8,1.3-0.9
		c0.1-0.1,0.2-0.2,0.3-0.4C7.7,5,7.7,4.8,7.7,4.7c0-0.2-0.1-0.2-1.3-0.2C6.1,4.4,5.9,4.2,5.7,4L5.7,3.9c0,0,0-0.1-0.1-0.1
		c0.1-0.6,0.5-1,0.9-1.4c0,0-0.1,0-0.1,0c0.1-0.1,0.2-0.1,0.3-0.2c0,0-0.2-0.1-0.4,0C6.1,2.2,6,2.2,5.9,2.3c0,0,0.2-0.1,0.2-0.1
		C5.8,2.2,5.5,2.4,5.3,2.6c0,0,0,0,0-0.1C5.1,2.6,4.9,2.7,4.8,2.9V2.8C4.7,2.9,4.6,3,4.6,3.1l0,0C4,2.9,3.3,2.9,2.7,3.1
		C2.5,2.9,2.3,2.7,2.1,2.4c0,0,0,0.1,0,0C2,2.1,1.9,1.8,1.9,1.5C1.7,1.6,1.6,1.8,1.6,2c0,0.1,0,0.1-0.1,0.2s0-0.1,0-0.1
		c0,0.1-0.1,0.2-0.1,0.2c0,0.1,0,0.1-0.1,0.2l0,0c0,0,0-0.1,0-0.1C1.2,2.6,1.2,2.8,1.1,3C1,3.4,1,3.9,1,4.3v0.1
		C0.9,4.6,0.7,4.9,0.6,5.1C0.3,5.8,0.1,6.6,0,7.4c0.1-0.3,0.2-0.6,0.4-0.9c-0.3,1-0.4,2-0.3,3c0-0.3,0.1-0.6,0.1-0.9
		c0.1,1.2,0.4,2.3,1,3.3c1.2,2.1,3.2,3.6,5.6,4c-0.2-0.1-0.5-0.2-0.6-0.4C7,15.9,7.7,16,8.5,16c-0.3-0.1-0.4-0.2-0.4-0.2
		s3.5,0.2,4.7-1.5c-0.5,0.4-1.2,0.7-1.9,0.6c0.6-0.6,1.9-0.6,3.4-2c0.6-0.5,0.9-1.2,1-2C15.2,11.7,14.5,12.1,13.8,12.6z"/>
</g>
</svg>
