<?xml version="1.0" encoding="utf-8"?>
<!-- Generator: Adobe Illustrator 23.0.3, SVG Export Plug-In . SVG Version: 6.00 Build 0)  -->
<svg version="1.1" id="打印机" xmlns="http://www.w3.org/2000/svg" xmlns:xlink="http://www.w3.org/1999/xlink" x="0px" y="0px"
	 viewBox="0 0 16 16" style="enable-background:new 0 0 16 16;" xml:space="preserve">
<style type="text/css">
	.st0{fill:#64798A;}
	.st1{fill:#3A556A;}
	.st2{fill:#ECECDE;}
	.st3{fill:#3FC59B;}
	.st4{fill:#8F9396;}
</style>
<title>16</title>
<g id="_16">
	<path class="st0" d="M3,4h10c1.1,0,2,0.9,2,2v2H1V6C1,4.9,1.9,4,3,4z"/>
	<path class="st1" d="M1,8h14v2c0,1.1-0.9,2-2,2H3c-1.1,0-2-0.9-2-2V8z"/>
	<rect x="3" y="5" class="st1" width="10" height="2"/>
	<rect x="3" y="12" class="st1" width="10" height="3"/>
	<rect x="4" y="10.1" class="st2" width="8" height="4.2"/>
	<circle class="st3" cx="13.5" cy="9" r="0.5"/>
	<polygon class="st2" points="10.5,1 4,1 4,6 12,6 12,2.5 	"/>
	<rect x="5" y="2" class="st4" width="6" height="1"/>
	<rect x="5" y="4" class="st4" width="6" height="1"/>
</g>
</svg>
