<?xml version="1.0" encoding="utf-8"?>
<!-- Generator: Adobe Illustrator 23.0.3, SVG Export Plug-In . SVG Version: 6.00 Build 0)  -->
<svg version="1.1" id="扫描易" xmlns="http://www.w3.org/2000/svg" xmlns:xlink="http://www.w3.org/1999/xlink" x="0px" y="0px"
	 viewBox="0 0 16 16" style="enable-background:new 0 0 16 16;" xml:space="preserve">
<style type="text/css">
	.st0{fill:#ECECEC;}
	.st1{fill:#5B6C74;}
	.st2{fill:#515151;}
	.st3{fill:#6CA524;}
	.st4{fill:#13BFD7;}
	.st5{fill:#E0E0E0;}
</style>
<title>16</title>
<g id="_16">
	<polygon class="st0" points="1.8,12.5 4.3,7.5 11.7,7.5 14.2,12.5 	"/>
	<path class="st1" d="M11.4,8l2,4H2.6l2-4H11.4 M12,7H4l-3,6h14L12,7z"/>
	<rect x="1" y="13" class="st2" width="14" height="2"/>
	<rect x="13" y="13" class="st3" width="1" height="1"/>
	<polygon class="st4" points="6,8 4,12 12,12 10,8 	"/>
	<polygon class="st5" points="1.8,9.5 4.3,4.5 11.7,4.5 14.2,9.5 	"/>
	<path class="st1" d="M11.4,5l2,4H2.6l2-4H11.4 M12,4H4l-3,6h14L12,4z"/>
</g>
</svg>
