<?xml version="1.0" encoding="utf-8"?>
<!-- Generator: Adobe Illustrator 23.0.3, SVG Export Plug-In . SVG Version: 6.00 Build 0)  -->
<svg version="1.1" id="计算机" xmlns="http://www.w3.org/2000/svg" xmlns:xlink="http://www.w3.org/1999/xlink" x="0px" y="0px"
	 viewBox="0 0 24 24" style="enable-background:new 0 0 24 24;" xml:space="preserve">
<style type="text/css">
	.st0{fill:#4FC4F7;}
	.st1{fill:#2B383D;}
	.st2{fill:#455A64;}
	.st3{fill:#84D6F9;}
</style>
<title>24</title>
<g id="_24">
	<path class="st0" d="M3,4.5h18c0.3,0,0.5,0.2,0.5,0.5v12c0,0.3-0.2,0.5-0.5,0.5H3c-0.3,0-0.5-0.2-0.5-0.5V5C2.5,4.7,2.7,4.5,3,4.5z
		"/>
	<path class="st1" d="M21,5v12H3V5H21 M21,4H3C2.4,4,2,4.4,2,5v12c0,0.6,0.4,1,1,1h18c0.6,0,1-0.4,1-1V5C22,4.4,21.6,4,21,4z"/>
	<polygon class="st2" points="15,20 13,20 13,18 11,18 11,20 9,20 7,21 17,21 	"/>
	<rect x="7" y="21" class="st2" width="10" height="1"/>
	<polygon class="st3" points="14,5 21,5 21,17 10,17 	"/>
</g>
</svg>
