<?xml version="1.0" encoding="utf-8"?>
<!-- Generator: Adobe Illustrator 23.0.3, SVG Export Plug-In . SVG Version: 6.00 Build 0)  -->
<svg version="1.1" id="打印机" xmlns="http://www.w3.org/2000/svg" xmlns:xlink="http://www.w3.org/1999/xlink" x="0px" y="0px"
	 viewBox="0 0 24 24" style="enable-background:new 0 0 24 24;" xml:space="preserve">
<style type="text/css">
	.st0{fill:#64798A;}
	.st1{fill:#3A556A;}
	.st2{fill:#ECECDE;}
	.st3{fill:#3FC59B;}
	.st4{fill:#CECDBC;}
	.st5{fill:#8F9396;}
</style>
<title>24</title>
<g id="_24">
	<path class="st0" d="M5,6h14c1.7,0,3,1.3,3,3v3H2V9C2,7.3,3.3,6,5,6z"/>
	<path class="st1" d="M2,12h20v3c0,1.7-1.3,3-3,3H5c-1.7,0-3-1.3-3-3V12z"/>
	<rect x="5" y="8" class="st1" width="14" height="2"/>
	<rect x="5" y="18" class="st1" width="14" height="4"/>
	<rect x="6" y="15" class="st2" width="12" height="6"/>
	<ellipse class="st3" cx="19.8" cy="13.8" rx="0.8" ry="0.8"/>
	<polygon class="st2" points="16,4 16,2 6,2 6,9 18,9 18,4 	"/>
	<polygon class="st4" points="18,4 16,2 16,4 	"/>
	<rect x="8" y="4" class="st5" width="8" height="1"/>
	<rect x="8" y="7" class="st5" width="8" height="1"/>
</g>
</svg>
