<svg id="文档查看器" xmlns="http://www.w3.org/2000/svg" xmlns:xlink="http://www.w3.org/1999/xlink" viewBox="0 0 32 32"><defs><style>.cls-1{fill:#f6af1f;}.cls-2{fill:#f7d33c;}.cls-3{fill:#e5e5e5;}.cls-4{fill:#e65c38;}.cls-5{fill:url(#未命名的渐变_49);}</style><linearGradient id="未命名的渐变_49" x1="23.67" y1="20.6" x2="14.32" y2="15.96" gradientTransform="translate(13.45 -8.19) rotate(30)" gradientUnits="userSpaceOnUse"><stop offset="0" stop-color="#3e8bfd"/><stop offset="1" stop-color="#75a8ff"/></linearGradient></defs><title>32</title><g id="_32" data-name="32"><polygon class="cls-1" points="28 14.5 4 14.5 4 4 11 4 13 6 28 6 28 14.5"/><path class="cls-2" d="M2,10H30a0,0,0,0,1,0,0V24a4,4,0,0,1-4,4H6a4,4,0,0,1-4-4V10A0,0,0,0,1,2,10Z"/><g id="放大镜"><rect class="cls-3" x="16" y="23.29" width="1" height="4" transform="translate(14.85 -4.86) rotate(30)"/><rect class="cls-4" x="13.75" y="24.95" width="3" height="5" rx="1" transform="translate(15.77 -3.95) rotate(30)"/><path class="cls-5" d="M21,25a7.52,7.52,0,0,1-6.5-3.75A7.5,7.5,0,0,1,21,10a7.52,7.52,0,0,1,6.5,3.75A7.5,7.5,0,0,1,21,25Z"/><path class="cls-3" d="M21,10.5h0A7,7,0,0,1,24.5,23.56,6.92,6.92,0,0,1,21,24.5,7,7,0,0,1,17.5,11.44,6.92,6.92,0,0,1,21,10.5m0-1a8,8,0,1,0,6.94,4A8,8,0,0,0,21,9.5Z"/></g></g></svg>