<svg id="火狐" xmlns="http://www.w3.org/2000/svg" xmlns:xlink="http://www.w3.org/1999/xlink" viewBox="0 0 32 32"><defs><style>.cls-1{fill:none;}.cls-2{fill:url(#radial-gradient);}.cls-3{fill:url(#radial-gradient-2);}.cls-4{fill:url(#radial-gradient-3);}.cls-5{fill:url(#radial-gradient-4);}.cls-6{fill:url(#radial-gradient-5);}.cls-7{fill:url(#radial-gradient-6);}.cls-8{fill:url(#radial-gradient-7);}.cls-9{clip-path:url(#clip-path);}.cls-10{opacity:0.6;fill:url(#radial-gradient-8);}.cls-11{fill:url(#radial-gradient-9);}.cls-12{fill:url(#radial-gradient-10);}.cls-13{fill:url(#radial-gradient-11);}.cls-14{fill:url(#radial-gradient-12);}.cls-15{fill:url(#radial-gradient-13);}.cls-16{fill:url(#radial-gradient-14);}.cls-17{fill:url(#linear-gradient);}.cls-18{fill:url(#radial-gradient-15);}.cls-19{fill:url(#radial-gradient-16);}</style><radialGradient id="radial-gradient" cx="73.61" cy="661.46" r="7.52" gradientTransform="matrix(0.72, 0, 0, -0.69, -28.46, 463.41)" gradientUnits="userSpaceOnUse"><stop offset="0.26" stop-color="#ffe700"/><stop offset="0.34" stop-color="#fadd00"/><stop offset="0.47" stop-color="#f8ce00"/><stop offset="0.64" stop-color="#ecaa00"/><stop offset="0.85" stop-color="#e37b04"/><stop offset="1" stop-color="#dc570e"/></radialGradient><radialGradient id="radial-gradient-2" cx="76.46" cy="655.66" r="3.93" gradientTransform="matrix(0.72, 0, 0, -0.69, -28.46, 463.41)" gradientUnits="userSpaceOnUse"><stop offset="0.13" stop-color="#9b1418"/><stop offset="0.34" stop-color="#a42218"/><stop offset="0.73" stop-color="#c63a1a"/><stop offset="1" stop-color="#db530f"/></radialGradient><radialGradient id="radial-gradient-3" cx="71.43" cy="627.06" r="3.49" gradientTransform="matrix(0.72, 0, 0, -0.69, -28.46, 463.41)" gradientUnits="userSpaceOnUse"><stop offset="0" stop-color="#47100e"/><stop offset="0.07" stop-color="#581010"/><stop offset="0.27" stop-color="#821214"/><stop offset="0.45" stop-color="#9f1217"/><stop offset="0.6" stop-color="#b21319"/><stop offset="0.71" stop-color="#b8131a"/><stop offset="1" stop-color="#b1121b"/></radialGradient><radialGradient id="radial-gradient-4" cx="78.2" cy="633.73" r="3.87" xlink:href="#radial-gradient-2"/><radialGradient id="radial-gradient-5" cx="80.09" cy="645.09" r="3.49" xlink:href="#radial-gradient-2"/><radialGradient id="radial-gradient-6" cx="79.05" cy="653.4" r="4.37" gradientTransform="matrix(0.72, 0, 0, -0.69, -28.46, 463.41)" gradientUnits="userSpaceOnUse"><stop offset="0" stop-color="#9b1418"/><stop offset="0.64" stop-color="#c53819"/><stop offset="1" stop-color="#db530f"/></radialGradient><radialGradient id="radial-gradient-7" cx="83.1" cy="691.79" r="38.68" gradientTransform="matrix(0.68, 0, 0, -0.62, -40.66, 429.52)" gradientUnits="userSpaceOnUse"><stop offset="0" stop-color="#62c1ee"/><stop offset="0.08" stop-color="#52b8e9"/><stop offset="0.18" stop-color="#00a3dc"/><stop offset="0.38" stop-color="#0271b5"/><stop offset="0.5" stop-color="#004a90"/><stop offset="0.75" stop-color="#0e1d50"/></radialGradient><clipPath id="clip-path"><path class="cls-1" d="M16,29.56c7.93,0,14.36-6.17,14.36-13.78S23.88,2,16,2,1.59,8.17,1.59,15.78,8,29.56,16,29.56Z"/></clipPath><radialGradient id="radial-gradient-8" cx="63.34" cy="659.13" r="22.51" gradientTransform="matrix(0.72, 0, 0, -0.68, -28.46, 455.66)" gradientUnits="userSpaceOnUse"><stop offset="0.13" stop-color="#099cd9"/><stop offset="0.19" stop-color="#0894d2"/><stop offset="0.29" stop-color="#047ec0"/><stop offset="0.33" stop-color="#0271b5"/><stop offset="0.44" stop-color="#0561a3"/><stop offset="0.65" stop-color="#003b75"/><stop offset="0.86" stop-color="#0e1d50"/></radialGradient><radialGradient id="radial-gradient-9" cx="70.84" cy="658.06" r="37.9" gradientTransform="matrix(0.72, 0, 0, -0.68, -28.46, 455.67)" gradientUnits="userSpaceOnUse"><stop offset="0.12" stop-color="#fff"/><stop offset="0.12" stop-color="#fffffc"/><stop offset="0.25" stop-color="#ffe950"/><stop offset="0.28" stop-color="#fde547"/><stop offset="0.33" stop-color="#f8d92d"/><stop offset="0.4" stop-color="#f1c504"/><stop offset="0.41" stop-color="#f0c300"/><stop offset="0.45" stop-color="#edaf00"/><stop offset="0.55" stop-color="#e57f00"/><stop offset="0.76" stop-color="#db510f"/><stop offset="0.87" stop-color="#cb3715"/><stop offset="1" stop-color="#b5141e"/></radialGradient><radialGradient id="radial-gradient-10" cx="59.13" cy="708.72" r="9.25" gradientTransform="matrix(0.72, 0, 0, -0.44, -28.46, 318.01)" gradientUnits="userSpaceOnUse"><stop offset="0" stop-color="#de570c" stop-opacity="0.1"/><stop offset="0.31" stop-color="#dd550d" stop-opacity="0.84"/><stop offset="0.56" stop-color="#b5141e"/></radialGradient><radialGradient id="radial-gradient-11" cx="81.34" cy="657.73" r="25.36" gradientTransform="matrix(0.72, 0, 0, -0.69, -28.46, 463.41)" gradientUnits="userSpaceOnUse"><stop offset="0.31" stop-color="#ffe700"/><stop offset="0.48" stop-color="#f8ce00"/><stop offset="0.84" stop-color="#e15d09"/><stop offset="1" stop-color="#e15d09"/></radialGradient><radialGradient id="radial-gradient-12" cx="73.84" cy="648.09" r="10.31" gradientTransform="matrix(0.72, 0, 0, -0.69, -28.46, 463.41)" gradientUnits="userSpaceOnUse"><stop offset="0.09" stop-color="#fff"/><stop offset="0.12" stop-color="#fffef9"/><stop offset="0.15" stop-color="#fffde6"/><stop offset="0.19" stop-color="#fffac8"/><stop offset="0.24" stop-color="#fff69f"/><stop offset="0.29" stop-color="#fff169"/><stop offset="0.34" stop-color="#ffeb29"/><stop offset="0.37" stop-color="#ffe700"/><stop offset="0.43" stop-color="#fbdd00"/><stop offset="0.52" stop-color="#f1c400"/><stop offset="0.54" stop-color="#efbe00"/><stop offset="1" stop-color="#e15d09"/></radialGradient><radialGradient id="radial-gradient-13" cx="75.83" cy="649.33" r="18.71" gradientTransform="matrix(0.72, 0, 0, -0.69, -28.46, 463.41)" gradientUnits="userSpaceOnUse"><stop offset="0.09" stop-color="#fff"/><stop offset="0.12" stop-color="#fffef9"/><stop offset="0.15" stop-color="#fffde6"/><stop offset="0.19" stop-color="#fffac8"/><stop offset="0.24" stop-color="#fff69f"/><stop offset="0.29" stop-color="#fff169"/><stop offset="0.34" stop-color="#ffeb29"/><stop offset="0.37" stop-color="#ffe700"/><stop offset="0.43" stop-color="#fbdd00"/><stop offset="0.52" stop-color="#f1c400"/><stop offset="0.54" stop-color="#efbe00"/><stop offset="0.74" stop-color="#e27403"/><stop offset="0.94" stop-color="#dc570e"/></radialGradient><radialGradient id="radial-gradient-14" cx="72.85" cy="644.46" r="15.84" gradientTransform="matrix(0.72, 0, 0, -0.69, -28.46, 463.41)" gradientUnits="userSpaceOnUse"><stop offset="0.09" stop-color="#fff"/><stop offset="0.11" stop-color="#fffef9"/><stop offset="0.13" stop-color="#fffde6"/><stop offset="0.16" stop-color="#fffac8"/><stop offset="0.19" stop-color="#fff69f"/><stop offset="0.22" stop-color="#fff169"/><stop offset="0.26" stop-color="#ffeb29"/><stop offset="0.28" stop-color="#ffe700"/><stop offset="0.33" stop-color="#fbdd00"/><stop offset="0.41" stop-color="#f1c400"/><stop offset="0.43" stop-color="#efbe00"/><stop offset="0.46" stop-color="#edb101"/><stop offset="0.63" stop-color="#e27403"/><stop offset="0.79" stop-color="#df6309"/><stop offset="0.95" stop-color="#dc570e"/></radialGradient><linearGradient id="linear-gradient" x1="27.36" y1="647.2" x2="25.73" y2="651.39" gradientTransform="matrix(1, 0, 0, -1, -22.54, 656.54)" gradientUnits="userSpaceOnUse"><stop offset="0.17" stop-color="#b5141e"/><stop offset="0.35" stop-color="#c0281b" stop-opacity="0.76"/><stop offset="0.52" stop-color="#c83719" stop-opacity="0.58"/><stop offset="0.62" stop-color="#cb3d18" stop-opacity="0.51"/><stop offset="1" stop-color="#de570c" stop-opacity="0"/></linearGradient><radialGradient id="radial-gradient-15" cx="58.61" cy="675.23" r="11.2" gradientTransform="matrix(0.72, 0, 0, -0.59, -28.46, 415.14)" gradientUnits="userSpaceOnUse"><stop offset="0.5" stop-color="#de570c" stop-opacity="0"/><stop offset="0.53" stop-color="#de570c" stop-opacity="0.05"/><stop offset="0.58" stop-color="#de570c" stop-opacity="0.17"/><stop offset="0.64" stop-color="#de560c" stop-opacity="0.38"/><stop offset="0.72" stop-color="#dd550d" stop-opacity="0.65"/><stop offset="0.75" stop-color="#dd550d" stop-opacity="0.77"/><stop offset="0.95" stop-color="#b5141e"/></radialGradient><radialGradient id="radial-gradient-16" cx="75" cy="557.66" r="10.27" gradientTransform="matrix(0.71, -0.11, -0.09, -0.52, 9.57, 314.62)" gradientUnits="userSpaceOnUse"><stop offset="0.5" stop-color="#de570c" stop-opacity="0"/><stop offset="0.66" stop-color="#dc570e"/><stop offset="0.81" stop-color="#b5141e"/></radialGradient></defs><title>32</title><g id="_32" data-name="32"><path class="cls-2" d="M25.33,4.89A5.61,5.61,0,0,1,27.4,6.71c.66,1,.34,2.37-.25,2.14S25.33,4.89,25.33,4.89Z"/><path class="cls-3" d="M27.49,9c.35-2.57-2.16-4.09-2.16-4.09s.17.88.36,2.84C25.92,10,27.33,10.19,27.49,9Z"/><path class="cls-4" d="M19.07,28.83c4.54.92,8-2.75,5.52-3.63C22.37,24.4,16.92,28.4,19.07,28.83Z"/><path class="cls-5" d="M25,25.31c4.53-.95,6.08-5.65,3.47-5.48C26.1,20,22.85,25.77,25,25.31Z"/><path class="cls-6" d="M29,18c3-2.06,1.56-5.72,1.56-5.72s-.66,1.89-1.26,4.11S27.23,19.23,29,18Z"/><path class="cls-7" d="M29.9,11.6a8.09,8.09,0,0,0-2.6-5.35s.23,1.19.53,2.84C28.25,11.33,30.09,13.7,29.9,11.6Z"/><path class="cls-8" d="M16,29.59c7.94,0,14.37-6.18,14.37-13.79S23.89,2,16,2,1.58,8.19,1.58,15.8,8,29.59,16,29.59Z"/><g class="cls-9"><path class="cls-10" d="M26.78,24.6c.83-1.48,1.94-2.35,2.55-3.38.8-1.37,2.32-5.21,1.17-8.31.53,1.94.37,3.91-1.31,4.9a14.47,14.47,0,0,0,.33-7.07,6.78,6.78,0,0,0-2.26-3.82A4.85,4.85,0,0,1,28.48,10a12.12,12.12,0,0,0-7.33-5.49,10.89,10.89,0,0,1,4.44,4.55,5.56,5.56,0,0,0-2.85-1.54,9.06,9.06,0,0,1,3.19,7.71,8.37,8.37,0,0,0-1.36-2.06c.46,4,.06,4.89-.22,6A3.47,3.47,0,0,0,24,18.05a8.74,8.74,0,0,1-.9,3.05c-.65,1.35-1.32,1.77-1.61,1.72s-.08-.28-.13-.51a3.5,3.5,0,0,0-.89.64c-.42.42-.79.88-1,.75a1.91,1.91,0,0,0,.37-.5,3.21,3.21,0,0,1-1.52.54,6.84,6.84,0,0,1-4.17-.7,1.91,1.91,0,0,1,1.15.07c-.36-.38-1.23-.3-1.85-.49a5.79,5.79,0,0,1-1.66-1.26,6,6,0,0,0,4.45-.57c1-.67,1.65-1.17,2.2-1.05s.91-.41.48-.88a2.92,2.92,0,0,0-2.86-.76c-1.2.29-2.21,1.29-4.08.23-1.59-.9-1.58-1.64-1.58-2.11a1.16,1.16,0,0,1,.58-1,2.36,2.36,0,0,1,.34.14l-.16-.21h.05c.16.05.54.19.74.28a.89.89,0,0,1,.35.25s.06,0,0-.16a.85.85,0,0,0-.37-.36h0a3.23,3.23,0,0,1,.44.2,1.9,1.9,0,0,0,.08-.85c-.05-.28,0-.35-.12-.45s0-.13.12-.05a2,2,0,0,0-.1-.21h0c.08-.35,2.24-1.43,2.4-1.55a2,2,0,0,0,.59-.68,1.39,1.39,0,0,0,.16-.81c0-.26-.18-.42-2.48-.41a1.53,1.53,0,0,1-1.28-.68,1.67,1.67,0,0,1-.13-.2,1.06,1.06,0,0,1-.12-.24A4.67,4.67,0,0,1,13.18,6.8c.05,0-.21,0-.16,0s.43-.22.49-.26-.39-.17-.81-.09a2.34,2.34,0,0,0-.71.23c.09-.08.37-.22.3-.2a4.43,4.43,0,0,0-1.43.68.66.66,0,0,1,0-.13A2.35,2.35,0,0,0,10,7.8a1,1,0,0,0,0-.17,3,3,0,0,0-.42.45h0a6.48,6.48,0,0,0-3.44.05A4.09,4.09,0,0,1,5,6.89c0-.06,0,.11-.07.06a4,4,0,0,1-.44-1.54,1.67,1.67,0,0,0-.61.94,2.68,2.68,0,0,1-.1.28s0-.24,0-.21a2.3,2.3,0,0,0-.22.4,2.14,2.14,0,0,0-.1.35h0s0-.18,0-.15A6,6,0,0,0,3.12,8,7.76,7.76,0,0,0,3,10.23a1.85,1.85,0,0,1,0,.23,7,7,0,0,0-.69,1.09A14.06,14.06,0,0,0,1,15.61,9,9,0,0,1,1.75,14a13.46,13.46,0,0,0-.48,5.17c0-.08.09-.7.28-1.54a12.34,12.34,0,0,0,1.83,5.85c1,1.67,3.7,5.55,10.42,7a3.12,3.12,0,0,1-1.19-.61,16.27,16.27,0,0,0,4.34.7c-.58-.09-.69-.36-.69-.36s6.52.36,8.77-2.59c-.77.86-2.72,1.11-3.46,1.12,1.12-1,3.61-1,6.3-3.51a5.15,5.15,0,0,0,1.79-3.44C29.41,23.12,28.13,23.89,26.78,24.6Z"/></g><path class="cls-11" d="M26.84,24c.83-1.49,1.95-2.36,2.55-3.39.81-1.37,2.33-5.22,1.18-8.33.53,1.95.36,3.92-1.31,4.92a14.44,14.44,0,0,0,.32-7.09,6.76,6.76,0,0,0-2.26-3.83,4.94,4.94,0,0,1,1.23,3.09,12.2,12.2,0,0,0-7.36-5.5,10.87,10.87,0,0,1,4.45,4.55,5.62,5.62,0,0,0-2.86-1.54A9,9,0,0,1,26,14.58a8.45,8.45,0,0,0-1.35-2.06c.45,4,.05,4.9-.23,6a3.38,3.38,0,0,0-.35-1.09,8.76,8.76,0,0,1-.9,3.06c-.65,1.36-1.32,1.78-1.61,1.73a.22.22,0,0,1-.13,0,1.1,1.1,0,0,0,0-.48A1,1,0,0,0,21,22a1.3,1.3,0,0,1-.29.28s.2-.27.18-.25a4,4,0,0,0-.33.29c-.42.42-.8.88-1,.75a.64.64,0,0,0,.37-.5,3.21,3.21,0,0,1-1.52.54,6.87,6.87,0,0,1-4.18-.7,1.91,1.91,0,0,1,1.15.07c-.36-.38-1.23-.3-1.85-.49a6.06,6.06,0,0,1-1.67-1.27,6.15,6.15,0,0,0,4.47-.56c1-.68,1.65-1.18,2.2-1.06s.91-.41.48-.88a2.93,2.93,0,0,0-2.86-.76c-1.08.25-2,1.08-3.51.51l-.29-.12c-.09-.05.32,0,.22,0a6.41,6.41,0,0,1-.95-.42s.22,0,.19,0c-1.44-.82-1.34-1.47-1.34-1.87a1.16,1.16,0,0,1,.59-1,2.52,2.52,0,0,1,.33.14,2.54,2.54,0,0,0-.15-.21h0a6.88,6.88,0,0,1,.74.28.89.89,0,0,1,.35.25s.06,0,0-.16a.9.9,0,0,0-.38-.36h0a2.76,2.76,0,0,1,.44.2,1.77,1.77,0,0,0,.08-.85c0-.28,0-.35-.11-.46s0-.12.11,0a1,1,0,0,0-.09-.21h0c.08-.34,2.24-1.43,2.4-1.54a2,2,0,0,0,.6-.69,1.48,1.48,0,0,0,.15-.81c0-.26-.17-.43-2.48-.41A1.54,1.54,0,0,1,11.77,9l-.13-.2a1.8,1.8,0,0,1-.12-.25,4.78,4.78,0,0,1,1.69-2.46s-.21,0-.16,0,.42-.21.49-.25-.4-.17-.81-.09A2.15,2.15,0,0,0,12,6c.09-.08.37-.22.3-.2a4.31,4.31,0,0,0-1.44.69.76.76,0,0,1,0-.14,2.43,2.43,0,0,0-.86.78A.92.92,0,0,0,10,7a3,3,0,0,0-.42.45h0a6.52,6.52,0,0,0-3.45,0A4,4,0,0,1,5,6.22c0-.06,0,.11-.07.06a3.81,3.81,0,0,1-.44-1.54,1.67,1.67,0,0,0-.61.94L3.75,6s0-.24,0-.22a1.72,1.72,0,0,0-.22.41,2.42,2.42,0,0,0-.11.35h0s0-.18,0-.15a6,6,0,0,0-.29.93A8.29,8.29,0,0,0,3,9.57c0,.08,0,.15,0,.22a6.06,6.06,0,0,0-.69,1.1A13.89,13.89,0,0,0,1,15a9.31,9.31,0,0,1,.73-1.59,13.61,13.61,0,0,0-.48,5.19c0-.08.09-.7.28-1.55a12.32,12.32,0,0,0,1.84,5.87c1,1.67,3.7,5.56,10.44,7a3.32,3.32,0,0,1-1.2-.62A16.24,16.24,0,0,0,17,30c-.58-.09-.69-.36-.69-.36s6.53.35,8.78-2.6c-.77.87-2.72,1.11-3.46,1.12,1.12-1,3.61-1,6.31-3.52a5.12,5.12,0,0,0,1.8-3.45C29.48,22.48,28.19,23.26,26.84,24Z"/><path class="cls-12" d="M15.57,10.16c0-.27-.2-.46-2.51-.44A1.69,1.69,0,0,1,11.53,8.6a6,6,0,0,0-.11,2.78,4.38,4.38,0,0,0,.92,1.67c.06.07.09.08.11,0a21.85,21.85,0,0,1,2.29-1.43A1.91,1.91,0,0,0,15.57,10.16Z"/><path class="cls-13" d="M30.58,12.28c1,3.12-.64,4.46-1.33,4.88a11.17,11.17,0,0,0,.24-7.74,7.7,7.7,0,0,0-2.17-3.17,5.37,5.37,0,0,1,1.14,5.81c.26,1.48-.62,5.59.49,5.4a21.46,21.46,0,0,1-1.76,6c.76-1.16,1.86-2.24,2.36-3.14C30.52,18.57,31.62,15.18,30.58,12.28Z"/><path class="cls-14" d="M26.66,13a5.15,5.15,0,0,0-.39,2.34,5.37,5.37,0,0,0-1.64-2.83,15.41,15.41,0,0,1-.22,6,7.38,7.38,0,0,1-.36,3.59c1-1.06,2.24-1.92,2.42-2.77a.22.22,0,0,0,0-.08,1.55,1.55,0,0,0,1.17-.56,10.07,10.07,0,0,0,1.25-3A3.55,3.55,0,0,1,26.66,13Z"/><path class="cls-15" d="M26.3,18.3A9.55,9.55,0,0,0,27.73,10c3.76,5.93-.09,12.8-.88,14a6.65,6.65,0,0,1-1.91.65,3.68,3.68,0,0,0,.52-2c-.56,1.34-2.6,2.33-3.72,2.7A14.84,14.84,0,0,0,26.3,18.3Z"/><path class="cls-16" d="M25.86,15.65a10,10,0,0,1-1.4,5.52,5.79,5.79,0,0,0-.41-3.77,9.51,9.51,0,0,1-.63,2.46c-.89,2.08-1.69,2.51-2,2.29-.68,2.59-5.18,2.47-5.18,2.47a10.27,10.27,0,0,0,7.23-1.42,5.56,5.56,0,0,1-2.89,2.69c1.92-.12,4.44-2.06,4.89-3.34a3.6,3.6,0,0,1-.5,2C28.17,21.13,25.86,15.65,25.86,15.65Z"/><path class="cls-17" d="M5,6.22c0-.06,0,.11-.07.06a3.81,3.81,0,0,1-.44-1.54,1.67,1.67,0,0,0-.61.94L3.75,6s0-.23,0-.21a1.46,1.46,0,0,0-.22.4,2.36,2.36,0,0,0-.11.37s0-.2,0-.16A7.89,7.89,0,0,0,3,9.81a7.42,7.42,0,0,1,3.2-2.33A4,4,0,0,1,5,6.22Z"/><path class="cls-18" d="M12.77,22.57c-2.29-.69-4.91-1.7-5.11-4.58A2.93,2.93,0,0,1,11,14.61a1.15,1.15,0,0,0-.5.65,1.44,1.44,0,0,0,.53,1.7c1.29,1.1-2.13,3.13,3.7,5.73A5.67,5.67,0,0,1,12.77,22.57Z"/><path class="cls-19" d="M11.86,20.73a6.19,6.19,0,0,0,4.43-.57C17,19.7,18,19,18.44,19.09a4.19,4.19,0,0,0-1.36-.17l-.25,0c-.15,0-.31,0-.49.07a4.89,4.89,0,0,1-.85.25s.27-.14.24-.13-.3.06-.48.1l-.3.06a10.27,10.27,0,0,1-6.15-1.1C8.63,19,10.06,20.32,11.86,20.73Z"/></g></svg>