<svg xmlns="http://www.w3.org/2000/svg" viewBox="0 0 32 32"><defs><style>.cls-1{fill:#5e95e5;}.cls-2{fill:#fff;}</style></defs><title>32</title><g id="辅助技术"><g id="_32" data-name="32"><rect class="cls-1" x="2" y="2" width="28" height="28" rx="4"/><path class="cls-2" d="M24.23,11.05l-.31.06L16,12.36l-7.9-1.3a1.11,1.11,0,0,0-.72,0,.67.67,0,0,0-.38.59.63.63,0,0,0,.38.56L14,14.11v4.35L11.34,25a.61.61,0,0,0,.15.87h0a.73.73,0,0,0,1-.16l3.51-7,3.45,7a.73.73,0,0,0,1,.15.64.64,0,0,0,.23-.79L18,18.52V14.23l6.7-2a.62.62,0,0,0,.26-.74.68.68,0,0,0-.71-.4Z"/><path class="cls-2" d="M18.5,8.55A2.5,2.5,0,1,1,16,6,2.54,2.54,0,0,1,18.5,8.55Z"/></g></g></svg>