<?xml version="1.0" encoding="utf-8"?>
<!-- Generator: Adobe Illustrator 23.0.3, SVG Export Plug-In . SVG Version: 6.00 Build 0)  -->
<svg version="1.1" id="鼠标" xmlns="http://www.w3.org/2000/svg" xmlns:xlink="http://www.w3.org/1999/xlink" x="0px" y="0px"
	 viewBox="0 0 48 48" style="enable-background:new 0 0 48 48;" xml:space="preserve">
<style type="text/css">
	.st0{fill:#ADADAD;}
	.st1{fill:#E6E6E6;}
	.st2{clip-path:url(#SVGID_2_);}
	.st3{fill:#4D4D4D;}
	.st4{fill:#FFFFFF;}
</style>
<title>48</title>
<g id="_48">
	<path class="st0" d="M24,3L24,3c7.7,0,14,6.3,14,14v14c0,7.7-6.3,14-14,14l0,0c-7.7,0-14-6.3-14-14V17C10,9.3,16.3,3,24,3z"/>
	<path class="st1" d="M23.9,4h0.2C30.7,4,36,9.3,36,15.9l0,0v12C36,34.6,30.6,40,23.9,40l0,0l0,0C17.3,40,12,34.7,12,28.1l0,0V15.9
		C12,9.3,17.3,4,23.9,4C23.9,4,23.9,4,23.9,4z"/>
	<g>
		<defs>
			<path id="SVGID_1_" d="M24,3L24,3c7.7,0,14,6.3,14,14v14c0,7.7-6.3,14-14,14l0,0c-7.7,0-14-6.3-14-14V17C10,9.3,16.3,3,24,3z"/>
		</defs>
		<clipPath id="SVGID_2_">
			<use xlink:href="#SVGID_1_"  style="overflow:visible;"/>
		</clipPath>
		<g class="st2">
			<path class="st3" d="M28,3c0,10.8,0,26-4,26s-4-15.2-4-26"/>
		</g>
	</g>
	<path class="st4" d="M24,8L24,8c0.8,0,1.5,0.7,1.5,1.5v5c0,0.8-0.7,1.5-1.5,1.5l0,0c-0.8,0-1.5-0.7-1.5-1.5v-5
		C22.5,8.7,23.2,8,24,8z"/>
</g>
</svg>
