<?xml version="1.0" encoding="utf-8"?>
<!-- Generator: Adobe Illustrator 23.0.3, SVG Export Plug-In . SVG Version: 6.00 Build 0)  -->
<svg version="1.1" id="打印机" xmlns="http://www.w3.org/2000/svg" xmlns:xlink="http://www.w3.org/1999/xlink" x="0px" y="0px"
	 viewBox="0 0 48 48" style="enable-background:new 0 0 48 48;" xml:space="preserve">
<style type="text/css">
	.st0{fill:#64798A;}
	.st1{fill:#3A556A;}
	.st2{fill:#ECECDE;}
	.st3{fill:#3FC59B;}
	.st4{fill:#CECDBC;}
	.st5{fill:#8F9396;}
</style>
<title>48</title>
<g id="_48">
	<path class="st0" d="M9,12h30c2.8,0,5,2.2,5,5v7H4v-7C4,14.2,6.2,12,9,12z"/>
	<path class="st1" d="M4,24h40v7c0,2.8-2.2,5-5,5H9c-2.8,0-5-2.2-5-5V24z"/>
	<rect x="10" y="16" class="st1" width="28" height="4"/>
	<rect x="10" y="36" class="st1" width="28" height="8"/>
	<rect x="12" y="30" class="st2" width="24" height="12"/>
	<circle class="st3" cx="40" cy="27" r="1.5"/>
	<polygon class="st2" points="32,8 32,4 12,4 12,18 36,18 36,8 	"/>
	<polygon class="st4" points="36,8 32,4 32,8 	"/>
	<rect x="16" y="7" class="st5" width="15" height="1"/>
	<rect x="16" y="11" class="st5" width="15" height="1"/>
	<rect x="16" y="15" class="st5" width="15" height="1"/>
</g>
</svg>
