<svg id="打印机" xmlns="http://www.w3.org/2000/svg" viewBox="0 0 32 32"><defs><style>.cls-1{fill:#64798a;}.cls-2{fill:#3a556a;}.cls-3{fill:#ececde;}.cls-4{fill:#3fc59b;}.cls-5{fill:#cecdbc;}.cls-6{fill:#8f9396;}</style></defs><title>32</title><g id="_32" data-name="32"><path class="cls-1" d="M6,8H26a4,4,0,0,1,4,4v4H2V12A4,4,0,0,1,6,8Z"/><path class="cls-2" d="M2,16H30v4a4,4,0,0,1-4,4H6a4,4,0,0,1-4-4Z"/><rect class="cls-2" x="6" y="10" width="20" height="3"/><rect class="cls-2" x="6" y="24" width="20" height="6"/><rect class="cls-3" x="8" y="20" width="16" height="8"/><circle class="cls-4" cx="27" cy="18" r="1"/><polygon class="cls-3" points="21 5 21 2 8 2 8 12 24 12 24 5 21 5"/><polygon class="cls-5" points="24 5 21 2 21 5 24 5"/><rect class="cls-6" x="11" y="4" width="10" height="1"/><rect class="cls-6" x="11" y="7" width="10" height="1"/><rect class="cls-6" x="11" y="10" width="10" height="1"/></g></svg>