<svg id="文档查看器" xmlns="http://www.w3.org/2000/svg" xmlns:xlink="http://www.w3.org/1999/xlink" viewBox="0 0 64 64"><defs><style>.cls-1{fill:#f6af1f;}.cls-2{fill:#f7d33c;}.cls-3{fill:url(#未命名的渐变_49);}.cls-4{fill:#e5e5e5;}.cls-5{fill:#e65c38;}</style><linearGradient id="未命名的渐变_49" x1="47.31" y1="43.78" x2="34.73" y2="26.28" gradientUnits="userSpaceOnUse"><stop offset="0" stop-color="#3e8bfd"/><stop offset="1" stop-color="#75a8ff"/></linearGradient></defs><title>64</title><g id="_64" data-name="64"><polygon class="cls-1" points="57 29 7 29.18 7 8 22 8 25 11 57 11 57 29"/><path class="cls-2" d="M4,19H60a0,0,0,0,1,0,0V50a6,6,0,0,1-6,6H9.89A5.89,5.89,0,0,1,4,50.11V19a0,0,0,0,1,0,0Z"/><g id="放大镜"><path class="cls-3" d="M41,50.5a15.5,15.5,0,1,1,13.44-7.75A15.5,15.5,0,0,1,41,50.5Z"/><path class="cls-4" d="M41,21h0a14,14,0,1,1-12.14,7A14,14,0,0,1,41,21m0-3a17,17,0,1,0,8.48,2.28A17,17,0,0,0,41,18Z"/><rect class="cls-4" x="29.3" y="49.23" width="5.6" height="2.8" transform="translate(-27.8 53.11) rotate(-60)"/><rect class="cls-5" x="26.85" y="50.19" width="5.6" height="9.8" rx="2" transform="translate(31.52 -7.44) rotate(30)"/></g></g></svg>