<?xml version="1.0" encoding="utf-8"?>
<!-- Generator: Adobe Illustrator 23.0.3, SVG Export Plug-In . SVG Version: 6.00 Build 0)  -->
<svg version="1.1" id="计算机" xmlns="http://www.w3.org/2000/svg" xmlns:xlink="http://www.w3.org/1999/xlink" x="0px" y="0px"
	 viewBox="0 0 22 22" style="enable-background:new 0 0 22 22;" xml:space="preserve">
<style type="text/css">
	.st0{fill:#4FC4F7;}
	.st1{fill:#2B383D;}
	.st2{fill:#455A64;}
	.st3{fill:#84D6F9;}
</style>
<title>22</title>
<g id="_22">
	<path class="st0" d="M2,3.5h18c0.3,0,0.5,0.2,0.5,0.5v12c0,0.3-0.2,0.5-0.5,0.5H2c-0.3,0-0.5-0.2-0.5-0.5V4C1.5,3.7,1.7,3.5,2,3.5z
		"/>
	<path class="st1" d="M20,4v12H2V4H20 M20,3H2C1.4,3,1,3.4,1,4v12c0,0.6,0.4,1,1,1h18c0.6,0,1-0.4,1-1V4C21,3.4,20.6,3,20,3z"/>
	<polygon class="st2" points="14,19 12,19 12,17 10,17 10,19 8,19 6,20 16,20 	"/>
	<rect x="6" y="20" class="st2" width="10" height="1"/>
	<polygon class="st3" points="13,4 20,4 20,16 9,16 	"/>
</g>
</svg>
