<?xml version="1.0" encoding="utf-8"?>
<!-- Generator: Adobe Illustrator 23.0.3, SVG Export Plug-In . SVG Version: 6.00 Build 0)  -->
<svg version="1.1" id="鼠标" xmlns="http://www.w3.org/2000/svg" xmlns:xlink="http://www.w3.org/1999/xlink" x="0px" y="0px"
	 viewBox="0 0 22 22" style="enable-background:new 0 0 22 22;" xml:space="preserve">
<style type="text/css">
	.st0{fill:#ADADAD;}
	.st1{fill:#E6E6E6;}
	.st2{clip-path:url(#SVGID_2_);}
	.st3{fill:#4D4D4D;}
	.st4{fill:#FFFFFF;}
</style>
<title>22</title>
<g id="_22">
	<path class="st0" d="M11,0L11,0c3.9,0,7,3.1,7,7v8c0,3.9-3.1,7-7,7l0,0c-3.9,0-7-3.1-7-7V7C4,3.1,7.1,0,11,0z"/>
	<path class="st1" d="M11,1L11,1c3.3,0,6,2.7,6,6v6c0,3.3-2.7,6-6,6l0,0c-3.3,0-6-2.7-6-6V7C5,3.7,7.7,1,11,1z"/>
	<g>
		<defs>
			<path id="SVGID_1_" d="M11,0L11,0c3.9,0,7,3.1,7,7v8c0,3.9-3.1,7-7,7l0,0c-3.9,0-7-3.1-7-7V7C4,3.1,7.1,0,11,0z"/>
		</defs>
		<clipPath id="SVGID_2_">
			<use xlink:href="#SVGID_1_"  style="overflow:visible;"/>
		</clipPath>
		<g class="st2">
			<path class="st3" d="M13,0c0,5.4,0,13-2,13S9,5.4,9,0"/>
		</g>
	</g>
	<path class="st4" d="M11,3L11,3c0.6,0,1,0.4,1,1v2c0,0.6-0.4,1-1,1l0,0c-0.6,0-1-0.4-1-1V4C10,3.4,10.4,3,11,3z"/>
</g>
</svg>
