<?xml version="1.0" encoding="utf-8"?>
<!-- Generator: Adobe Illustrator 23.0.3, SVG Export Plug-In . SVG Version: 6.00 Build 0)  -->
<svg version="1.1" id="打印机" xmlns="http://www.w3.org/2000/svg" xmlns:xlink="http://www.w3.org/1999/xlink" x="0px" y="0px"
	 viewBox="0 0 22 22" style="enable-background:new 0 0 22 22;" xml:space="preserve">
<style type="text/css">
	.st0{fill:#64798A;}
	.st1{fill:#3A556A;}
	.st2{fill:#ECECDE;}
	.st3{fill:#3FC59B;}
	.st4{fill:#CECDBC;}
	.st5{fill:#8F9396;}
</style>
<title>22</title>
<g id="_22">
	<path class="st0" d="M4,5h14c1.7,0,3,1.3,3,3v3H1V8C1,6.3,2.3,5,4,5z"/>
	<path class="st1" d="M1,11h20v3c0,1.7-1.3,3-3,3H4c-1.7,0-3-1.3-3-3V11z"/>
	<rect x="4" y="7" class="st1" width="14" height="2"/>
	<rect x="4" y="17" class="st1" width="14" height="4"/>
	<rect x="5" y="14" class="st2" width="12" height="6"/>
	<ellipse class="st3" cx="18.8" cy="12.8" rx="0.8" ry="0.8"/>
	<polygon class="st2" points="15,3 15,1 5,1 5,8 17,8 17,3 	"/>
	<polygon class="st4" points="17,3 15,1 15,3 	"/>
	<rect x="7" y="3" class="st5" width="8" height="1"/>
	<rect x="7" y="6" class="st5" width="8" height="1"/>
</g>
</svg>
