<?xml version="1.0" encoding="utf-8"?>
<!-- Generator: Adobe Illustrator 23.0.3, SVG Export Plug-In . SVG Version: 6.00 Build 0)  -->
<svg version="1.1" id="扫描易" xmlns="http://www.w3.org/2000/svg" xmlns:xlink="http://www.w3.org/1999/xlink" x="0px" y="0px"
	 viewBox="0 0 22 22" style="enable-background:new 0 0 22 22;" xml:space="preserve">
<style type="text/css">
	.st0{fill:#ECECEC;}
	.st1{fill:#5B6C74;}
	.st2{fill:#515151;}
	.st3{fill:#6CA524;}
	.st4{fill:#13BFD7;}
	.st5{fill:#E0E0E0;}
</style>
<title>22</title>
<g id="_22">
	<polygon class="st0" points="1.8,17.5 5.3,9.5 16.7,9.5 20.2,17.5 	"/>
	<path class="st1" d="M16.4,10l3.1,7H2.5l3.1-7H16.4 M17,9H5l-4,9h20L17,9z"/>
	<path class="st2" d="M1,18h20l0,0v1c0,1.1-0.9,2-2,2H3c-1.1,0-2-0.9-2-2V18L1,18z"/>
	<rect x="18" y="19" class="st3" width="1" height="1"/>
	<polygon class="st4" points="7,10 3.8,17 18,17 15,10 	"/>
	<polygon class="st5" points="1.8,13.5 5.3,5.5 16.7,5.5 20.2,13.5 	"/>
	<path class="st1" d="M16.4,6l3.1,7H2.5l3.1-7H16.4 M17,5H5l-4,9h20L17,5z"/>
</g>
</svg>
