<svg id="文档查看器" xmlns="http://www.w3.org/2000/svg" xmlns:xlink="http://www.w3.org/1999/xlink" viewBox="0 0 128 128"><defs><style>.cls-1{fill:#f6af1f;}.cls-2{fill:#f7d33c;}.cls-3{fill:url(#未命名的渐变_49);}.cls-4{fill:#e5e5e5;}.cls-5{fill:#e65c38;}</style><linearGradient id="未命名的渐变_49" x1="90.83" y1="86.58" x2="65.26" y2="51" gradientUnits="userSpaceOnUse"><stop offset="0" stop-color="#3e8bfd"/><stop offset="1" stop-color="#75a8ff"/></linearGradient></defs><title>128</title><g id="_128" data-name="128"><polygon class="cls-1" points="113 58 15 58.35 15 16 44 16 49 21 113 21 113 58"/><path class="cls-2" d="M8,39H120a0,0,0,0,1,0,0v61a12,12,0,0,1-12,12H20A12,12,0,0,1,8,100V39A0,0,0,0,1,8,39Z"/><g id="放大镜"><path class="cls-3" d="M78,100.23a31.49,31.49,0,1,1,27.31-15.75A31.52,31.52,0,0,1,78,100.23Z"/><path class="cls-4" d="M78,34.73v5A29,29,0,1,1,52.89,54.24,29,29,0,0,1,78,39.73v-5m0,0a34,34,0,1,0,17,4.56,34,34,0,0,0-17-4.56Z"/><rect class="cls-4" x="54.84" y="97.79" width="11.15" height="5.58" transform="translate(-56.9 102.62) rotate(-60)"/><rect class="cls-5" x="49.97" y="99.47" width="11.15" height="19.51" rx="4" transform="translate(62.06 -13.14) rotate(30)"/></g></g></svg>