<?xml version="1.0" encoding="utf-8"?>
<!-- Generator: Adobe Illustrator 23.0.3, SVG Export Plug-In . SVG Version: 6.00 Build 0)  -->
<svg version="1.1" id="鼠标" xmlns="http://www.w3.org/2000/svg" xmlns:xlink="http://www.w3.org/1999/xlink" x="0px" y="0px"
	 viewBox="0 0 96 96" style="enable-background:new 0 0 96 96;" xml:space="preserve">
<style type="text/css">
	.st0{fill:#ADADAD;}
	.st1{fill:#E6E6E6;}
	.st2{clip-path:url(#SVGID_2_);}
	.st3{fill:#4D4D4D;}
	.st4{fill:#FFFFFF;}
</style>
<title>96</title>
<g id="_96">
	<path class="st0" d="M48,4L48,4c16.6,0,30,13.4,30,30v28c0,16.6-13.4,30-30,30l0,0c-16.6,0-30-13.4-30-30V34C18,17.4,31.4,4,48,4z"
		/>
	<path class="st1" d="M47.8,6h0.4C62.5,6,74,17.5,74,31.8v26.4C74,72.5,62.5,84,48.2,84h-0.4C33.5,84,22,72.5,22,58.2V31.8
		C22,17.5,33.5,6,47.8,6z"/>
	<g>
		<defs>
			<path id="SVGID_1_" d="M48,4L48,4c16.6,0,30,13.4,30,30v28c0,16.6-13.4,30-30,30l0,0c-16.6,0-30-13.4-30-30V34
				C18,17.4,31.4,4,48,4z"/>
		</defs>
		<clipPath id="SVGID_2_">
			<use xlink:href="#SVGID_1_"  style="overflow:visible;"/>
		</clipPath>
		<g class="st2">
			<path class="st3" d="M56,4c0,24.9,0,60-8,60s-8-35.1-8-60"/>
		</g>
	</g>
	<path class="st4" d="M48,15L48,15c1.7,0,3,1.3,3,3v12c0,1.7-1.3,3-3,3l0,0c-1.7,0-3-1.3-3-3V18C45,16.3,46.3,15,48,15z"/>
</g>
</svg>
