<?xml version="1.0" encoding="utf-8"?>
<!-- Generator: Adobe Illustrator 23.0.3, SVG Export Plug-In . SVG Version: 6.00 Build 0)  -->
<svg version="1.1" id="打印机" xmlns="http://www.w3.org/2000/svg" xmlns:xlink="http://www.w3.org/1999/xlink" x="0px" y="0px"
	 viewBox="0 0 96 96" style="enable-background:new 0 0 96 96;" xml:space="preserve">
<style type="text/css">
	.st0{fill:#64798A;}
	.st1{fill:#3A556A;}
	.st2{fill:#ECECDE;}
	.st3{fill:#3FC59B;}
	.st4{fill:#CECDBC;}
	.st5{fill:#8F9396;}
</style>
<title>96</title>
<g id="_96">
	<path class="st0" d="M15,23h66c5,0,9,4,9,9l0,0v17H6V32C6,27,10,23,15,23z"/>
	<path class="st1" d="M6,48h84v17c0,5-4,9-9,9H15c-5,0-9-4-9-9V48z"/>
	<rect x="19" y="32" class="st1" width="58" height="9"/>
	<rect x="19" y="74" class="st1" width="58" height="16"/>
	<rect x="23" y="61" class="st2" width="50" height="25"/>
	<circle class="st3" cx="81.5" cy="54.5" r="3.5"/>
	<polygon class="st2" points="64,15 64,6 23,6 23,36 73,36 73,15 	"/>
	<polygon class="st4" points="73,15 64,6 64,15 	"/>
	<rect x="33" y="10" class="st5" width="30" height="3"/>
	<rect x="33" y="19" class="st5" width="30" height="3"/>
	<rect x="33" y="28" class="st5" width="30" height="3"/>
</g>
</svg>
