<?xml version="1.0" encoding="utf-8"?>
<!-- Generator: Adobe Illustrator 23.0.3, SVG Export Plug-In . SVG Version: 6.00 Build 0)  -->
<svg version="1.1" id="图层_1" xmlns="http://www.w3.org/2000/svg" xmlns:xlink="http://www.w3.org/1999/xlink" x="0px" y="0px"
	 viewBox="0 0 48 48" style="enable-background:new 0 0 48 48;" xml:space="preserve">
<style type="text/css">
	.st0{fill:#5E95E5;}
	.st1{fill:#FFFFFF;}
</style>
<title>48</title>
<g id="辅助技术">
	<g id="_48">
		<path class="st0" d="M9,4h30c2.8,0,5,2.2,5,5v30c0,2.8-2.2,5-5,5H9c-2.8,0-5-2.2-5-5V9C4,6.2,6.2,4,9,4z"/>
		<path class="st1" d="M35,16.1l-0.4,0.1L24,18l-10.5-1.9c-0.3-0.1-0.7-0.1-1,0C12.1,16.3,12,16.6,12,17c0,0.3,0.2,0.7,0.5,0.8
			l8.5,2.7v6.4l-3.2,9.6c-0.3,0.4-0.2,1,0.2,1.3l0,0c0.4,0.3,1,0.2,1.3-0.2c0,0,0,0,0,0L24,27.3l4.6,10.3c0.3,0.4,0.8,0.5,1.2,0.3
			c0,0,0,0,0.1,0c0.3-0.3,0.5-0.7,0.3-1.2L27,27v-6.3l8.6-3c0.3-0.3,0.5-0.7,0.3-1.1C35.8,16.2,35.4,16,35,16.1L35,16.1z"/>
		<path class="st1" d="M27.5,13.6c0,1.9-1.6,3.5-3.6,3.4c-1.9,0-3.5-1.6-3.4-3.6c0-1.9,1.6-3.4,3.5-3.4C26,10,27.5,11.6,27.5,13.6
			C27.5,13.6,27.5,13.6,27.5,13.6z"/>
	</g>
</g>
</svg>
