<?xml version="1.0" encoding="utf-8"?>
<!-- Generator: Adobe Illustrator 23.0.3, SVG Export Plug-In . SVG Version: 6.00 Build 0)  -->
<svg version="1.1" id="计算机" xmlns="http://www.w3.org/2000/svg" xmlns:xlink="http://www.w3.org/1999/xlink" x="0px" y="0px"
	 viewBox="0 0 128 128" style="enable-background:new 0 0 128 128;" xml:space="preserve">
<style type="text/css">
	.st0{fill:#4FC4F7;}
	.st1{fill:#2B383D;}
	.st2{fill:#455A64;}
	.st3{fill:#90A4AE;}
	.st4{fill:#84D6F9;}
</style>
<title>128</title>
<g id="_128">
	<path class="st0" d="M17,20h94c3.3,0,6,2.7,6,6v62c0,3.3-2.7,6-6,6H17c-3.3,0-6-2.7-6-6V26C11,22.7,13.7,20,17,20z"/>
	<path class="st1" d="M111,23c1.7,0,3,1.3,3,3v62c0,1.7-1.3,3-3,3H17c-1.7,0-3-1.3-3-3V26c0-1.7,1.3-3,3-3H111 M111,17H17
		c-5,0-9,4-9,9v62c0,5,4,9,9,9h94c5,0,9-4,9-9V26C120,21,116,17,111,17z"/>
	<polygon class="st2" points="83,108 72,108 72,97 56,97 56,108 45,108 36,116 92,116 	"/>
	<rect x="36" y="116" class="st3" width="56" height="4"/>
	<path class="st4" d="M75,23h35c2.8,0,5,2.2,5,5v58c0,2.8-2.2,5-5,5H55L75,23z"/>
</g>
</svg>
