<?xml version="1.0" encoding="utf-8"?>
<!-- Generator: Adobe Illustrator 23.0.3, SVG Export Plug-In . SVG Version: 6.00 Build 0)  -->
<svg version="1.1" id="图层_1" xmlns="http://www.w3.org/2000/svg" xmlns:xlink="http://www.w3.org/1999/xlink" x="0px" y="0px"
	 viewBox="0 0 96 96" style="enable-background:new 0 0 96 96;" xml:space="preserve">
<style type="text/css">
	.st0{fill:#5E95E5;}
	.st1{fill:#FFFFFF;}
</style>
<title>96</title>
<g id="辅助技术">
	<g id="_96">
		<path class="st0" d="M15,6h66c5,0,9,4,9,9v66c0,5-4,9-9,9H15c-5,0-9-4-9-9V15C6,10,10,6,15,6z"/>
		<path class="st1" d="M70.8,32.2l-0.9,0.2l-22.5,3.9l-22.4-4.1c-0.6-0.2-1.4-0.2-2,0C22.4,32.6,22,33.3,22,34
			c0,0.7,0.4,1.4,1.1,1.7L40,41.7v13.6l-5.7,20.5c-0.6,0.9-0.4,2.1,0.4,2.7h0.1c0.9,0.6,2.1,0.4,2.8-0.5L47.5,56l9.8,22
			c0.6,0.9,1.7,1.1,2.6,0.5c0,0,0.1,0,0.1-0.1c0.8-0.6,1-1.6,0.7-2.5L55,55.6V42.1l17.2-6.3c0.7-0.5,1-1.5,0.8-2.3
			C72.6,32.6,71.8,32.1,70.8,32.2L70.8,32.2z"/>
		<path class="st1" d="M55,25.7c-0.1,4.1-3.5,7.4-7.7,7.3c-4.1-0.1-7.4-3.5-7.3-7.7c0.1-4.1,3.4-7.3,7.5-7.3
			C51.7,18,55,21.5,55,25.7z"/>
	</g>
</g>
</svg>
