<svg id="文档查看器" xmlns="http://www.w3.org/2000/svg" xmlns:xlink="http://www.w3.org/1999/xlink" viewBox="0 0 96 96"><defs><style>.cls-1{fill:#f6af1f;}.cls-2{fill:#f7d33c;}.cls-3{fill:url(#未命名的渐变_49);}.cls-4{fill:#e5e5e5;}.cls-5{fill:#e65c38;}</style><linearGradient id="未命名的渐变_49" x1="70.07" y1="65.82" x2="50.99" y2="39.27" gradientUnits="userSpaceOnUse"><stop offset="0" stop-color="#3e8bfd"/><stop offset="1" stop-color="#75a8ff"/></linearGradient></defs><title>96</title><g id="_96" data-name="96"><polygon class="cls-1" points="85 43.5 11 43.77 11 12 33 12 37 16 85 16 85 43.5"/><path class="cls-2" d="M6,29H90a0,0,0,0,1,0,0V75a9,9,0,0,1-9,9H15a9,9,0,0,1-9-9V29A0,0,0,0,1,6,29Z"/><g id="放大镜"><path class="cls-3" d="M60.48,76A23.5,23.5,0,1,1,80.85,64.25,23.52,23.52,0,0,1,60.48,76Z"/><path class="cls-4" d="M60.52,27v4A21.48,21.48,0,0,1,81.26,46.94a21.34,21.34,0,0,1-2.14,16.31,21.5,21.5,0,0,1-29.37,7.87,21.52,21.52,0,0,1-7.87-29.37A21.59,21.59,0,0,1,60.52,31V27m0,0a25.5,25.5,0,1,0,12.73,3.42A25.48,25.48,0,0,0,60.52,27Z"/><rect class="cls-4" x="42.95" y="73.84" width="8.4" height="4.2" transform="translate(-42.19 78.8) rotate(-60)"/><rect class="cls-5" x="39.27" y="75.29" width="8.4" height="14.7" rx="3" transform="translate(47.14 -10.66) rotate(30)"/></g></g></svg>