<?xml version="1.0" encoding="utf-8"?>
<!-- Generator: Adobe Illustrator 23.0.3, SVG Export Plug-In . SVG Version: 6.00 Build 0)  -->
<svg version="1.1" id="计算机" xmlns="http://www.w3.org/2000/svg" xmlns:xlink="http://www.w3.org/1999/xlink" x="0px" y="0px"
	 viewBox="0 0 48 48" style="enable-background:new 0 0 48 48;" xml:space="preserve">
<style type="text/css">
	.st0{fill:#455A64;}
	.st1{fill:#4FC4F7;}
	.st2{fill:#2B383D;}
	.st3{fill:#90A4AE;}
	.st4{fill:#84D6F9;}
</style>
<title>48</title>
<g id="_48">
	<polygon class="st0" points="31,40 26,40 26,36 22,36 22,40 17,40 13,43 35,43 	"/>
	<path class="st1" d="M7,9h34c1.1,0,2,0.9,2,2v23c0,1.1-0.9,2-2,2H7c-1.1,0-2-0.9-2-2V11C5,9.9,5.9,9,7,9z"/>
	<path class="st2" d="M41,10c0.6,0,1,0.4,1,1v23c0,0.6-0.4,1-1,1H7c-0.6,0-1-0.4-1-1V11c0-0.6,0.4-1,1-1H41 M41,8H7
		c-1.7,0-3,1.3-3,3v23c0,1.7,1.3,3,3,3h34c1.7,0,3-1.3,3-3V11C44,9.3,42.7,8,41,8z"/>
	<rect x="13" y="43" class="st3" width="22" height="1"/>
	<path class="st4" d="M28,10h13c0.6,0,1,0.4,1,1v23c0,0.6-0.4,1-1,1H21L28,10z"/>
</g>
</svg>
