<?xml version="1.0" encoding="utf-8"?>
<!-- Generator: Adobe Illustrator 23.0.3, SVG Export Plug-In . SVG Version: 6.00 Build 0)  -->
<svg version="1.1" id="扫描易" xmlns="http://www.w3.org/2000/svg" xmlns:xlink="http://www.w3.org/1999/xlink" x="0px" y="0px"
	 viewBox="0 0 48 48" style="enable-background:new 0 0 48 48;" xml:space="preserve">
<style type="text/css">
	.st0{fill:#ECECEC;}
	.st1{fill:#5B6C74;}
	.st2{fill:#515151;}
	.st3{fill:#6CA524;}
	.st4{fill:#13BFD7;}
	.st5{fill:#E0E0E0;}
</style>
<title>48</title>
<g id="_48">
	<polygon class="st0" points="4.7,37.5 11.3,20.5 36.7,20.5 43.3,37.5 	"/>
	<path class="st1" d="M36.3,21l6.2,16H5.5l6.2-16H36.3 M37,20H11L4,38h40L37,20z"/>
	<path class="st2" d="M4,38h40l0,0v2c0,2.2-1.8,4-4,4H8c-2.2,0-4-1.8-4-4V38L4,38z"/>
	<rect x="39" y="40" class="st3" width="2" height="2"/>
	<polygon class="st4" points="14,21 9,35 39,35 34,21 	"/>
	<polygon class="st5" points="4.7,29.5 11.3,12.5 36.7,12.5 43.3,29.5 	"/>
	<path class="st1" d="M36.3,13l6.2,16H5.5l6.2-16H36.3 M37,12H11L4,30h40L37,12z"/>
</g>
</svg>
