<?xml version="1.0" encoding="utf-8"?>
<!-- Generator: Adobe Illustrator 23.0.3, SVG Export Plug-In . SVG Version: 6.00 Build 0)  -->
<svg version="1.1" id="火狐" xmlns="http://www.w3.org/2000/svg" xmlns:xlink="http://www.w3.org/1999/xlink" x="0px" y="0px"
	 viewBox="0 0 22 22" style="enable-background:new 0 0 22 22;" xml:space="preserve">
<style type="text/css">
	.st0{fill:url(#SVGID_1_);}
	.st1{fill:url(#SVGID_2_);}
	.st2{fill:url(#SVGID_3_);}
	.st3{fill:url(#SVGID_4_);}
	.st4{fill:url(#SVGID_5_);}
	.st5{fill:url(#SVGID_6_);}
	.st6{fill:url(#SVGID_7_);}
	.st7{fill:url(#SVGID_8_);}
	.st8{fill:url(#SVGID_9_);}
</style>
<title>22</title>
<g id="_22">
	
		<radialGradient id="SVGID_1_" cx="360.9744" cy="234.6327" r="5.52" gradientTransform="matrix(0.72 0 0 0.74 -242.82 -169.56)" gradientUnits="userSpaceOnUse">
		<stop  offset="0.26" style="stop-color:#FFE700"/>
		<stop  offset="0.34" style="stop-color:#FADD00"/>
		<stop  offset="0.47" style="stop-color:#F8CE00"/>
		<stop  offset="0.64" style="stop-color:#ECAA00"/>
		<stop  offset="0.85" style="stop-color:#E37B04"/>
		<stop  offset="1" style="stop-color:#DC570E"/>
	</radialGradient>
	<path class="st0" d="M17.9,2.3c0.6,0.3,1.1,0.8,1.5,1.4c0.5,0.8,0.3,1.9-0.2,1.7S17.9,2.3,17.9,2.3z"/>
	
		<radialGradient id="SVGID_2_" cx="363.0644" cy="238.8927" r="2.88" gradientTransform="matrix(0.72 0 0 0.74 -242.82 -169.56)" gradientUnits="userSpaceOnUse">
		<stop  offset="0.13" style="stop-color:#9B1418"/>
		<stop  offset="0.34" style="stop-color:#A42218"/>
		<stop  offset="0.73" style="stop-color:#C63A1A"/>
		<stop  offset="1" style="stop-color:#DB530F"/>
	</radialGradient>
	<path class="st1" d="M19.4,5.5c0.1-1.3-0.5-2.5-1.6-3.2c0,0,0.1,0.7,0.3,2.2C18.3,6.3,19.3,6.4,19.4,5.5z"/>
	
		<radialGradient id="SVGID_3_" cx="359.3744" cy="259.8827" r="2.56" gradientTransform="matrix(0.72 0 0 0.74 -242.82 -169.56)" gradientUnits="userSpaceOnUse">
		<stop  offset="0" style="stop-color:#47100E"/>
		<stop  offset="7.000000e-02" style="stop-color:#581010"/>
		<stop  offset="0.27" style="stop-color:#821214"/>
		<stop  offset="0.45" style="stop-color:#9F1217"/>
		<stop  offset="0.6" style="stop-color:#B21319"/>
		<stop  offset="0.71" style="stop-color:#B8131A"/>
		<stop  offset="1" style="stop-color:#B1121B"/>
	</radialGradient>
	<path class="st2" d="M13.3,21.1c3.3,0.7,5.9-2.2,4-2.9C15.7,17.6,11.7,20.7,13.3,21.1z"/>
	
		<radialGradient id="SVGID_4_" cx="103.39" cy="-619.72" r="2.84" gradientTransform="matrix(1 0 0 -1 0 24)" gradientUnits="userSpaceOnUse">
		<stop  offset="0.13" style="stop-color:#9B1418"/>
		<stop  offset="0.34" style="stop-color:#A42218"/>
		<stop  offset="0.73" style="stop-color:#C63A1A"/>
		<stop  offset="1" style="stop-color:#DB530F"/>
	</radialGradient>
	<path class="st3" d="M17.6,18.3c3.3-0.8,4.5-4.4,2.5-4.3C18.4,14.1,16,18.7,17.6,18.3z"/>
	
		<radialGradient id="SVGID_5_" cx="104.78" cy="-628.05" r="2.56" gradientTransform="matrix(1 0 0 -1 0 24)" gradientUnits="userSpaceOnUse">
		<stop  offset="0.13" style="stop-color:#9B1418"/>
		<stop  offset="0.34" style="stop-color:#A42218"/>
		<stop  offset="0.73" style="stop-color:#C63A1A"/>
		<stop  offset="1" style="stop-color:#DB530F"/>
	</radialGradient>
	<path class="st4" d="M20.5,12.6c2.2-1.6,1.1-4.5,1.1-4.5s-0.5,1.5-0.9,3.2S19.3,13.5,20.5,12.6z"/>
	
		<radialGradient id="SVGID_6_" cx="364.9644" cy="240.5527" r="3.2" gradientTransform="matrix(0.72 0 0 0.74 -242.82 -169.56)" gradientUnits="userSpaceOnUse">
		<stop  offset="0" style="stop-color:#9B1418"/>
		<stop  offset="0.64" style="stop-color:#C53819"/>
		<stop  offset="1" style="stop-color:#DB530F"/>
	</radialGradient>
	<path class="st5" d="M21.2,7.5c-0.1-1.6-0.8-3.1-1.9-4.2l0.4,2.2C20,7.3,21.3,9.2,21.2,7.5z"/>
	
		<radialGradient id="SVGID_7_" cx="436.4547" cy="265.0463" r="28.39" gradientTransform="matrix(0.68 0 0 0.66 -285.98 -174.17)" gradientUnits="userSpaceOnUse">
		<stop  offset="0" style="stop-color:#62C1EE"/>
		<stop  offset="8.000000e-02" style="stop-color:#52B8E9"/>
		<stop  offset="0.18" style="stop-color:#00A3DC"/>
		<stop  offset="0.38" style="stop-color:#0271B5"/>
		<stop  offset="0.5" style="stop-color:#004A90"/>
		<stop  offset="0.75" style="stop-color:#0E1D50"/>
	</radialGradient>
	<path class="st6" d="M11,21.7c5.9-0.1,10.6-4.9,10.5-10.8C21.6,4.9,16.9,0.1,11,0C5.1,0.1,0.4,4.9,0.4,10.8c0,0,0,0,0,0
		C0.3,16.7,5.1,21.6,11,21.7C11,21.7,11,21.7,11,21.7z"/>
	
		<radialGradient id="SVGID_8_" cx="358.9344" cy="243.599" r="27.82" gradientTransform="matrix(0.72 0 0 0.73 -242.82 -173.88)" gradientUnits="userSpaceOnUse">
		<stop  offset="0.12" style="stop-color:#FFFFFF"/>
		<stop  offset="0.12" style="stop-color:#FFFFFC"/>
		<stop  offset="0.25" style="stop-color:#FFE950"/>
		<stop  offset="0.28" style="stop-color:#FDE547"/>
		<stop  offset="0.33" style="stop-color:#F8D92D"/>
		<stop  offset="0.4" style="stop-color:#F1C504"/>
		<stop  offset="0.41" style="stop-color:#F0C300"/>
		<stop  offset="0.45" style="stop-color:#EDAF00"/>
		<stop  offset="0.55" style="stop-color:#E57F00"/>
		<stop  offset="0.76" style="stop-color:#DB510F"/>
		<stop  offset="0.87" style="stop-color:#CB3715"/>
		<stop  offset="1" style="stop-color:#B5141E"/>
	</radialGradient>
	<path class="st7" d="M19,17.3c0.6-1.2,1.4-1.9,1.9-2.7c0.6-1.1,1.7-4.1,0.9-6.6c0.4,1.5,0.3,3.1-1,3.9c0.5-1.8,0.6-3.7,0.3-5.6
		c-0.2-1.2-0.8-2.2-1.7-3c0.6,0.7,0.9,1.5,0.9,2.4c-1.2-2.1-3.1-3.6-5.4-4.3c1.4,0.8,2.5,2.1,3.2,3.5c-0.6-0.6-1.3-1-2.1-1.2
		c1.7,1.6,2.6,3.8,2.4,6.1c-0.3-0.6-0.6-1.1-1-1.6c0.3,3.2,0,3.9-0.2,4.7c0-0.3-0.1-0.6-0.3-0.9c-0.1,0.8-0.3,1.6-0.7,2.4
		c-0.5,1.1-1,1.4-1.2,1.4c0,0-0.1,0-0.1,0c0-0.1,0-0.2,0-0.4c-0.1,0.1-0.2,0.1-0.3,0.3c-0.1,0.1-0.1,0.2-0.2,0.2
		c0-0.1,0.1-0.1,0.1-0.2L14.3,16c-0.3,0.3-0.6,0.7-0.7,0.6c0.2-0.1,0.3-0.2,0.3-0.4c-0.3,0.2-0.7,0.4-1.1,0.4
		c-1.1,0.1-2.2-0.1-3.1-0.6c0.3-0.1,0.6-0.1,0.9,0c-0.3-0.3-0.9-0.2-1.4-0.4c-0.5-0.3-0.9-0.6-1.2-1c1.1,0.3,2.3,0.1,3.3-0.4
		c0.8-0.5,1.2-0.9,1.6-0.8s0.7-0.3,0.4-0.7c-0.5-0.6-1.3-0.8-2.1-0.6c-0.8,0.2-1.5,0.9-2.6,0.4l-0.2-0.1c-0.1,0,0.2,0,0.2,0
		c-0.2-0.1-0.5-0.2-0.7-0.3c0,0,0.2,0,0.2,0c-1.1-0.6-1-1.1-1-1.5c0-0.3,0.2-0.6,0.4-0.8l0.3,0.1c0-0.1-0.1-0.1-0.1-0.2l0,0
		C7.6,9.8,7.8,9.9,8,10c0.1,0,0.2,0.1,0.3,0.2c0,0,0,0,0-0.1C8.2,10,8.1,9.9,8,9.9l0,0L8.3,10c0.1-0.2,0.1-0.4,0.1-0.7
		c0-0.2,0-0.3-0.1-0.4s0-0.1,0.1,0c0-0.1,0-0.1-0.1-0.2l0,0c0.1-0.3,1.7-1.2,1.8-1.3c0.2-0.2,0.3-0.3,0.4-0.6
		c0.1-0.2,0.1-0.4,0.1-0.6c0-0.2-0.1-0.3-1.8-0.3C8.5,6,8.1,5.8,7.9,5.5L7.8,5.4c0-0.1-0.1-0.1-0.1-0.2C7.9,4.4,8.4,3.7,9,3.2
		c0,0-0.1,0-0.1,0C9,3.2,9.1,3.1,9.2,3c0.1,0-0.3-0.1-0.6,0C8.4,3,8.2,3.1,8.1,3.2C8.1,3.1,8.4,3,8.3,3C7.9,3.1,7.6,3.3,7.2,3.6
		c0,0,0-0.1,0-0.1C7,3.6,6.8,3.8,6.6,4c0,0,0-0.1,0-0.1C6.5,4,6.4,4.1,6.3,4.2l0,0C5.5,4,4.6,4,3.8,4.2C3.4,4,3.1,3.6,2.9,3.2
		c0,0,0,0.1,0,0C2.7,2.9,2.6,2.5,2.6,2.1C2.3,2.3,2.2,2.5,2.1,2.8L2,3.1c0,0,0-0.2,0-0.2C1.9,3,1.9,3.1,1.8,3.2
		c0,0.1-0.1,0.2-0.1,0.3l0,0c0,0,0-0.2,0-0.1C1.7,3.6,1.6,3.9,1.5,4.1C1.4,4.7,1.4,5.3,1.4,5.9c0,0.1,0,0.1,0,0.2
		C1.2,6.4,1.1,6.7,0.9,7C0.5,8,0.2,9.1,0,10.2c0.1-0.4,0.3-0.9,0.5-1.3c-0.4,1.3-0.5,2.7-0.4,4.1c0-0.4,0.1-0.8,0.2-1.2
		c0.1,1.6,0.5,3.2,1.4,4.6c1.6,2.9,4.4,4.9,7.7,5.5c-0.3-0.1-0.6-0.3-0.9-0.5c1,0.3,2.1,0.5,3.2,0.6c-0.4-0.1-0.5-0.3-0.5-0.3
		s4.8,0.3,6.4-2c-0.7,0.6-1.6,0.9-2.6,0.9c0.8-0.8,2.7-0.8,4.6-2.8c0.8-0.7,1.2-1.7,1.3-2.7C20.9,16.1,20,16.7,19,17.3z"/>
	
		<radialGradient id="SVGID_9_" cx="350.3444" cy="471.2494" r="6.79" gradientTransform="matrix(0.72 0 0 0.47 -242.82 -218.35)" gradientUnits="userSpaceOnUse">
		<stop  offset="0" style="stop-color:#DE570C;stop-opacity:0.1"/>
		<stop  offset="0.31" style="stop-color:#DD550D;stop-opacity:0.84"/>
		<stop  offset="0.56" style="stop-color:#B5141E"/>
	</radialGradient>
	<path class="st8" d="M10.7,6.4c0-0.2-0.1-0.4-1.8-0.3c-0.5,0-1-0.4-1.1-0.9C7.5,5.9,7.5,6.6,7.6,7.4C7.8,7.8,8,8.3,8.3,8.7
		c0,0.1,0.1,0.1,0.1,0c0.5-0.4,1.1-0.8,1.7-1.1C10.4,7.3,10.7,6.9,10.7,6.4z"/>
</g>
</svg>
