<?xml version="1.0" encoding="utf-8"?>
<!-- Generator: Adobe Illustrator 23.0.3, SVG Export Plug-In . SVG Version: 6.00 Build 0)  -->
<svg version="1.1" id="辅助技术" xmlns="http://www.w3.org/2000/svg" xmlns:xlink="http://www.w3.org/1999/xlink" x="0px"
	 y="0px" viewBox="0 0 22 22" style="enable-background:new 0 0 22 22;" xml:space="preserve">
<style type="text/css">
	.st0{fill:#5E95E5;}
	.st1{fill:#FFFFFF;}
</style>
<title>22</title>
<g id="_22">
	<path class="st0" d="M4,1h14c1.7,0,3,1.3,3,3v14c0,1.7-1.3,3-3,3H4c-1.7,0-3-1.3-3-3V4C1,2.3,2.3,1,4,1z"/>
	<path class="st1" d="M16.5,8l-0.2,0.1L11,8.9L5.7,8C5.6,8,5.4,8,5.3,8C5.1,8.1,5,8.2,5,8.4c0,0.2,0.1,0.3,0.3,0.4L9,10v3l-1.1,4.3
		c-0.1,0.2-0.1,0.4,0.1,0.6c0,0,0,0,0,0h0c0.2,0.1,0.5,0.1,0.6-0.1l2.4-4.7l2.3,4.7c0.2,0.2,0.4,0.2,0.6,0.1
		c0.2-0.1,0.2-0.3,0.1-0.5L13,13v-2.9l3.8-1.3C17,8.7,17.1,8.5,17,8.3C16.9,8.1,16.7,8,16.5,8L16.5,8z"/>
	<path class="st1" d="M13,6c0,1.1-0.9,2-2,2S9,7.1,9,6s0.9-2,2-2S13,4.9,13,6z"/>
</g>
</svg>
