<?xml version="1.0" encoding="utf-8"?>
<!-- Generator: Adobe Illustrator 23.0.3, SVG Export Plug-In . SVG Version: 6.00 Build 0)  -->
<svg version="1.1" id="鼠标" xmlns="http://www.w3.org/2000/svg" xmlns:xlink="http://www.w3.org/1999/xlink" x="0px" y="0px"
	 viewBox="0 0 24 24" style="enable-background:new 0 0 24 24;" xml:space="preserve">
<style type="text/css">
	.st0{fill:#ADADAD;}
	.st1{fill:#E6E6E6;}
	.st2{clip-path:url(#SVGID_2_);}
	.st3{fill:#4D4D4D;}
	.st4{fill:#FFFFFF;}
</style>
<title>24</title>
<g id="_24">
	<path class="st0" d="M12,1L12,1c3.9,0,7,3.1,7,7v8c0,3.9-3.1,7-7,7l0,0c-3.9,0-7-3.1-7-7V8C5,4.1,8.1,1,12,1z"/>
	<path class="st1" d="M12,2L12,2c3.3,0,6,2.7,6,6v6c0,3.3-2.7,6-6,6l0,0c-3.3,0-6-2.7-6-6V8C6,4.7,8.7,2,12,2z"/>
	<g>
		<defs>
			<path id="SVGID_1_" d="M12,1L12,1c3.9,0,7,3.1,7,7v8c0,3.9-3.1,7-7,7l0,0c-3.9,0-7-3.1-7-7V8C5,4.1,8.1,1,12,1z"/>
		</defs>
		<clipPath id="SVGID_2_">
			<use xlink:href="#SVGID_1_"  style="overflow:visible;"/>
		</clipPath>
		<g class="st2">
			<path class="st3" d="M14,1c0,5.4,0,13-2,13s-2-7.6-2-13"/>
		</g>
	</g>
	<path class="st4" d="M12,4L12,4c0.6,0,1,0.4,1,1v2c0,0.6-0.4,1-1,1l0,0c-0.6,0-1-0.4-1-1V5C11,4.4,11.4,4,12,4z"/>
</g>
</svg>
