<?xml version="1.0" encoding="utf-8"?>
<!-- Generator: Adobe Illustrator 23.0.3, SVG Export Plug-In . SVG Version: 6.00 Build 0)  -->
<svg version="1.1" id="扫描易" xmlns="http://www.w3.org/2000/svg" xmlns:xlink="http://www.w3.org/1999/xlink" x="0px" y="0px"
	 viewBox="0 0 24 24" style="enable-background:new 0 0 24 24;" xml:space="preserve">
<style type="text/css">
	.st0{fill:#ECECEC;}
	.st1{fill:#5B6C74;}
	.st2{fill:#515151;}
	.st3{fill:#6CA524;}
	.st4{fill:#13BFD7;}
	.st5{fill:#E0E0E0;}
</style>
<title>24</title>
<g id="_24">
	<polygon class="st0" points="2.8,18.5 6.3,10.5 17.7,10.5 21.2,18.5 	"/>
	<path class="st1" d="M17.4,11l3.1,7H3.5l3.1-7H17.4 M18,10H6l-4,9h20L18,10z"/>
	<path class="st2" d="M2,19h20l0,0v1c0,1.1-0.9,2-2,2H4c-1.1,0-2-0.9-2-2V19L2,19z"/>
	<rect x="19" y="20" class="st3" width="1" height="1"/>
	<polygon class="st4" points="8,11 4.8,18 19,18 16,11 	"/>
	<polygon class="st5" points="2.8,14.5 6.3,6.5 17.7,6.5 21.2,14.5 	"/>
	<path class="st1" d="M17.4,7l3.1,7H3.5l3.1-7H17.4 M18,6H6l-4,9h20L18,6z"/>
</g>
</svg>
