<?xml version="1.0" encoding="utf-8"?>
<!-- Generator: Adobe Illustrator 23.0.3, SVG Export Plug-In . SVG Version: 6.00 Build 0)  -->
<svg version="1.1" id="火狐" xmlns="http://www.w3.org/2000/svg" xmlns:xlink="http://www.w3.org/1999/xlink" x="0px" y="0px"
	 viewBox="0 0 24 24" style="enable-background:new 0 0 24 24;" xml:space="preserve">
<style type="text/css">
	.st0{fill:url(#SVGID_1_);}
	.st1{fill:url(#SVGID_2_);}
	.st2{fill:url(#SVGID_3_);}
	.st3{fill:url(#SVGID_4_);}
	.st4{fill:url(#SVGID_5_);}
	.st5{fill:url(#SVGID_6_);}
	.st6{fill:url(#SVGID_7_);}
	.st7{fill:url(#SVGID_8_);}
	.st8{fill:url(#SVGID_9_);}
</style>
<title>24</title>
<g id="_24">
	
		<radialGradient id="SVGID_1_" cx="386.0745" cy="279.3382" r="5.78" gradientTransform="matrix(0.69 0 0 0.68 -248.04 -188.26)" gradientUnits="userSpaceOnUse">
		<stop  offset="0.26" style="stop-color:#FFE700"/>
		<stop  offset="0.34" style="stop-color:#FADD00"/>
		<stop  offset="0.47" style="stop-color:#F8CE00"/>
		<stop  offset="0.64" style="stop-color:#ECAA00"/>
		<stop  offset="0.85" style="stop-color:#E37B04"/>
		<stop  offset="1" style="stop-color:#DC570E"/>
	</radialGradient>
	<path class="st0" d="M18.8,3.7C19.4,4,20,4.4,20.4,5c0.5,0.8,0.3,1.8-0.2,1.6S18.8,3.7,18.8,3.7z"/>
	
		<radialGradient id="SVGID_2_" cx="388.2745" cy="283.7982" r="3.02" gradientTransform="matrix(0.69 0 0 0.68 -248.04 -188.26)" gradientUnits="userSpaceOnUse">
		<stop  offset="0.13" style="stop-color:#9B1418"/>
		<stop  offset="0.34" style="stop-color:#A42218"/>
		<stop  offset="0.73" style="stop-color:#C63A1A"/>
		<stop  offset="1" style="stop-color:#DB530F"/>
	</radialGradient>
	<path class="st1" d="M20.4,6.7c0.1-1.2-0.5-2.4-1.6-3.1c0,0,0.1,0.7,0.3,2.1C19.3,7.5,20.3,7.6,20.4,6.7z"/>
	
		<radialGradient id="SVGID_3_" cx="384.4045" cy="305.7782" r="2.69" gradientTransform="matrix(0.69 0 0 0.68 -248.04 -188.26)" gradientUnits="userSpaceOnUse">
		<stop  offset="0" style="stop-color:#47100E"/>
		<stop  offset="7.000000e-02" style="stop-color:#581010"/>
		<stop  offset="0.27" style="stop-color:#821214"/>
		<stop  offset="0.45" style="stop-color:#9F1217"/>
		<stop  offset="0.6" style="stop-color:#B21319"/>
		<stop  offset="0.71" style="stop-color:#B8131A"/>
		<stop  offset="1" style="stop-color:#B1121B"/>
	</radialGradient>
	<path class="st2" d="M14.3,21.6c3.3,0.7,5.9-2.1,4-2.7C16.7,18.3,12.7,21.3,14.3,21.6z"/>
	
		<radialGradient id="SVGID_4_" cx="88.59" cy="-615.94" r="2.97" gradientTransform="matrix(1 0 0 -1 0 26)" gradientUnits="userSpaceOnUse">
		<stop  offset="0.13" style="stop-color:#9B1418"/>
		<stop  offset="0.34" style="stop-color:#A42218"/>
		<stop  offset="0.73" style="stop-color:#C63A1A"/>
		<stop  offset="1" style="stop-color:#DB530F"/>
	</radialGradient>
	<path class="st3" d="M18.6,19c3.3-0.7,4.5-4.2,2.5-4.1C19.4,15,17,19.3,18.6,19z"/>
	
		<radialGradient id="SVGID_5_" cx="90.04" cy="-624.67" r="2.69" gradientTransform="matrix(1 0 0 -1 0 26)" gradientUnits="userSpaceOnUse">
		<stop  offset="0.13" style="stop-color:#9B1418"/>
		<stop  offset="0.34" style="stop-color:#A42218"/>
		<stop  offset="0.73" style="stop-color:#C63A1A"/>
		<stop  offset="1" style="stop-color:#DB530F"/>
	</radialGradient>
	<path class="st4" d="M21.5,13.5c2.2-1.6,1.1-4.3,1.1-4.3s-0.5,1.4-0.9,3.1S20.2,14.4,21.5,13.5z"/>
	
		<radialGradient id="SVGID_6_" cx="390.2545" cy="285.5382" r="3.36" gradientTransform="matrix(0.69 0 0 0.68 -248.04 -188.26)" gradientUnits="userSpaceOnUse">
		<stop  offset="0" style="stop-color:#9B1418"/>
		<stop  offset="0.64" style="stop-color:#C53819"/>
		<stop  offset="1" style="stop-color:#DB530F"/>
	</radialGradient>
	<path class="st5" d="M22.2,8.7c-0.1-1.5-0.8-3-1.9-4c0,0,0.2,0.9,0.4,2.1C21,8.5,22.3,10.3,22.2,8.7z"/>
	
		<radialGradient id="SVGID_7_" cx="462.3293" cy="321.6533" r="29.73" gradientTransform="matrix(0.65 0 0 0.6 -288.62 -189.58)" gradientUnits="userSpaceOnUse">
		<stop  offset="0" style="stop-color:#62C1EE"/>
		<stop  offset="8.000000e-02" style="stop-color:#52B8E9"/>
		<stop  offset="0.18" style="stop-color:#00A3DC"/>
		<stop  offset="0.38" style="stop-color:#0271B5"/>
		<stop  offset="0.5" style="stop-color:#004A90"/>
		<stop  offset="0.75" style="stop-color:#0E1D50"/>
	</radialGradient>
	<path class="st6" d="M12,22.2c5.8,0,10.5-4.6,10.5-10.4C22.4,6.1,17.8,1.5,12,1.5C6.2,1.4,1.5,6,1.4,11.8c0,0,0,0,0,0
		C1.5,17.6,6.2,22.3,12,22.2C12,22.2,12,22.2,12,22.2z"/>
	
		<radialGradient id="SVGID_8_" cx="383.9445" cy="289.7413" r="29.13" gradientTransform="matrix(0.69 0 0 0.67 -248.04 -191.84)" gradientUnits="userSpaceOnUse">
		<stop  offset="0.12" style="stop-color:#FFFFFF"/>
		<stop  offset="0.12" style="stop-color:#FFFFFC"/>
		<stop  offset="0.25" style="stop-color:#FFE950"/>
		<stop  offset="0.28" style="stop-color:#FDE547"/>
		<stop  offset="0.33" style="stop-color:#F8D92D"/>
		<stop  offset="0.4" style="stop-color:#F1C504"/>
		<stop  offset="0.41" style="stop-color:#F0C300"/>
		<stop  offset="0.45" style="stop-color:#EDAF00"/>
		<stop  offset="0.55" style="stop-color:#E57F00"/>
		<stop  offset="0.76" style="stop-color:#DB510F"/>
		<stop  offset="0.87" style="stop-color:#CB3715"/>
		<stop  offset="1" style="stop-color:#B5141E"/>
	</radialGradient>
	<path class="st7" d="M20,18c0.6-1.1,1.4-1.8,1.9-2.5c0.6-1,1.7-3.9,0.9-6.3c0.4,1.5,0.3,2.9-1,3.7c0.5-1.7,0.6-3.6,0.3-5.3
		c-0.2-1.1-0.8-2.1-1.7-2.9c0.6,0.6,0.9,1.5,0.9,2.3c-1.2-2-3.1-3.5-5.4-4.1c1.4,0.8,2.5,2,3.3,3.4c-0.6-0.6-1.3-1-2.1-1.2
		c1.7,1.4,2.6,3.6,2.4,5.8c-0.3-0.6-0.6-1.1-1-1.5c0.3,3,0,3.7-0.2,4.5c0-0.3-0.1-0.6-0.3-0.8c-0.1,0.8-0.3,1.6-0.7,2.3
		c-0.5,1-1,1.3-1.2,1.3c0,0-0.1,0-0.1,0c0-0.1,0-0.2,0-0.4c-0.1,0.1-0.2,0.1-0.3,0.2c-0.1,0.1-0.1,0.2-0.2,0.2l0.1-0.2l-0.3,0.2
		c-0.3,0.3-0.6,0.7-0.7,0.6c0.1-0.1,0.3-0.2,0.3-0.4c-0.3,0.2-0.7,0.4-1.1,0.4c-1.1,0.2-2.1,0-3.1-0.5c0.3-0.1,0.6,0,0.8,0
		c-0.3-0.3-0.9-0.2-1.4-0.4c-0.5-0.3-0.9-0.6-1.2-1c1.1,0.3,2.3,0.1,3.3-0.4c0.8-0.5,1.2-0.9,1.6-0.8c0.2,0.1,0.4,0,0.5-0.2
		c0.1-0.2,0-0.3-0.1-0.4c-0.5-0.6-1.4-0.8-2.1-0.6c-0.8,0.2-1.5,0.8-2.6,0.4l-0.2-0.1c-0.1,0,0.2,0,0.2,0c-0.2-0.1-0.5-0.2-0.7-0.3
		h0.1c-1.1-0.6-1-1.1-1-1.4c0-0.3,0.2-0.5,0.4-0.6c0.1,0,0.2,0.1,0.2,0.1l-0.1-0.2l0,0C8.7,11,8.8,11.1,9,11.2
		c0.1,0,0.2,0.1,0.3,0.2c0,0,0,0,0-0.1C9.2,11.1,9.1,11,9,10.9l0,0c0.1,0,0.2,0.1,0.3,0.2c0.1-0.2,0.1-0.4,0.1-0.6
		c0-0.2,0-0.3-0.1-0.3s0-0.1,0.1,0c0-0.1,0-0.1-0.1-0.2l0,0c0.1-0.3,1.7-1.1,1.8-1.2c0.2-0.1,0.3-0.3,0.4-0.5
		c0.1-0.2,0.1-0.4,0.1-0.6c0-0.2-0.1-0.3-1.8-0.3c-0.4,0-0.7-0.2-0.9-0.5L8.8,6.6c0-0.1-0.1-0.1-0.1-0.2c0.2-0.7,0.6-1.4,1.2-1.8
		c0,0-0.1,0-0.1,0s0.3-0.2,0.4-0.2S9.9,4.3,9.6,4.3c-0.2,0-0.4,0.1-0.5,0.2c0.1-0.1,0.3-0.2,0.2-0.2c-0.4,0.1-0.7,0.3-1,0.5
		c0,0,0-0.1,0-0.1C8,4.9,7.8,5.1,7.7,5.4c0,0,0-0.1,0-0.1C7.5,5.3,7.4,5.5,7.4,5.6l0,0c-0.8-0.2-1.7-0.2-2.5,0C4.5,5.3,4.2,5,4,4.6
		c0,0,0,0.1,0,0C3.8,4.3,3.7,3.9,3.6,3.5C3.4,3.7,3.3,3.9,3.2,4.2C3.1,4.3,3.1,4.4,3,4.5c0-0.1,0-0.1,0-0.2C2.9,4.4,2.9,4.5,2.8,4.6
		c0,0.1-0.1,0.2-0.1,0.3l0,0c0,0,0-0.1,0-0.1C2.7,5,2.6,5.2,2.5,5.5C2.4,6,2.4,6.6,2.4,7.2c0,0.1,0,0.1,0,0.2
		C2.2,7.6,2.1,7.9,1.9,8.2c-0.5,1-0.8,2-0.9,3.1c0.1-0.4,0.3-0.8,0.5-1.2c-0.4,1.3-0.5,2.6-0.4,3.9c0-0.4,0.1-0.8,0.2-1.2
		c0.1,1.6,0.5,3.1,1.4,4.4c1.7,2.8,4.5,4.7,7.7,5.3c-0.3-0.1-0.6-0.2-0.9-0.4c1,0.3,2.1,0.5,3.2,0.5c-0.4-0.1-0.5-0.3-0.5-0.3
		s4.8,0.3,6.4-2c-0.7,0.6-1.6,0.9-2.5,0.8c0.8-0.8,2.6-0.7,4.6-2.6c0.8-0.7,1.2-1.6,1.3-2.6C21.9,16.9,20.9,17.5,20,18z"/>
	
		<radialGradient id="SVGID_9_" cx="374.9445" cy="565.8434" r="7.11" gradientTransform="matrix(0.69 0 0 0.42 -248.04 -226.99)" gradientUnits="userSpaceOnUse">
		<stop  offset="0" style="stop-color:#DE570C;stop-opacity:0.1"/>
		<stop  offset="0.31" style="stop-color:#DD550D;stop-opacity:0.84"/>
		<stop  offset="0.56" style="stop-color:#B5141E"/>
	</radialGradient>
	<path class="st8" d="M11.7,7.6c0-0.2-0.1-0.3-1.8-0.3c-0.5,0-1-0.4-1.1-0.8C8.5,7.1,8.5,7.8,8.6,8.5C8.8,9,9,9.4,9.3,9.8
		c0,0.1,0.1,0.1,0.1,0c0.5-0.4,1.1-0.8,1.7-1.1C11.4,8.5,11.7,8.1,11.7,7.6z"/>
</g>
</svg>
