<?xml version="1.0" encoding="utf-8"?>
<!-- Generator: Adobe Illustrator 23.0.3, SVG Export Plug-In . SVG Version: 6.00 Build 0)  -->
<svg version="1.1" id="辅助技术" xmlns="http://www.w3.org/2000/svg" xmlns:xlink="http://www.w3.org/1999/xlink" x="0px"
	 y="0px" viewBox="0 0 24 24" style="enable-background:new 0 0 24 24;" xml:space="preserve">
<style type="text/css">
	.st0{fill:#5E95E5;}
	.st1{fill:#FFFFFF;}
</style>
<title>24</title>
<g id="_24">
	<path class="st0" d="M5,2h14c1.7,0,3,1.3,3,3v14c0,1.7-1.3,3-3,3H5c-1.7,0-3-1.3-3-3V5C2,3.3,3.3,2,5,2z"/>
	<path class="st1" d="M17.5,9l-0.2,0.1L12,9.9L6.7,9C6.6,9,6.4,9,6.3,9C6.1,9.1,6,9.2,6,9.4c0,0.2,0.1,0.3,0.3,0.4L10,11v3l-1.1,4.3
		c-0.1,0.2-0.1,0.4,0.1,0.6c0,0,0,0,0,0h0c0.2,0.1,0.5,0.1,0.6-0.1l2.4-4.7l2.3,4.7c0.2,0.2,0.4,0.2,0.6,0.1
		c0.2-0.1,0.2-0.3,0.1-0.5L14,14v-2.9l3.8-1.3C18,9.7,18.1,9.5,18,9.3C17.9,9.1,17.7,9,17.5,9L17.5,9z"/>
	<path class="st1" d="M14,7c0,1.1-0.9,2-2,2s-2-0.9-2-2s0.9-2,2-2S14,5.9,14,7z"/>
</g>
</svg>
