<svg id="文档查看器" xmlns="http://www.w3.org/2000/svg" xmlns:xlink="http://www.w3.org/1999/xlink" viewBox="0 0 24 24"><defs><style>.cls-1{fill:#f6af1f;}.cls-2{fill:#f7d33c;}.cls-3{fill:#e5e5e5;}.cls-4{fill:#e65c38;}.cls-5{fill:url(#未命名的渐变_49);}</style><linearGradient id="未命名的渐变_49" x1="8.12" y1="-6.87" x2="1.26" y2="-10.27" gradientTransform="translate(6.48 17.81) rotate(30)" gradientUnits="userSpaceOnUse"><stop offset="0" stop-color="#3e8bfd"/><stop offset="1" stop-color="#75a8ff"/></linearGradient></defs><title>24</title><g id="_24" data-name="24"><polygon class="cls-1" points="21 10.5 3 10.5 3 3 8 3 9 4 21 4 21 10.5"/><path class="cls-2" d="M2,7H22a0,0,0,0,1,0,0V17a3,3,0,0,1-3,3H5a3,3,0,0,1-3-3V7A0,0,0,0,1,2,7Z"/><g id="放大镜"><rect class="cls-3" x="11.57" y="17.31" width="0.71" height="2.86" transform="translate(10.97 -3.45) rotate(30)"/><rect class="cls-4" x="9.96" y="18.5" width="2.14" height="3.57" rx="1" transform="translate(11.62 -2.8) rotate(30)"/><path class="cls-5" d="M15,18.5a5.5,5.5,0,0,1-4.76-2.75A5.5,5.5,0,0,1,15,7.5a5.5,5.5,0,0,1,4.76,2.75A5.5,5.5,0,0,1,15,18.5Z"/><path class="cls-3" d="M15,8h0a5,5,0,1,1-2.49.67A5,5,0,0,1,15,8m0-1a6,6,0,1,0,5.21,3A6,6,0,0,0,15,7Z"/></g></g></svg>