<?xml version="1.0" encoding="utf-8"?>
<!-- Generator: Adobe Illustrator 23.0.3, SVG Export Plug-In . SVG Version: 6.00 Build 0)  -->
<svg version="1.1" id="计算机" xmlns="http://www.w3.org/2000/svg" xmlns:xlink="http://www.w3.org/1999/xlink" x="0px" y="0px"
	 viewBox="0 0 32 32" style="enable-background:new 0 0 32 32;" xml:space="preserve">
<style type="text/css">
	.st0{fill:#4FC4F7;}
	.st1{fill:#2B383D;}
	.st2{fill:#455A64;}
	.st3{fill:#90A4AE;}
	.st4{fill:#84D6F9;}
</style>
<title>32</title>
<g id="_32">
	<path class="st0" d="M4,5.5h24c0.8,0,1.5,0.7,1.5,1.5v16c0,0.8-0.7,1.5-1.5,1.5H4c-0.8,0-1.5-0.7-1.5-1.5V7C2.5,6.2,3.2,5.5,4,5.5z
		"/>
	<path class="st1" d="M28,6c0.6,0,1,0.4,1,1v16c0,0.6-0.4,1-1,1H4c-0.6,0-1-0.4-1-1V7c0-0.6,0.4-1,1-1H28 M28,5H4C2.9,5,2,5.9,2,7
		v16c0,1.1,0.9,2,2,2h24c1.1,0,2-0.9,2-2V7C30,5.9,29.1,5,28,5z"/>
	<polygon class="st2" points="21,27 18,27 18,25 14,25 14,27 11,27 9,29 23,29 	"/>
	<rect x="9" y="29" class="st3" width="14" height="1"/>
	<path class="st4" d="M19,6h9c0.6,0,1,0.4,1,1v16c0,0.6-0.4,1-1,1H14L19,6z"/>
</g>
</svg>
