<svg id="扫描易" xmlns="http://www.w3.org/2000/svg" viewBox="0 0 32 32"><defs><style>.cls-1{fill:#ececec;}.cls-2{fill:#5b6c74;}.cls-3{fill:#515151;}.cls-4{fill:#6ca524;}.cls-5{fill:#13bfd7;}.cls-6{fill:#e0e0e0;}</style></defs><title>32</title><g id="_32" data-name="32"><polygon class="cls-1" points="2.73 25.5 7.34 13.5 24.66 13.5 29.27 25.5 2.73 25.5"/><path class="cls-2" d="M24.31,14l4.23,11H3.46L7.69,14H24.31M25,13H7L2,26H30L25,13Z"/><path class="cls-3" d="M2,26H30a0,0,0,0,1,0,0v1a3,3,0,0,1-3,3H5a3,3,0,0,1-3-3V26A0,0,0,0,1,2,26Z"/><rect class="cls-4" x="26" y="27" width="2" height="2"/><polygon class="cls-5" points="9 14 5 24 27 24 23 14 9 14"/><polygon class="cls-6" points="2.75 19.5 7.33 8.5 24.67 8.5 29.25 19.5 2.75 19.5"/><path class="cls-2" d="M24.33,9,28.5,19H3.5L7.67,9H24.33M25,8H7L2,20H30L25,8Z"/></g></svg>