<?xml version="1.0" encoding="utf-8"?>
<!-- Generator: Adobe Illustrator 23.0.3, SVG Export Plug-In . SVG Version: 6.00 Build 0)  -->
<svg version="1.1" id="鼠标" xmlns="http://www.w3.org/2000/svg" xmlns:xlink="http://www.w3.org/1999/xlink" x="0px" y="0px"
	 viewBox="0 0 16 16" style="enable-background:new 0 0 16 16;" xml:space="preserve">
<style type="text/css">
	.st0{fill:#ADADAD;}
	.st1{fill:#E6E6E6;}
	.st2{clip-path:url(#SVGID_2_);}
	.st3{fill:#4D4D4D;}
	.st4{fill:#FFFFFF;}
</style>
<title>16</title>
<g id="_16">
	<path class="st0" d="M8,0L8,0c2.8,0,5,2.2,5,5v6c0,2.8-2.2,5-5,5l0,0c-2.8,0-5-2.2-5-5V5C3,2.2,5.2,0,8,0z"/>
	<path class="st1" d="M8,1L8,1c2.2,0,4,1.8,4,4v5c0,2.2-1.8,4-4,4l0,0c-2.2,0-4-1.8-4-4V5C4,2.8,5.8,1,8,1z"/>
	<g>
		<defs>
			<path id="SVGID_1_" d="M8,0L8,0c2.8,0,5.1,2.3,5.1,5.1v5.8c0,2.8-2.3,5.1-5.1,5.1l0,0c-2.8,0-5.1-2.3-5.1-5.1V5.1
				C2.9,2.3,5.2,0,8,0z"/>
		</defs>
		<clipPath id="SVGID_2_">
			<use xlink:href="#SVGID_1_"  style="overflow:visible;"/>
		</clipPath>
		<g class="st2">
			<path class="st3" d="M9,0c0,3.7,0,9-1,9S7,3.7,7,0"/>
		</g>
	</g>
	<path class="st4" d="M8,2L8,2c0.3,0,0.5,0.2,0.5,0.5v2C8.5,4.8,8.3,5,8,5l0,0C7.7,5,7.5,4.8,7.5,4.5v-2C7.5,2.2,7.7,2,8,2z"/>
</g>
</svg>
