<?xml version="1.0" encoding="utf-8"?>
<!-- Generator: Adobe Illustrator 23.0.3, SVG Export Plug-In . SVG Version: 6.00 Build 0)  -->
<svg version="1.1" id="打印机" xmlns="http://www.w3.org/2000/svg" xmlns:xlink="http://www.w3.org/1999/xlink" x="0px" y="0px"
	 viewBox="0 0 64 64" style="enable-background:new 0 0 64 64;" xml:space="preserve">
<style type="text/css">
	.st0{fill:#64798A;}
	.st1{fill:#3A556A;}
	.st2{fill:#ECECDE;}
	.st3{fill:#3FC59B;}
	.st4{fill:#CECDBC;}
	.st5{fill:#8F9396;}
</style>
<title>64</title>
<g id="_64">
	<path class="st0" d="M10,15h44c3.3,0,6,2.7,6,6v11H4V21C4,17.7,6.7,15,10,15z"/>
	<path class="st1" d="M4,32h56v11c0,3.3-2.7,6-6,6H10c-3.3,0-6-2.7-6-6V32z"/>
	<rect x="13" y="21" class="st1" width="38" height="6"/>
	<rect x="13" y="49" class="st1" width="38" height="11"/>
	<rect x="15" y="41" class="st2" width="34" height="17"/>
	<circle class="st3" cx="54.5" cy="36.5" r="2.5"/>
	<polygon class="st2" points="43,10 43,4 15,4 15,24 49,24 49,10 	"/>
	<polygon class="st4" points="49,10 43,4 43,10 	"/>
	<rect x="22" y="7" class="st5" width="20" height="2"/>
	<rect x="22" y="13" class="st5" width="20" height="2"/>
	<rect x="22" y="19" class="st5" width="20" height="2"/>
</g>
</svg>
