<?xml version="1.0" encoding="utf-8"?>
<!-- Generator: Adobe Illustrator 23.0.3, SVG Export Plug-In . SVG Version: 6.00 Build 0)  -->
<svg version="1.1" id="扫描易" xmlns="http://www.w3.org/2000/svg" xmlns:xlink="http://www.w3.org/1999/xlink" x="0px" y="0px"
	 viewBox="0 0 256 256" style="enable-background:new 0 0 256 256;" xml:space="preserve">
<style type="text/css">
	.st0{fill:#ECECEC;}
	.st1{fill:#5B6C74;}
	.st2{fill:#515151;}
	.st3{fill:#6CA524;}
	.st4{fill:#13BFD7;}
	.st5{fill:#E0E0E0;}
</style>
<title>256</title>
<g id="_256">
	<polygon class="st0" points="22.4,197 59.3,101 196.6,101 233.6,197 	"/>
	<path class="st1" d="M194.6,104l34.7,90H26.7l34.7-90H194.6 M198.7,98H57.3L18,200h220L198.7,98z"/>
	<path class="st2" d="M18,200h220l0,0v14c0,13.3-10.7,24-24,24H42c-13.3,0-24-10.7-24-24V200L18,200z"/>
	<rect x="195" y="210" class="st3" width="16" height="16"/>
	<polygon class="st4" points="73,108 48,183 210,183 183,108 	"/>
	<polygon class="st5" points="22.4,156 59.3,60 196.6,60 233.6,156 	"/>
	<path class="st1" d="M194.6,63l34.7,90H26.7l34.7-90H194.6 M198.7,57H57.3L18,159h220L198.7,57z"/>
</g>
</svg>
